<svg width="164" height="78" viewBox="0 0 164 78" fill="none" xmlns="http://www.w3.org/2000/svg" xmlns:xlink="http://www.w3.org/1999/xlink">
<path d="M17.189,25.603L30.77,14.08L55.388,11.03L94.096,11.539L108.867,25.771L107.168,30.516L56.407,30.687L16.68,33.228L17.189,25.603Z" fill="#767F89"/>
<path d="M30.814,23.738C30.498,23.738 30.182,23.609 29.956,23.355C29.535,22.882 29.579,22.16 30.05,21.741L41.914,11.216C42.388,10.797 43.111,10.84 43.531,11.31C43.952,11.783 43.908,12.505 43.437,12.924L31.573,23.449C31.354,23.642 31.084,23.738 30.811,23.738L30.814,23.738Z" fill="#A8AEB4"/>
<path d="M25.873,39.9C25.558,39.9 25.242,39.77 25.018,39.516C24.597,39.043 24.641,38.321 25.112,37.902L45.739,19.603C46.213,19.184 46.936,19.227 47.356,19.697C47.777,20.17 47.733,20.892 47.262,21.311L26.635,39.61C26.416,39.803 26.146,39.9 25.873,39.9L25.873,39.9Z" fill="#A8AEB4"/>
<path d="M53.122,37.613C52.806,37.613 52.49,37.483 52.264,37.229C51.844,36.756 51.887,36.034 52.358,35.615L72.985,17.316C73.459,16.897 74.182,16.94 74.602,17.41C75.023,17.883 74.979,18.604 74.508,19.024L53.881,37.323C53.662,37.516 53.392,37.613 53.119,37.613L53.122,37.613Z" fill="#A8AEB4"/>
<path d="M73.494,40.154C73.179,40.154 72.863,40.024 72.636,39.77C72.216,39.297 72.259,38.575 72.731,38.156L93.358,19.857C93.832,19.438 94.555,19.481 94.975,19.951C95.395,20.424 95.352,21.145 94.881,21.565L74.253,39.864C74.034,40.057 73.764,40.154 73.492,40.154L73.494,40.154Z" fill="#A8AEB4"/>
<path d="M79.606,24.396C79.29,24.396 78.977,24.266 78.75,24.012C78.33,23.539 78.371,22.818 78.845,22.398L91.702,10.961C92.176,10.542 92.899,10.583 93.319,11.055C93.74,11.528 93.699,12.25 93.225,12.669L80.368,24.106C80.149,24.299 79.876,24.396 79.606,24.396Z" fill="#A8AEB4"/>
<path d="M39.006,63.048C39.006,70.676 32.81,76.857 25.171,76.857C17.531,76.857 11.335,70.673 11.335,63.048C11.335,55.424 17.531,49.24 25.171,49.24C32.81,49.24 39.006,55.424 39.006,63.048Z" fill="#58646F"/>
<path d="M144.435,62.794C144.435,70.467 138.203,76.689 130.513,76.689C122.822,76.689 116.59,70.469 116.59,62.794C116.59,55.119 122.824,48.899 130.513,48.899C138.201,48.899 144.435,55.119 144.435,62.794Z" fill="#58646F"/>
<path d="M31.876,62.626C31.876,66.182 28.988,69.064 25.425,69.064C21.862,69.064 18.975,66.182 18.975,62.626C18.975,59.071 21.862,56.188 25.425,56.188C28.988,56.188 31.876,59.071 31.876,62.626L31.876,62.626Z" fill="#C9CCD0"/>
<path d="M136.795,62.626C136.795,66.182 133.907,69.064 130.345,69.064C126.782,69.064 123.894,66.182 123.894,62.626C123.894,59.071 126.782,56.188 130.345,56.188C133.907,56.188 136.795,59.071 136.795,62.626L136.795,62.626Z" fill="#C9CCD0"/>
<path d="M154.832,37.844C154.832,35.739 153.121,34.032 151.013,34.032L118.803,27.424C118.803,27.424 100.603,13.925 99.103,12.703C97.603,11.48 93.671,8.743 90.106,8.743L44.311,8.743C22.537,8.743 12.731,23.611 6.919,34.448C1.317,44.897 1.273,52.725 1.273,60.814C1.273,62.721 2.985,64.657 5.093,64.657L6.547,64.657C6.565,63.895 6.578,63.447 6.578,62.858C6.578,52.565 14.938,44.188 25.252,44.188C35.566,44.188 43.926,52.58 43.926,62.873C43.926,63.455 43.939,63.895 43.957,64.657L111.49,64.657C111.51,63.895 111.523,63.336 111.523,62.687C111.523,52.3 120.83,43.85 130.426,43.85C140.021,43.85 149.329,52.318 149.329,62.705C149.329,63.346 149.342,63.897 149.36,64.66L155.594,64.66C157.702,64.66 159.414,62.888 159.414,60.784L154.83,37.846L154.832,37.844ZM51.064,24.569C50.741,26.486 49.913,27.551 47.176,27.551L22.537,27.551C19.8,27.551 20.062,25.855 20.691,24.564C23.024,19.771 32.553,13.605 52.332,13.605C52.141,15.575 51.39,22.656 51.064,24.572L51.064,24.569ZM100.336,28.059L65.447,28.059C63.339,28.059 61.627,26.287 61.627,24.183L62.137,17.606C62.137,15.501 63.848,13.824 65.957,13.824L87.814,13.824C92.227,13.824 93.671,14.937 95.879,16.462C98.087,17.987 103.646,22.104 103.646,24.181C103.646,26.257 102.444,28.056 100.336,28.056L100.336,28.059Z" fill="#F26A21"/>
<path d="M78.053,43.817C108.291,43.817 135.404,40.495 153.801,35.244C153.103,34.499 152.115,34.032 151.012,34.032L118.803,27.424C118.803,27.424 100.603,13.925 99.103,12.703C97.603,11.48 93.671,8.743 90.106,8.743L44.31,8.743C22.537,8.743 12.73,23.611 6.919,34.448C6.593,35.056 6.29,35.653 6,36.243C24.238,40.914 49.778,43.817 78.053,43.817L78.053,43.817ZM62.136,17.608C62.136,15.504 63.848,13.826 65.956,13.826L87.814,13.826C92.227,13.826 93.671,14.939 95.879,16.464C98.087,17.989 103.646,22.107 103.646,24.183C103.646,26.259 102.444,28.059 100.335,28.059L65.447,28.059C63.338,28.059 61.627,26.287 61.627,24.183L62.136,17.606L62.136,17.608ZM20.691,24.567C23.023,19.773 32.553,13.608 52.332,13.608C52.141,15.577 51.39,22.658 51.064,24.574C50.741,26.491 49.913,27.556 47.175,27.556L22.537,27.556C19.799,27.556 20.062,25.86 20.691,24.569L20.691,24.567Z" fill="#F58C55"/>
<path d="M7.258,33.143L15.407,33.143C15.407,33.143 18.208,41.148 3.947,41.148C5.093,37.844 7.258,33.143 7.258,33.143Z" fill="#FBD4BF"/>
<path d="M147.702,32.888C147.702,32.888 144.773,46.612 156.488,45.85C155.469,39.496 156.106,33.269 147.702,32.888Z" fill="#FFFFFF"/>
<path d="M5.093,65.674L7.66,65.674L7.696,64.566C7.716,63.918 7.726,63.336 7.726,62.792C7.726,53.144 15.59,45.298 25.255,45.298C34.919,45.298 42.783,53.147 42.783,62.792C42.783,63.328 42.793,63.907 42.813,64.563L42.846,65.671L112.602,65.671L112.635,64.563C112.658,63.849 112.669,63.214 112.669,62.621C112.669,53.213 120.965,44.958 130.426,44.958C139.886,44.958 148.183,53.213 148.183,62.621C148.183,63.211 148.193,63.826 148.214,64.561L148.247,65.671L155.594,65.671C158.331,65.671 160.985,63.257 160.56,60.715C160.134,58.174 155.973,37.722 155.973,37.722C155.38,35.216 153.748,33.46 151.132,32.888L119.282,26.354C117.273,24.854 101.204,12.876 99.826,11.752C98.594,10.748 94.244,7.472 90.103,7.472L44.308,7.472C43.292,7.472 42.301,7.503 41.334,7.566L36.882,0.534C36.544,0 35.836,-0.16 35.301,0.178C34.766,0.516 34.606,1.223 34.944,1.757L38.774,7.808C20.981,9.999 11.898,22.673 5.906,33.849C0.127,44.627 0.127,52.809 0.127,60.718C0.127,63.358 2.447,65.674 5.093,65.674ZM7.928,34.924C7.973,34.837 8.019,34.751 8.068,34.667L13.594,34.667C13.698,34.842 13.752,35.117 13.752,35.513C13.752,36.355 13.752,38.919 8.297,39.62C7.67,39.702 7.225,40.274 7.306,40.901C7.38,41.478 7.874,41.9 8.442,41.9C8.49,41.9 8.541,41.898 8.59,41.89C15.073,41.056 16.044,37.539 16.044,35.516C16.044,35.208 16.021,34.929 15.977,34.67L28.649,34.67C29.283,34.67 29.795,34.159 29.795,33.526C29.795,32.893 29.283,32.382 28.649,32.382L9.341,32.382C15.677,21.349 25.481,9.762 44.311,9.762L56.527,9.762C56.147,14.701 54.148,40.769 53.99,43.412C53.708,48.107 54.566,51.441 56.611,53.612C58.625,55.747 61.806,56.784 66.339,56.784L90.786,56.784C91.42,56.784 91.932,56.273 91.932,55.64C91.932,55.007 91.42,54.496 90.786,54.496L66.339,54.496C62.473,54.496 59.837,53.693 58.279,52.044C56.69,50.358 56.035,47.581 56.277,43.55C56.435,40.929 58.493,14.101 58.826,9.762L90.108,9.762C93.579,9.762 97.608,12.899 98.382,13.529C99.885,14.751 117.377,27.79 118.121,28.344L118.325,28.496L146.444,34.265C146.436,34.484 146.429,34.705 146.429,34.924C146.429,40.073 148.4,44.515 151.333,45.979C151.499,46.061 151.672,46.101 151.845,46.101C152.265,46.101 152.67,45.87 152.871,45.469C153.154,44.904 152.925,44.216 152.36,43.933C150.552,43.031 148.721,39.646 148.721,34.921C148.721,34.858 148.723,34.794 148.726,34.731L151.012,35.175C152.477,35.493 153.388,36.405 153.686,37.844L157,54.491L153.177,54.491C152.543,54.491 152.031,55.002 152.031,55.635C152.031,56.268 152.543,56.778 153.177,56.778L157.252,56.778C157.32,56.778 157.389,56.771 157.453,56.758C157.453,56.758 158.168,59.653 158.268,60.822C158.364,61.989 157.035,63.386 155.596,63.386L150.483,63.386C150.478,63.122 150.478,62.871 150.478,62.624C150.478,57.378 148.275,52.364 144.274,48.503C140.434,44.798 135.389,42.673 130.426,42.673C125.463,42.673 120.418,44.798 116.578,48.503C112.577,52.364 110.374,57.378 110.374,62.624C110.374,62.868 110.374,63.122 110.369,63.386L45.08,63.386C45.077,63.181 45.075,62.985 45.075,62.794C45.075,51.886 36.182,43.013 25.255,43.013C14.327,43.013 5.432,51.886 5.432,62.794C5.432,62.987 5.432,63.183 5.427,63.386L5.091,63.386C3.586,63.386 2.417,61.953 2.417,60.718C2.417,59.396 2.417,58.09 2.442,56.778L3.69,56.778C4.324,56.778 4.836,56.268 4.836,55.635C4.836,55.002 4.324,54.491 3.69,54.491L2.516,54.491C2.794,48.607 3.858,42.513 7.925,34.924L7.928,34.924Z" fill="#263544"/>
<path d="M110.7,46.894C110.621,47.522 111.066,48.092 111.695,48.17C111.744,48.175 111.792,48.18 111.838,48.18C112.409,48.18 112.9,47.756 112.974,47.179C113.84,40.264 111.517,31.206 111.418,30.824C111.26,30.212 110.634,29.846 110.02,30.003C109.406,30.161 109.039,30.786 109.197,31.399C109.22,31.488 111.51,40.411 110.697,46.897L110.7,46.894Z" fill="#263544"/>
<path d="M104.792,24.12C104.792,21.522 99.617,17.56 96.531,15.428L96.243,15.227C94.091,13.735 92.393,12.556 87.816,12.556L65.959,12.556C63.237,12.556 61.019,14.754 60.993,17.466L60.486,24.033L60.486,24.122C60.484,26.854 62.71,29.078 65.45,29.078L100.338,29.078C102.92,29.078 104.794,26.994 104.794,24.122L104.792,24.12ZM62.773,24.16L63.28,17.601L63.28,17.512C63.282,16.04 64.482,14.843 65.956,14.843L87.814,14.843C91.672,14.843 92.971,15.743 94.934,17.105L95.227,17.308C99.719,20.412 102.5,23.261 102.5,24.12C102.5,25.35 101.932,26.788 100.335,26.788L65.447,26.788C63.985,26.788 62.796,25.614 62.773,24.16L62.773,24.16Z" fill="#263544"/>
<path d="M25.084,55.254C20.872,55.254 17.444,58.675 17.444,62.879C17.444,67.082 20.872,70.503 25.084,70.503C29.296,70.503 32.724,67.082 32.724,62.879C32.724,58.675 29.296,55.254 25.084,55.254L25.084,55.254ZM25.084,68.216C22.135,68.216 19.736,65.822 19.736,62.879C19.736,59.935 22.135,57.541 25.084,57.541C28.033,57.541 30.432,59.935 30.432,62.879C30.432,65.822 28.033,68.216 25.084,68.216Z" fill="#263544"/>
<path d="M130.258,55.254C126.046,55.254 122.618,58.675 122.618,62.879C122.618,67.082 126.046,70.503 130.258,70.503C134.47,70.503 137.898,67.082 137.898,62.879C137.898,58.675 134.47,55.254 130.258,55.254L130.258,55.254ZM130.258,68.216C127.309,68.216 124.91,65.822 124.91,62.879C124.91,59.935 127.309,57.541 130.258,57.541C133.207,57.541 135.606,59.935 135.606,62.879C135.606,65.822 133.207,68.216 130.258,68.216Z" fill="#263544"/>
<path d="M73.978,32.38L61.5,32.38C60.866,32.38 60.354,32.891 60.354,33.524C60.354,34.156 60.866,34.667 61.5,34.667L73.978,34.667C74.612,34.667 75.124,34.156 75.124,33.524C75.124,32.891 74.612,32.38 73.978,32.38Z" fill="#263544"/>
<path d="M52.195,24.681C52.521,22.76 53.272,15.758 53.473,13.682C53.504,13.361 53.399,13.041 53.18,12.802C52.964,12.563 52.656,12.429 52.332,12.429C32.372,12.429 22.257,18.663 19.66,24.003C19.013,25.332 18.957,26.438 19.491,27.289C20.024,28.138 21.05,28.57 22.537,28.57L47.175,28.57C50.234,28.57 51.734,27.409 52.195,24.684L52.195,24.681ZM21.435,26.074C21.435,26.074 21.335,25.792 21.72,24.999C23.538,21.261 31.758,14.988 51.061,14.724C50.771,17.53 50.201,22.719 49.933,24.3C49.707,25.647 49.36,26.28 47.173,26.28L22.535,26.28C21.643,26.28 21.435,26.074 21.432,26.074L21.435,26.074Z" fill="#263544"/>
<path d="M45.711,74.569L34.682,74.569C38.069,71.794 40.236,67.582 40.236,62.878C40.236,54.539 33.439,47.756 25.084,47.756C16.729,47.756 9.932,54.539 9.932,62.878C9.932,67.582 12.096,71.794 15.486,74.569L1.146,74.569C0.512,74.569 0,75.08 0,75.713C0,76.346 0.512,76.856 1.146,76.856L19.227,76.856C19.25,76.856 19.27,76.851 19.293,76.849C21.078,77.588 23.034,78 25.084,78C27.134,78 29.09,77.588 30.875,76.849C30.898,76.849 30.918,76.856 30.941,76.856L45.711,76.856C46.345,76.856 46.857,76.346 46.857,75.713C46.857,75.08 46.345,74.569 45.711,74.569ZM12.224,62.878C12.224,55.8 17.992,50.043 25.084,50.043C32.176,50.043 37.944,55.8 37.944,62.878C37.944,69.956 32.176,75.713 25.084,75.713C17.992,75.713 12.224,69.956 12.224,62.878Z" fill="#263544"/>
<path d="M162.854,74.569L139.856,74.569C143.243,71.794 145.41,67.582 145.41,62.878C145.41,54.539 138.613,47.756 130.258,47.756C121.902,47.756 115.105,54.539 115.105,62.878C115.105,67.582 117.27,71.794 120.66,74.569L109.63,74.569C108.996,74.569 108.484,75.08 108.484,75.713C108.484,76.346 108.996,76.856 109.63,76.856L124.401,76.856C124.423,76.856 124.444,76.851 124.467,76.849C126.252,77.588 128.208,78 130.258,78C132.308,78 134.263,77.588 136.049,76.849C136.072,76.849 136.092,76.856 136.115,76.856L162.854,76.856C163.488,76.856 164,76.346 164,75.713C164,75.08 163.488,74.569 162.854,74.569ZM117.397,62.878C117.397,55.8 123.165,50.043 130.258,50.043C137.35,50.043 143.118,55.8 143.118,62.878C143.118,69.956 137.35,75.713 130.258,75.713C123.165,75.713 117.397,69.956 117.397,62.878Z" fill="#263544"/>
<path d="M26.714,62.861L27.883,61.694C28.331,61.247 28.331,60.522 27.883,60.078C27.434,59.63 26.709,59.63 26.263,60.078L25.094,61.244L23.895,60.044C23.447,59.597 22.721,59.597 22.275,60.044C21.827,60.492 21.827,61.216 22.275,61.661L23.477,62.861L22.306,64.03C21.857,64.477 21.857,65.201 22.306,65.646C22.53,65.87 22.823,65.982 23.115,65.982C23.408,65.982 23.701,65.87 23.925,65.646L25.097,64.477L26.289,65.669C26.513,65.893 26.805,66.004 27.098,66.004C27.391,66.004 27.684,65.893 27.908,65.669C28.356,65.222 28.356,64.497 27.908,64.052L26.716,62.861L26.714,62.861Z" fill="#263544"/>
<path d="M131.888,62.861L133.057,61.694C133.505,61.247 133.505,60.522 133.057,60.078C132.608,59.63 131.883,59.63 131.437,60.078L130.268,61.244L129.069,60.044C128.62,59.597 127.897,59.597 127.449,60.044C127.001,60.492 127.001,61.216 127.449,61.661L128.651,62.861L127.479,64.03C127.031,64.477 127.031,65.201 127.479,65.646C127.704,65.87 127.996,65.982 128.289,65.982C128.582,65.982 128.875,65.87 129.099,65.646L130.271,64.477L131.462,65.669C131.686,65.893 131.979,66.004 132.272,66.004C132.565,66.004 132.858,65.893 133.082,65.669C133.53,65.222 133.53,64.497 133.082,64.052L131.89,62.861L131.888,62.861Z" fill="#263544"/>
</svg>
