<svg width="1062" height="408" viewBox="0 0 1062 408" fill="none" xmlns="http://www.w3.org/2000/svg" xmlns:xlink="http://www.w3.org/1999/xlink">
<path d="M6.989,287.439C6.09,287.069 5.062,287.499 4.692,288.397C4.322,289.297 4.751,290.325 5.65,290.695L6.989,287.439ZM113.797,305.001L114.315,306.683L113.797,305.001ZM226.036,185.834L226.618,187.495L226.036,185.834ZM360.722,272.439L360.624,270.681L360.722,272.439ZM445.752,144.957L445.822,146.716L445.752,144.957ZM659.344,36.183L660.01,37.812L660.01,37.812L659.344,36.183ZM928.718,9.855L927.276,8.845L928.718,9.855ZM1058.826,84.984C1059.76,85.257 1060.736,84.723 1061.01,83.791C1061.284,82.858 1060.75,81.88 1059.818,81.607L1058.826,84.984ZM6.32,289.067C5.65,290.695 5.651,290.695 5.652,290.695C5.652,290.695 5.653,290.695 5.654,290.695C5.657,290.697 5.66,290.699 5.665,290.701C5.674,290.703 5.687,290.709 5.704,290.717C5.739,290.731 5.79,290.751 5.856,290.777C5.99,290.831 6.187,290.911 6.444,291.013C6.96,291.219 7.719,291.517 8.697,291.891C10.652,292.641 13.486,293.695 17.008,294.921C24.049,297.373 33.851,300.517 44.894,303.283C66.87,308.785 94.161,312.893 114.315,306.683L113.278,303.321C94.133,309.219 67.686,305.361 45.748,299.869C34.834,297.135 25.135,294.025 18.165,291.597C14.681,290.385 11.881,289.343 9.955,288.605C8.992,288.237 8.248,287.943 7.745,287.743C7.494,287.643 7.304,287.567 7.177,287.515C7.113,287.489 7.065,287.471 7.034,287.457C7.018,287.451 7.007,287.447 6.999,287.443C6.995,287.441 6.993,287.441 6.991,287.441C6.99,287.439 6.99,287.439 6.989,287.439C6.989,287.439 6.989,287.439 6.32,289.067ZM114.315,306.683C126.792,302.839 137.115,294.309 146.288,283.619C155.455,272.935 163.593,259.949 171.63,247.045C179.699,234.089 187.665,221.217 196.563,210.533C205.456,199.855 215.158,191.517 226.618,187.495L225.452,184.174C213.144,188.494 202.947,197.368 193.859,208.281C184.775,219.189 176.676,232.285 168.643,245.183C160.579,258.133 152.579,270.883 143.617,281.327C134.661,291.763 124.865,299.751 113.278,303.321L114.315,306.683ZM226.618,187.495C236.962,183.864 247.396,187.144 258.24,194.597C269.094,202.059 280.01,213.469 291.154,225.455C302.236,237.377 313.534,249.859 325.008,259.173C336.46,268.471 348.408,274.881 360.818,274.195L360.624,270.681C349.554,271.293 338.482,265.579 327.226,256.441C315.992,247.321 304.892,235.065 293.732,223.059C282.632,211.121 271.462,199.416 260.232,191.697C248.992,183.97 237.342,180.001 225.452,184.174L226.618,187.495ZM360.818,274.195C373.244,273.509 381.856,264.653 388.484,252.553C395.116,240.441 400.044,224.571 404.904,208.965C409.798,193.251 414.624,177.803 421.056,166.152C427.492,154.493 435.252,147.142 445.822,146.716L445.68,143.199C433.238,143.701 424.61,152.432 417.976,164.452C411.336,176.48 406.406,192.31 401.544,207.917C396.65,223.631 391.826,239.125 385.396,250.863C378.96,262.615 371.198,270.097 360.624,270.681L360.818,274.195ZM445.822,146.716C496.016,144.691 526.666,126.701 556.246,104.605C585.812,82.521 614.106,56.541 660.01,37.812L658.68,34.553C612.236,53.502 583.434,79.905 554.14,101.786C524.862,123.656 494.89,141.214 445.68,143.199L445.822,146.716ZM660.01,37.812C682.18,28.766 704.83,29.722 727.776,34.579C739.25,37.009 750.764,40.405 762.306,43.995C773.824,47.576 785.402,51.36 796.896,54.516C819.884,60.828 842.866,64.735 865.312,59.595C887.83,54.44 909.556,40.243 930.158,10.865L927.276,8.845C907.064,37.665 886.026,51.242 864.526,56.165C842.954,61.104 820.666,57.393 797.828,51.122C786.41,47.987 774.936,44.236 763.352,40.634C751.79,37.039 740.148,33.601 728.504,31.136C705.21,26.205 681.764,25.135 658.68,34.553L660.01,37.812ZM930.158,10.865C933.298,6.389 936.802,4.069 940.566,3.252C944.374,2.426 948.694,3.088 953.526,5.052C963.246,9.005 974.382,17.953 986.29,28.72C998.076,39.376 1010.652,51.85 1022.882,62.324C1035.122,72.805 1047.386,81.626 1058.826,84.984L1059.818,81.607C1049.158,78.479 1037.388,70.112 1025.172,59.651C1012.948,49.182 1000.65,36.958 988.65,26.109C976.774,15.372 965.22,6.009 954.85,1.792C949.638,-0.328 944.564,-1.216 939.82,-0.187C935.03,0.851 930.822,3.79 927.276,8.845L930.158,10.865Z" fill="#7549FF"/>
<line x1="-0.719" y1="284.104" x2="13.358" y2="284.104" stroke="#ECECEE" stroke-width="1.408" stroke-miterlimit="3.999327" stroke-linecap="round" stroke-linejoin="round"/>
<line x1="-0.719" y1="206.677" x2="13.358" y2="206.677" stroke="#ECECEE" stroke-width="1.408" stroke-miterlimit="3.999327" stroke-linecap="round" stroke-linejoin="round"/>
<line x1="-0.719" y1="129.25" x2="13.358" y2="129.25" stroke="#ECECEE" stroke-width="1.408" stroke-miterlimit="3.999327" stroke-linecap="round" stroke-linejoin="round"/>
<line x1="-0.719" y1="50.415" x2="13.358" y2="50.415" stroke="#ECECEE" stroke-width="1.408" stroke-miterlimit="3.999327" stroke-linecap="round" stroke-linejoin="round"/>
<line x1="637.478" y1="53.231" x2="637.478" y2="407.282" stroke="#ECECEE" stroke-width="0.704" stroke-miterlimit="3.999327"/>
</svg>
