<svg width="26" height="24" viewBox="0 0 26 24" fill="none" xmlns="http://www.w3.org/2000/svg" xmlns:xlink="http://www.w3.org/1999/xlink">
<path d="M10.263,19.41C10.846,19.41 11.319,18.937 11.319,18.354C11.319,17.771 10.846,17.298 10.263,17.298L10.263,19.41ZM1.137,17.298C0.554,17.298 0.081,17.771 0.081,18.354C0.081,18.937 0.554,19.41 1.137,19.41L1.137,17.298ZM10.263,17.298L1.137,17.298L1.137,19.41L10.263,19.41L10.263,17.298Z" transform="rotate(0 5.7 18.354)" fill="#92959E"/>
<path d="M14.334,3.638C13.751,3.638 13.279,4.111 13.279,4.694C13.279,5.277 13.751,5.75 14.334,5.75L14.334,3.638ZM23.461,5.75C24.044,5.75 24.516,5.277 24.516,4.694C24.516,4.111 24.044,3.638 23.461,3.638L23.461,5.75ZM14.334,5.75L23.461,5.75L23.461,3.638L14.334,3.638L14.334,5.75Z" transform="rotate(0 18.898 4.694)" fill="#92959E"/>
<path d="M8.996,4.617C8.996,2.174 6.956,0.255 4.518,0.255L4.518,2.366C5.859,2.366 6.885,3.408 6.885,4.617L8.996,4.617ZM4.518,0.255C2.079,0.255 0.039,2.174 0.039,4.617L2.151,4.617C2.151,3.408 3.176,2.366 4.518,2.366L4.518,0.255ZM0.039,4.617C0.039,7.061 2.079,8.98 4.518,8.98L4.518,6.868C3.176,6.868 2.151,5.826 2.151,4.617L0.039,4.617ZM4.518,8.98C6.956,8.98 8.996,7.061 8.996,4.617L6.885,4.617C6.885,5.826 5.859,6.868 4.518,6.868L4.518,8.98Z" transform="rotate(0 4.518 4.617)" fill="#92959E"/>
<path d="M25.326,18.3C25.326,15.857 23.288,13.937 20.848,13.937L20.848,16.049C22.19,16.049 23.214,17.091 23.214,18.3L25.326,18.3ZM20.848,13.937C18.409,13.937 16.368,15.857 16.368,18.3L18.48,18.3C18.48,17.091 19.505,16.049 20.848,16.049L20.848,13.937ZM16.368,18.3C16.368,20.744 18.409,22.663 20.848,22.663L20.848,20.551C19.505,20.551 18.48,19.509 18.48,18.3L16.368,18.3ZM20.848,22.663C23.288,22.663 25.326,20.743 25.326,18.3L23.214,18.3C23.214,19.51 22.19,20.551 20.848,20.551L20.848,22.663Z" transform="rotate(0 20.847 18.3)" fill="#92959E"/>
</svg>
