<svg width="26" height="24" viewBox="0 0 26 24" fill="none" xmlns="http://www.w3.org/2000/svg" xmlns:xlink="http://www.w3.org/1999/xlink">
<path d="M10.306,19.317C10.889,19.317 11.361,18.845 11.361,18.262C11.361,17.678 10.889,17.206 10.306,17.206L10.306,19.317ZM1.436,17.206C0.853,17.206 0.38,17.678 0.38,18.262C0.38,18.845 0.853,19.317 1.436,19.317L1.436,17.206ZM10.306,17.206L1.436,17.206L1.436,19.317L10.306,19.317L10.306,17.206Z" transform="rotate(0 5.871 18.262)" fill="#92959E"/>
<path d="M14.262,3.56C13.679,3.56 13.206,4.033 13.206,4.616C13.206,5.199 13.679,5.672 14.262,5.672L14.262,3.56ZM23.132,5.672C23.715,5.672 24.187,5.199 24.187,4.616C24.187,4.033 23.715,3.56 23.132,3.56L23.132,5.672ZM14.262,5.672L23.132,5.672L23.132,3.56L14.262,3.56L14.262,5.672Z" transform="rotate(0 18.697 4.616)" fill="#92959E"/>
<path d="M9.103,4.54C9.103,2.126 7.134,0.181 4.721,0.181L4.721,2.293C5.982,2.293 6.992,3.307 6.992,4.54L9.103,4.54ZM4.721,0.181C2.308,0.181 0.338,2.126 0.338,4.54L2.45,4.54C2.45,3.307 3.46,2.293 4.721,2.293L4.721,0.181ZM0.338,4.54C0.338,6.954 2.308,8.899 4.721,8.899L4.721,6.787C3.46,6.787 2.45,5.774 2.45,4.54L0.338,4.54ZM4.721,8.899C7.134,8.899 9.103,6.954 9.103,4.54L6.992,4.54C6.992,5.774 5.982,6.787 4.721,6.787L4.721,8.899Z" transform="rotate(0 4.721 4.54)" fill="#92959E"/>
<path d="M24.974,18.206C24.974,15.793 23.006,13.848 20.593,13.848L20.593,15.959C21.853,15.959 22.863,16.972 22.863,18.206L24.974,18.206ZM20.593,13.848C18.179,13.848 16.209,15.792 16.209,18.206L18.321,18.206C18.321,16.973 19.33,15.959 20.593,15.959L20.593,13.848ZM16.209,18.206C16.209,20.621 18.179,22.565 20.593,22.565L20.593,20.453C19.33,20.453 18.321,19.44 18.321,18.206L16.209,18.206ZM20.593,22.565C23.006,22.565 24.974,20.62 24.974,18.206L22.863,18.206C22.863,19.44 21.853,20.453 20.593,20.453L20.593,22.565Z" transform="rotate(0 20.592 18.206)" fill="#92959E"/>
</svg>
