<svg width="24" height="24" viewBox="0 0 24 24" fill="none" xmlns="http://www.w3.org/2000/svg" xmlns:xlink="http://www.w3.org/1999/xlink">
<path d="M9.823,18.885C10.407,18.885 10.879,18.413 10.879,17.83C10.879,17.247 10.407,16.774 9.823,16.774L9.823,18.885ZM1.35,16.774C0.767,16.774 0.294,17.247 0.294,17.83C0.294,18.413 0.767,18.885 1.35,18.885L1.35,16.774ZM9.823,16.774L1.35,16.774L1.35,18.885L9.823,18.885L9.823,16.774Z" fill="#92959E"/>
<path d="M13.603,3.205C13.019,3.205 12.547,3.677 12.547,4.26C12.547,4.843 13.019,5.316 13.603,5.316L13.603,3.205ZM22.076,5.316C22.659,5.316 23.132,4.843 23.132,4.26C23.132,3.677 22.659,3.205 22.076,3.205L22.076,5.316ZM13.603,5.316L22.076,5.316L22.076,3.205L13.603,3.205L13.603,5.316Z" fill="#92959E"/>
<path d="M8.722,4.184C8.722,1.82 6.859,-0.156 4.489,-0.156L4.489,1.955C5.628,1.955 6.611,2.92 6.611,4.184L8.722,4.184ZM4.489,-0.156C2.118,-0.156 0.255,1.82 0.255,4.184L2.366,4.184C2.366,2.92 3.349,1.955 4.489,1.955L4.489,-0.156ZM0.255,4.184C0.255,6.548 2.118,8.525 4.489,8.525L4.489,6.413C3.349,6.413 2.366,5.448 2.366,4.184L0.255,4.184ZM4.489,8.525C6.859,8.525 8.722,6.548 8.722,4.184L6.611,4.184C6.611,5.448 5.628,6.413 4.489,6.413L4.489,8.525Z" fill="#92959E"/>
<path d="M23.884,17.775C23.884,15.412 22.022,13.434 19.651,13.434L19.651,15.546C20.79,15.546 21.772,16.511 21.772,17.775L23.884,17.775ZM19.651,13.434C17.279,13.434 15.416,15.411 15.416,17.775L17.527,17.775C17.527,16.511 18.51,15.546 19.651,15.546L19.651,13.434ZM15.416,17.775C15.416,20.139 17.279,22.116 19.651,22.116L19.651,20.004C18.51,20.004 17.527,19.039 17.527,17.775L15.416,17.775ZM19.651,22.116C22.022,22.116 23.884,20.138 23.884,17.775L21.772,17.775C21.772,19.039 20.79,20.004 19.651,20.004L19.651,22.116Z" fill="#92959E"/>
</svg>
