<svg width="346" height="346" viewBox="0 0 346 346" fill="none" xmlns="http://www.w3.org/2000/svg" xmlns:xlink="http://www.w3.org/1999/xlink">
<path d="M64.47,50.989C48.363,65.451 35.306,82.984 26.064,102.559C16.823,122.135 11.583,143.358 10.653,164.985C9.723,186.612 13.12,208.207 20.646,228.504C28.172,248.8 39.675,267.39 54.481,283.182L74.404,264.504C62.086,251.364 52.514,235.896 46.252,219.01C39.99,202.122 37.164,184.154 37.938,166.159C38.712,148.165 43.071,130.506 50.761,114.218C58.45,97.931 69.314,83.343 82.716,71.31L64.47,50.989Z" transform="rotate(0 173.099 171.974)" fill="#D0D2DA"/>
<path d="M345.548,171.974C345.548,138.658 335.898,106.055 317.764,78.107C299.63,50.159 273.788,28.062 243.364,14.487C212.938,0.913 179.233,-3.558 146.321,1.615C113.409,6.788 82.701,21.384 57.907,43.638L91.462,81.021C109.033,65.25 130.796,54.906 154.121,51.24C177.446,47.573 201.334,50.742 222.896,60.362C244.458,69.983 262.772,85.643 275.624,105.45C288.476,125.257 295.314,148.363 295.314,171.974L345.548,171.974Z" transform="rotate(0 173.098 171.974)" fill="#FD2254"/>
<path d="M52.365,285.042C75.039,309.253 104.469,326.088 136.833,333.361C169.197,340.632 203,338.008 233.853,325.825C264.705,313.64 291.181,292.462 309.845,265.04C328.509,237.617 338.495,205.217 338.509,172.046L308.327,172.033C308.315,199.151 300.149,225.638 284.893,248.058C269.635,270.477 247.989,287.79 222.767,297.751C197.544,307.71 169.909,309.856 143.451,303.913C116.992,297.967 92.933,284.204 74.396,264.41L52.365,285.042Z" transform="rotate(0 173.098 171.974)" fill="#00B7FE"/>
</svg>
