<svg width="38" height="42" viewBox="0 0 38 42" fill="none" xmlns="http://www.w3.org/2000/svg" xmlns:xlink="http://www.w3.org/1999/xlink">
<path d="M11.743,29.278L23.156,29.278C24.016,29.278 24.73,28.595 24.73,27.771C24.73,26.947 24.016,26.284 23.156,26.284L11.743,26.284C10.883,26.284 10.169,26.947 10.169,27.771C10.169,28.595 10.883,29.278 11.743,29.278ZM18.834,16.236L11.743,16.236C10.883,16.236 10.169,16.919 10.169,17.743C10.169,18.567 10.883,19.23 11.743,19.23L18.834,19.23C19.694,19.23 20.408,18.567 20.408,17.743C20.408,16.919 19.694,16.236 18.834,16.236ZM33.807,14.479C34.3,14.474 34.837,14.468 35.325,14.468C35.849,14.468 36.269,14.87 36.269,15.372L36.269,31.529C36.269,36.513 32.052,40.552 26.849,40.552L10.148,40.552C4.693,40.552 0.245,36.312 0.245,31.087L0.245,9.424C0.245,4.44 4.483,0.36 9.708,0.36L20.911,0.36C21.457,0.36 21.876,0.782 21.876,1.285L21.876,7.756C21.876,11.433 25.044,14.448 28.884,14.468C29.781,14.468 30.571,14.474 31.263,14.48C31.801,14.484 32.28,14.488 32.702,14.488C33.001,14.488 33.388,14.483 33.807,14.479ZM34.385,11.545C32.661,11.551 30.628,11.545 29.165,11.531C26.845,11.531 24.934,9.7 24.934,7.478L24.934,2.18C24.934,1.314 26.031,0.884 26.658,1.509C27.794,2.641 29.356,4.196 30.909,5.744C32.458,7.287 33.999,8.822 35.105,9.923C35.718,10.532 35.269,11.543 34.385,11.545Z" clip-rule="evenodd" fill-rule="evenodd" fill="#FF6A00"/>
</svg>
