<svg width="32" height="34" viewBox="0 0 32 34" fill="none" xmlns="http://www.w3.org/2000/svg" xmlns:xlink="http://www.w3.org/1999/xlink">
<g filter="url(#filter153_541)">
<path d="M6.54,24.56C5.98,23.84 5.28,22.38 4.06,20.56C3.36,19.56 1.64,17.66 1.12,16.68C0.745,16.084 0.637,15.359 0.82,14.68C1.134,13.388 2.359,12.531 3.68,12.68C4.702,12.885 5.641,13.386 6.38,14.12C6.897,14.606 7.372,15.135 7.8,15.7C8.12,16.1 8.2,16.26 8.56,16.72C8.92,17.18 9.16,17.64 8.98,16.96C8.84,15.96 8.6,14.28 8.26,12.78C8,11.64 7.94,11.46 7.7,10.6C7.46,9.74 7.32,9.02 7.06,8.04C6.823,7.077 6.636,6.102 6.5,5.12C6.248,3.863 6.432,2.558 7.02,1.42C7.719,0.763 8.744,0.589 9.62,0.98C10.501,1.631 11.158,2.539 11.5,3.58C12.024,4.861 12.374,6.206 12.54,7.58C12.86,9.58 13.48,12.5 13.5,13.1C13.5,12.36 13.36,10.8 13.5,10.1C13.639,9.37 14.146,8.764 14.84,8.5C15.436,8.317 16.066,8.276 16.68,8.38C17.3,8.509 17.85,8.866 18.22,9.38C18.684,10.547 18.941,11.785 18.98,13.04C19.034,11.941 19.222,10.853 19.54,9.8C19.874,9.329 20.362,8.989 20.92,8.84C21.582,8.719 22.259,8.719 22.92,8.84C23.463,9.021 23.937,9.363 24.28,9.82C24.704,10.881 24.96,12.001 25.04,13.14C25.04,13.42 25.18,12.36 25.62,11.66C25.849,10.981 26.422,10.476 27.125,10.334C27.827,10.193 28.551,10.437 29.025,10.974C29.498,11.512 29.649,12.261 29.42,12.94C29.42,14.24 29.42,14.18 29.42,15.06C29.42,15.94 29.42,16.72 29.42,17.46C29.347,18.63 29.187,19.793 28.94,20.94C28.592,21.954 28.108,22.916 27.5,23.8C26.529,24.88 25.727,26.1 25.12,27.42C24.97,28.075 24.903,28.747 24.92,29.42C24.918,30.041 24.999,30.66 25.16,31.26C24.343,31.346 23.518,31.346 22.7,31.26C21.92,31.14 20.96,29.58 20.7,29.1C20.572,28.842 20.308,28.679 20.02,28.679C19.732,28.679 19.469,28.842 19.34,29.1C18.9,29.86 17.92,31.24 17.24,31.32C15.9,31.48 13.14,31.32 10.96,31.32C10.96,31.32 11.32,29.32 10.5,28.6C9.68,27.88 8.84,27.04 8.22,26.48L6.54,24.56Z" fill="#FFFFFF"/>
<path d="M6.54,24.56L5.948,25.02C5.957,25.032 5.966,25.043 5.976,25.054L6.54,24.56ZM4.06,20.56L4.683,20.142L4.675,20.13L4.06,20.56ZM1.12,16.68L1.783,16.328C1.774,16.312 1.765,16.296 1.755,16.28L1.12,16.68ZM0.82,14.68L1.544,14.876L1.549,14.857L0.82,14.68ZM3.68,12.68L3.828,11.945C3.807,11.94 3.785,11.937 3.764,11.935L3.68,12.68ZM6.38,14.12L5.852,14.652L5.866,14.666L6.38,14.12ZM7.8,15.7L7.202,16.153L7.215,16.168L7.8,15.7ZM8.98,16.96L8.237,17.064C8.242,17.093 8.248,17.123 8.255,17.152L8.98,16.96ZM8.26,12.78L8.992,12.614L8.991,12.613L8.26,12.78ZM7.06,8.04L6.332,8.22L6.335,8.232L7.06,8.04ZM6.5,5.12L7.243,5.017C7.241,5.002 7.239,4.987 7.236,4.972L6.5,5.12ZM7.02,1.42L6.506,0.874C6.445,0.932 6.393,1 6.354,1.075L7.02,1.42ZM9.62,0.98L10.066,0.377C10.022,0.344 9.975,0.317 9.926,0.295L9.62,0.98ZM11.5,3.58L10.788,3.814C10.793,3.831 10.799,3.847 10.806,3.864L11.5,3.58ZM12.54,7.58L11.796,7.67C11.797,7.679 11.798,7.689 11.8,7.698L12.54,7.58ZM13.5,13.1L12.751,13.125C12.764,13.534 13.103,13.857 13.513,13.85C13.922,13.843 14.25,13.509 14.25,13.1L13.5,13.1ZM13.5,10.1L14.236,10.247L14.237,10.24L13.5,10.1ZM14.84,8.5L14.62,7.783C14.604,7.788 14.589,7.793 14.573,7.799L14.84,8.5ZM16.68,8.38L16.834,7.646C16.824,7.644 16.815,7.642 16.805,7.64L16.68,8.38ZM18.22,9.38L18.917,9.103C18.894,9.046 18.865,8.991 18.828,8.941L18.22,9.38ZM18.98,13.04L18.231,13.063C18.243,13.466 18.571,13.786 18.974,13.79C19.376,13.793 19.71,13.478 19.729,13.076L18.98,13.04ZM19.54,9.8L18.929,9.366C18.882,9.432 18.846,9.505 18.822,9.583L19.54,9.8ZM20.92,8.84L20.785,8.102C20.765,8.106 20.746,8.11 20.726,8.115L20.92,8.84ZM22.92,8.84L23.158,8.129C23.124,8.117 23.09,8.108 23.055,8.102L22.92,8.84ZM24.28,9.82L24.977,9.542C24.952,9.48 24.92,9.422 24.88,9.369L24.28,9.82ZM25.04,13.14L25.79,13.14C25.79,13.122 25.79,13.105 25.788,13.087L25.04,13.14ZM25.62,11.66L26.255,12.059C26.287,12.009 26.312,11.955 26.331,11.899L25.62,11.66ZM29.025,10.974L28.462,11.47L28.462,11.47L29.025,10.974ZM29.42,12.94L28.71,12.7C28.684,12.778 28.67,12.858 28.67,12.94L29.42,12.94ZM29.42,17.46L30.169,17.506C30.17,17.491 30.17,17.475 30.17,17.46L29.42,17.46ZM28.94,20.94L29.65,21.183C29.659,21.155 29.667,21.127 29.674,21.098L28.94,20.94ZM27.5,23.8L28.058,24.301C28.08,24.277 28.1,24.252 28.118,24.225L27.5,23.8ZM25.12,27.42L24.439,27.107C24.417,27.153 24.401,27.202 24.389,27.252L25.12,27.42ZM24.92,29.42L25.671,29.422L25.67,29.4L24.92,29.42ZM25.16,31.26L25.239,32.006C25.457,31.983 25.655,31.865 25.779,31.684C25.903,31.503 25.942,31.277 25.885,31.065L25.16,31.26ZM22.7,31.26L22.586,32.001C22.598,32.003 22.61,32.004 22.621,32.006L22.7,31.26ZM20.7,29.1L20.029,29.435L20.041,29.457L20.7,29.1ZM19.34,29.1L19.989,29.476C19.997,29.462 20.004,29.449 20.011,29.435L19.34,29.1ZM17.24,31.32L17.153,30.575L17.151,30.575L17.24,31.32ZM10.96,31.32L10.222,31.187C10.183,31.406 10.242,31.63 10.385,31.801C10.527,31.971 10.738,32.07 10.96,32.07L10.96,31.32ZM8.22,26.48L7.656,26.974C7.675,26.996 7.696,27.017 7.718,27.036L8.22,26.48ZM7.132,24.099C6.891,23.789 6.606,23.299 6.196,22.595C5.798,21.911 5.307,21.074 4.683,20.142L3.437,20.977C4.033,21.866 4.503,22.668 4.9,23.35C5.284,24.01 5.629,24.61 5.948,25.02L7.132,24.099ZM4.675,20.13C4.305,19.602 3.671,18.842 3.107,18.142C2.511,17.402 2.002,16.742 1.783,16.328L0.458,17.031C0.758,17.598 1.37,18.377 1.939,19.083C2.539,19.828 3.115,20.518 3.446,20.99L4.675,20.13ZM1.755,16.28C1.492,15.862 1.415,15.353 1.544,14.876L0.096,14.484C-0.142,15.366 -0.001,16.307 0.486,17.079L1.755,16.28ZM1.549,14.857C1.774,13.932 2.651,13.319 3.597,13.425L3.764,11.935C2.068,11.744 0.495,12.844 0.091,14.503L1.549,14.857ZM3.533,13.415C4.41,13.591 5.217,14.022 5.852,14.652L6.909,13.588C6.065,12.75 4.994,12.179 3.828,11.945L3.533,13.415ZM5.866,14.666C6.352,15.124 6.799,15.621 7.203,16.153L8.398,15.247C7.944,14.648 7.441,14.089 6.894,13.574L5.866,14.666ZM7.215,16.168C7.361,16.352 7.451,16.478 7.554,16.622C7.661,16.772 7.779,16.938 7.97,17.182L9.151,16.258C8.982,16.042 8.88,15.898 8.776,15.752C8.669,15.602 8.559,15.448 8.386,15.231L7.215,16.168ZM7.97,17.182C8.049,17.284 8.122,17.386 8.195,17.487C8.253,17.566 8.344,17.694 8.427,17.782C8.451,17.807 8.492,17.848 8.545,17.889C8.582,17.917 8.71,18.014 8.904,18.045C9.016,18.063 9.165,18.06 9.321,17.994C9.479,17.928 9.588,17.82 9.657,17.718C9.775,17.543 9.787,17.369 9.79,17.32C9.797,17.195 9.776,17.079 9.765,17.021C9.75,16.946 9.73,16.86 9.705,16.768L8.255,17.152C8.276,17.229 8.287,17.278 8.292,17.306C8.301,17.352 8.288,17.307 8.293,17.227C8.294,17.201 8.302,17.044 8.413,16.879C8.479,16.781 8.584,16.677 8.737,16.612C8.889,16.548 9.032,16.546 9.139,16.563C9.321,16.592 9.435,16.682 9.456,16.697C9.493,16.726 9.515,16.749 9.518,16.753C9.519,16.753 9.494,16.722 9.411,16.607C9.343,16.514 9.251,16.386 9.151,16.258L7.97,17.182ZM9.723,16.856C9.583,15.858 9.34,14.149 8.992,12.614L7.529,12.946C7.861,14.411 8.097,16.062 8.237,17.064L9.723,16.856ZM8.991,12.613C8.727,11.454 8.663,11.26 8.423,10.398L6.978,10.801C7.217,11.66 7.273,11.825 7.529,12.947L8.991,12.613ZM8.423,10.398C8.307,9.984 8.215,9.601 8.117,9.191C8.02,8.783 7.918,8.349 7.785,7.848L6.335,8.232C6.462,8.711 6.56,9.126 6.658,9.538C6.756,9.949 6.854,10.356 6.978,10.801L8.423,10.398ZM7.788,7.86C7.557,6.923 7.375,5.974 7.243,5.017L5.757,5.222C5.896,6.231 6.088,7.231 6.332,8.22L7.788,7.86ZM7.236,4.972C7.017,3.883 7.176,2.751 7.686,1.764L6.354,1.075C5.687,2.365 5.479,3.844 5.765,5.267L7.236,4.972ZM7.534,1.966C8.013,1.516 8.715,1.397 9.315,1.665L9.926,0.295C8.773,-0.219 7.425,0.009 6.506,0.874L7.534,1.966ZM9.175,1.583C9.931,2.141 10.494,2.921 10.788,3.814L12.213,3.346C11.822,2.157 11.072,1.12 10.066,0.377L9.175,1.583ZM10.806,3.864C11.305,5.083 11.638,6.363 11.796,7.67L13.285,7.49C13.111,6.049 12.744,4.639 12.194,3.296L10.806,3.864ZM11.8,7.698C11.962,8.711 12.199,9.954 12.396,11.003C12.494,11.531 12.583,12.009 12.647,12.391C12.715,12.793 12.748,13.035 12.751,13.125L14.25,13.075C14.243,12.865 14.19,12.517 14.126,12.14C14.059,11.744 13.969,11.254 13.87,10.727C13.671,9.666 13.439,8.449 13.281,7.461L11.8,7.698ZM14.25,13.1C14.25,12.719 14.214,12.09 14.197,11.562C14.179,10.976 14.185,10.498 14.236,10.247L12.765,9.953C12.675,10.401 12.681,11.054 12.698,11.608C12.717,12.22 12.75,12.741 12.75,13.1L14.25,13.1ZM14.237,10.24C14.327,9.766 14.657,9.373 15.107,9.201L14.573,7.799C13.636,8.156 12.951,8.974 12.763,9.96L14.237,10.24ZM15.06,9.217C15.544,9.068 16.056,9.035 16.555,9.119L16.805,7.64C16.076,7.517 15.328,7.566 14.62,7.783L15.06,9.217ZM16.527,9.114C16.964,9.205 17.351,9.457 17.612,9.819L18.828,8.941C18.348,8.276 17.637,7.814 16.834,7.646L16.527,9.114ZM17.523,9.657C17.954,10.743 18.194,11.895 18.231,13.063L19.73,13.016C19.688,11.675 19.413,10.351 18.917,9.103L17.523,9.657ZM19.729,13.076C19.78,12.039 19.958,11.011 20.258,10.017L18.822,9.583C18.486,10.695 18.288,11.843 18.231,13.003L19.729,13.076ZM20.152,10.234C20.385,9.905 20.725,9.669 21.115,9.564L20.726,8.115C20,8.31 19.364,8.752 18.929,9.366L20.152,10.234ZM21.055,9.578C21.627,9.473 22.213,9.473 22.785,9.578L23.055,8.102C22.305,7.965 21.536,7.965 20.785,8.102L21.055,9.578ZM22.683,9.551C23.081,9.684 23.429,9.935 23.681,10.271L24.88,9.369C24.445,8.791 23.845,8.358 23.158,8.129L22.683,9.551ZM23.584,10.098C23.979,11.087 24.218,12.131 24.292,13.192L25.788,13.087C25.703,11.871 25.429,10.674 24.977,9.542L23.584,10.098ZM24.29,13.14C24.29,13.158 24.29,13.221 24.301,13.29C24.302,13.296 24.318,13.44 24.41,13.586C24.462,13.666 24.605,13.856 24.883,13.918C25.179,13.984 25.402,13.857 25.5,13.783C25.658,13.664 25.724,13.51 25.725,13.509C25.744,13.47 25.757,13.436 25.762,13.419C25.775,13.384 25.785,13.35 25.791,13.329C25.803,13.284 25.819,13.223 25.833,13.17C25.849,13.111 25.866,13.044 25.887,12.972C25.973,12.668 26.095,12.314 26.255,12.059L24.985,11.261C24.706,11.706 24.537,12.232 24.444,12.563C24.419,12.649 24.399,12.726 24.382,12.789C24.365,12.857 24.355,12.895 24.347,12.922C24.343,12.936 24.344,12.93 24.35,12.915C24.352,12.909 24.361,12.883 24.378,12.849C24.386,12.833 24.402,12.801 24.427,12.765C24.446,12.735 24.5,12.659 24.594,12.588C24.691,12.514 24.913,12.388 25.208,12.454C25.485,12.515 25.628,12.704 25.678,12.784C25.733,12.87 25.756,12.947 25.765,12.978C25.776,13.016 25.781,13.047 25.783,13.064C25.792,13.118 25.79,13.156 25.79,13.14L24.29,13.14ZM26.331,11.899C26.474,11.474 26.833,11.158 27.273,11.07L26.977,9.599C26.012,9.793 25.224,10.488 24.91,11.42L26.331,11.899ZM27.273,11.07C27.712,10.981 28.165,11.134 28.462,11.47L29.587,10.479C28.937,9.74 27.941,9.405 26.977,9.599L27.273,11.07ZM28.462,11.47C28.758,11.807 28.853,12.276 28.71,12.7L30.131,13.179C30.445,12.247 30.238,11.217 29.587,10.479L28.462,11.47ZM28.67,12.94C28.67,12.942 28.67,12.945 28.67,12.947C28.67,12.95 28.67,12.953 28.67,12.955C28.67,12.958 28.67,12.96 28.67,12.963C28.67,12.965 28.67,12.968 28.67,12.97C28.67,12.973 28.67,12.975 28.67,12.978C28.67,12.98 28.67,12.983 28.67,12.985C28.67,12.987 28.67,12.99 28.67,12.992C28.67,12.995 28.67,12.997 28.67,13C28.67,13.002 28.67,13.005 28.67,13.007C28.67,13.01 28.67,13.012 28.67,13.014C28.67,13.017 28.67,13.019 28.67,13.022C28.67,13.024 28.67,13.027 28.67,13.029C28.67,13.031 28.67,13.034 28.67,13.036C28.67,13.039 28.67,13.041 28.67,13.043C28.67,13.046 28.67,13.048 28.67,13.051C28.67,13.053 28.67,13.055 28.67,13.058C28.67,13.06 28.67,13.063 28.67,13.065C28.67,13.067 28.67,13.07 28.67,13.072C28.67,13.074 28.67,13.077 28.67,13.079C28.67,13.081 28.67,13.084 28.67,13.086C28.67,13.088 28.67,13.091 28.67,13.093C28.67,13.095 28.67,13.098 28.67,13.1C28.67,13.102 28.67,13.105 28.67,13.107C28.67,13.109 28.67,13.112 28.67,13.114C28.67,13.116 28.67,13.119 28.67,13.121C28.67,13.123 28.67,13.125 28.67,13.128C28.67,13.13 28.67,13.132 28.67,13.135C28.67,13.137 28.67,13.139 28.67,13.141C28.67,13.144 28.67,13.146 28.67,13.148C28.67,13.15 28.67,13.153 28.67,13.155C28.67,13.157 28.67,13.159 28.67,13.162C28.67,13.164 28.67,13.166 28.67,13.168C28.67,13.17 28.67,13.173 28.67,13.175C28.67,13.177 28.67,13.179 28.67,13.182C28.67,13.184 28.67,13.186 28.67,13.188C28.67,13.19 28.67,13.193 28.67,13.195C28.67,13.197 28.67,13.199 28.67,13.201C28.67,13.203 28.67,13.206 28.67,13.208C28.67,13.21 28.67,13.212 28.67,13.214C28.67,13.216 28.67,13.219 28.67,13.221C28.67,13.223 28.67,13.225 28.67,13.227C28.67,13.229 28.67,13.231 28.67,13.234C28.67,13.236 28.67,13.238 28.67,13.24C28.67,13.242 28.67,13.244 28.67,13.246C28.67,13.248 28.67,13.251 28.67,13.253C28.67,13.255 28.67,13.257 28.67,13.259C28.67,13.261 28.67,13.263 28.67,13.265C28.67,13.267 28.67,13.269 28.67,13.272C28.67,13.274 28.67,13.276 28.67,13.278C28.67,13.28 28.67,13.282 28.67,13.284C28.67,13.286 28.67,13.288 28.67,13.29C28.67,13.292 28.67,13.294 28.67,13.296C28.67,13.298 28.67,13.3 28.67,13.302C28.67,13.304 28.67,13.306 28.67,13.308C28.67,13.311 28.67,13.313 28.67,13.315C28.67,13.317 28.67,13.319 28.67,13.321C28.67,13.323 28.67,13.325 28.67,13.327C28.67,13.329 28.67,13.331 28.67,13.333C28.67,13.335 28.67,13.337 28.67,13.339C28.67,13.341 28.67,13.343 28.67,13.345C28.67,13.347 28.67,13.349 28.67,13.35C28.67,13.352 28.67,13.354 28.67,13.356C28.67,13.358 28.67,13.36 28.67,13.362C28.67,13.364 28.67,13.366 28.67,13.368C28.67,13.37 28.67,13.372 28.67,13.374C28.67,13.376 28.67,13.378 28.67,13.38C28.67,13.382 28.67,13.384 28.67,13.385C28.67,13.387 28.67,13.389 28.67,13.391C28.67,13.393 28.67,13.395 28.67,13.397C28.67,13.399 28.67,13.401 28.67,13.403C28.67,13.405 28.67,13.406 28.67,13.408C28.67,13.41 28.67,13.412 28.67,13.414C28.67,13.416 28.67,13.418 28.67,13.42C28.67,13.422 28.67,13.423 28.67,13.425C28.67,13.427 28.67,13.429 28.67,13.431C28.67,13.433 28.67,13.435 28.67,13.436C28.67,13.438 28.67,13.44 28.67,13.442C28.67,13.444 28.67,13.446 28.67,13.447C28.67,13.449 28.67,13.451 28.67,13.453C28.67,13.455 28.67,13.457 28.67,13.458C28.67,13.46 28.67,13.462 28.67,13.464C28.67,13.466 28.67,13.467 28.67,13.469C28.67,13.471 28.67,13.473 28.67,13.475C28.67,13.476 28.67,13.478 28.67,13.48C28.67,13.482 28.67,13.484 28.67,13.485C28.67,13.487 28.67,13.489 28.67,13.491C28.67,13.492 28.67,13.494 28.67,13.496C28.67,13.498 28.67,13.5 28.67,13.501C28.67,13.503 28.67,13.505 28.67,13.507C28.67,13.508 28.67,13.51 28.67,13.512C28.67,13.514 28.67,13.515 28.67,13.517C28.67,13.519 28.67,13.521 28.67,13.522C28.67,13.524 28.67,13.526 28.67,13.527C28.67,13.529 28.67,13.531 28.67,13.533C28.67,13.534 28.67,13.536 28.67,13.538C28.67,13.539 28.67,13.541 28.67,13.543C28.67,13.545 28.67,13.546 28.67,13.548C28.67,13.55 28.67,13.551 28.67,13.553C28.67,13.555 28.67,13.556 28.67,13.558C28.67,13.56 28.67,13.561 28.67,13.563C28.67,13.565 28.67,13.566 28.67,13.568C28.67,13.57 28.67,13.571 28.67,13.573C28.67,13.575 28.67,13.576 28.67,13.578C28.67,13.58 28.67,13.581 28.67,13.583C28.67,13.585 28.67,13.586 28.67,13.588C28.67,13.59 28.67,13.591 28.67,13.593C28.67,13.594 28.67,13.596 28.67,13.598C28.67,13.599 28.67,13.601 28.67,13.603C28.67,13.604 28.67,13.606 28.67,13.607C28.67,13.609 28.67,13.611 28.67,13.612C28.67,13.614 28.67,13.615 28.67,13.617C28.67,13.619 28.67,13.62 28.67,13.622C28.67,13.623 28.67,13.625 28.67,13.627C28.67,13.628 28.67,13.63 28.67,13.631C28.67,13.633 28.67,13.634 28.67,13.636C28.67,13.638 28.67,13.639 28.67,13.641C28.67,13.642 28.67,13.644 28.67,13.645C28.67,13.647 28.67,13.649 28.67,13.65C28.67,13.652 28.67,13.653 28.67,13.655C28.67,13.656 28.67,13.658 28.67,13.659C28.67,13.661 28.67,13.662 28.67,13.664C28.67,13.666 28.67,13.667 28.67,13.669C28.67,13.67 28.67,13.672 28.67,13.673C28.67,13.675 28.67,13.676 28.67,13.678C28.67,13.679 28.67,13.681 28.67,13.682C28.67,13.684 28.67,13.685 28.67,13.687C28.67,13.688 28.67,13.69 28.67,13.691C28.67,13.693 28.67,13.694 28.67,13.696C28.67,13.697 28.67,13.699 28.67,13.7C28.67,13.702 28.67,13.703 28.67,13.705C28.67,13.706 28.67,13.708 28.67,13.709C28.67,13.711 28.67,13.712 28.67,13.714C28.67,13.715 28.67,13.716 28.67,13.718C28.67,13.719 28.67,13.721 28.67,13.722C28.67,13.724 28.67,13.725 28.67,13.727C28.67,13.728 28.67,13.73 28.67,13.731C28.67,13.732 28.67,13.734 28.67,13.735C28.67,13.737 28.67,13.738 28.67,13.74C28.67,13.741 28.67,13.743 28.67,13.744C28.67,13.745 28.67,13.747 28.67,13.748C28.67,13.75 28.67,13.751 28.67,13.752C28.67,13.754 28.67,13.755 28.67,13.757C28.67,13.758 28.67,13.76 28.67,13.761C28.67,13.762 28.67,13.764 28.67,13.765C28.67,13.767 28.67,13.768 28.67,13.769C28.67,13.771 28.67,13.772 28.67,13.774C28.67,13.775 28.67,13.776 28.67,13.778C28.67,13.779 28.67,13.78 28.67,13.782C28.67,13.783 28.67,13.785 28.67,13.786C28.67,13.787 28.67,13.789 28.67,13.79C28.67,13.791 28.67,13.793 28.67,13.794C28.67,13.796 28.67,13.797 28.67,13.798C28.67,13.8 28.67,13.801 28.67,13.802C28.67,13.804 28.67,13.805 28.67,13.806C28.67,13.808 28.67,13.809 28.67,13.81C28.67,13.812 28.67,13.813 28.67,13.814C28.67,13.816 28.67,13.817 28.67,13.818C28.67,13.82 28.67,13.821 28.67,13.822C28.67,13.824 28.67,13.825 28.67,13.826C28.67,13.828 28.67,13.829 28.67,13.83C28.67,13.832 28.67,13.833 28.67,13.834C28.67,13.836 28.67,13.837 28.67,13.838C28.67,13.84 28.67,13.841 28.67,13.842C28.67,13.843 28.67,13.845 28.67,13.846C28.67,13.847 28.67,13.849 28.67,13.85C28.67,13.851 28.67,13.853 28.67,13.854C28.67,13.855 28.67,13.856 28.67,13.858C28.67,13.859 28.67,13.86 28.67,13.862C28.67,13.863 28.67,13.864 28.67,13.865C28.67,13.867 28.67,13.868 28.67,13.869C28.67,13.87 28.67,13.872 28.67,13.873C28.67,13.874 28.67,13.875 28.67,13.877C28.67,13.878 28.67,13.879 28.67,13.881C28.67,13.882 28.67,13.883 28.67,13.884C28.67,13.886 28.67,13.887 28.67,13.888C28.67,13.889 28.67,13.891 28.67,13.892C28.67,13.893 28.67,13.894 28.67,13.896C28.67,13.897 28.67,13.898 28.67,13.899C28.67,13.9 28.67,13.902 28.67,13.903C28.67,13.904 28.67,13.905 28.67,13.907C28.67,13.908 28.67,13.909 28.67,13.91C28.67,13.912 28.67,13.913 28.67,13.914C28.67,13.915 28.67,13.916 28.67,13.918C28.67,13.919 28.67,13.92 28.67,13.921C28.67,13.922 28.67,13.924 28.67,13.925C28.67,13.926 28.67,13.927 28.67,13.928C28.67,13.93 28.67,13.931 28.67,13.932C28.67,13.933 28.67,13.934 28.67,13.936C28.67,13.937 28.67,13.938 28.67,13.939C28.67,13.94 28.67,13.942 28.67,13.943C28.67,13.944 28.67,13.945 28.67,13.946C28.67,13.948 28.67,13.949 28.67,13.95C28.67,13.951 28.67,13.952 28.67,13.953C28.67,13.955 28.67,13.956 28.67,13.957C28.67,13.958 28.67,13.959 28.67,13.96C28.67,13.962 28.67,13.963 28.67,13.964C28.67,13.965 28.67,13.966 28.67,13.967C28.67,13.969 28.67,13.97 28.67,13.971C28.67,13.972 28.67,13.973 28.67,13.974C28.67,13.976 28.67,13.977 28.67,13.978C28.67,13.979 28.67,13.98 28.67,13.981C28.67,13.982 28.67,13.984 28.67,13.985C28.67,13.986 28.67,13.987 28.67,13.988C28.67,13.989 28.67,13.99 28.67,13.992C28.67,13.993 28.67,13.994 28.67,13.995C28.67,13.996 28.67,13.997 28.67,13.998C28.67,13.999 28.67,14.001 28.67,14.002C28.67,14.003 28.67,14.004 28.67,14.005C28.67,14.006 28.67,14.007 28.67,14.008C28.67,14.01 28.67,14.011 28.67,14.012C28.67,14.013 28.67,14.014 28.67,14.015C28.67,14.016 28.67,14.017 28.67,14.018C28.67,14.02 28.67,14.021 28.67,14.022C28.67,14.023 28.67,14.024 28.67,14.025C28.67,14.026 28.67,14.027 28.67,14.028C28.67,14.03 28.67,14.031 28.67,14.032C28.67,14.033 28.67,14.034 28.67,14.035C28.67,14.036 28.67,14.037 28.67,14.038C28.67,14.039 28.67,14.04 28.67,14.042C28.67,14.043 28.67,14.044 28.67,14.045C28.67,14.046 28.67,14.047 28.67,14.048C28.67,14.049 28.67,14.05 28.67,14.051C28.67,14.052 28.67,14.053 28.67,14.055C28.67,14.056 28.67,14.057 28.67,14.058C28.67,14.059 28.67,14.06 28.67,14.061C28.67,14.062 28.67,14.063 28.67,14.064C28.67,14.065 28.67,14.066 28.67,14.067C28.67,14.068 28.67,14.07 28.67,14.071C28.67,14.072 28.67,14.073 28.67,14.074C28.67,14.075 28.67,14.076 28.67,14.077C28.67,14.078 28.67,14.079 28.67,14.08C28.67,14.081 28.67,14.082 28.67,14.083C28.67,14.084 28.67,14.085 28.67,14.086C28.67,14.088 28.67,14.089 28.67,14.09C28.67,14.091 28.67,14.092 28.67,14.093C28.67,14.094 28.67,14.095 28.67,14.096C28.67,14.097 28.67,14.098 28.67,14.099C28.67,14.1 28.67,14.101 28.67,14.102C28.67,14.103 28.67,14.104 28.67,14.105C28.67,14.106 28.67,14.107 28.67,14.108C28.67,14.109 28.67,14.11 28.67,14.111C28.67,14.113 28.67,14.114 28.67,14.115C28.67,14.116 28.67,14.117 28.67,14.118C28.67,14.119 28.67,14.12 28.67,14.121C28.67,14.122 28.67,14.123 28.67,14.124C28.67,14.125 28.67,14.126 28.67,14.127C28.67,14.128 28.67,14.129 28.67,14.13C28.67,14.131 28.67,14.132 28.67,14.133C28.67,14.134 28.67,14.135 28.67,14.136C28.67,14.137 28.67,14.138 28.67,14.139C28.67,14.14 28.67,14.141 28.67,14.142C28.67,14.143 28.67,14.144 28.67,14.145C28.67,14.146 28.67,14.147 28.67,14.148C28.67,14.149 28.67,14.15 28.67,14.151C28.67,14.152 28.67,14.153 28.67,14.154C28.67,14.155 28.67,14.156 28.67,14.157C28.67,14.158 28.67,14.159 28.67,14.16C28.67,14.161 28.67,14.162 28.67,14.163C28.67,14.164 28.67,14.165 28.67,14.166C28.67,14.167 28.67,14.168 28.67,14.169C28.67,14.17 28.67,14.171 28.67,14.172C28.67,14.173 28.67,14.174 28.67,14.175C28.67,14.176 28.67,14.177 28.67,14.178C28.67,14.179 28.67,14.18 28.67,14.181C28.67,14.182 28.67,14.183 28.67,14.184C28.67,14.185 28.67,14.186 28.67,14.187C28.67,14.188 28.67,14.189 28.67,14.19C28.67,14.191 28.67,14.192 28.67,14.193C28.67,14.194 28.67,14.195 28.67,14.196C28.67,14.197 28.67,14.198 28.67,14.199C28.67,14.2 28.67,14.201 28.67,14.202C28.67,14.203 28.67,14.204 28.67,14.205C28.67,14.206 28.67,14.207 28.67,14.208C28.67,14.209 28.67,14.21 28.67,14.211C28.67,14.212 28.67,14.213 28.67,14.214C28.67,14.215 28.67,14.216 28.67,14.217C28.67,14.218 28.67,14.219 28.67,14.22C28.67,14.221 28.67,14.222 28.67,14.223C28.67,14.224 28.67,14.225 28.67,14.226C28.67,14.227 28.67,14.228 28.67,14.229C28.67,14.23 28.67,14.231 28.67,14.232C28.67,14.233 28.67,14.234 28.67,14.234C28.67,14.235 28.67,14.236 28.67,14.237C28.67,14.238 28.67,14.239 28.67,14.24C28.67,14.241 28.67,14.242 28.67,14.243C28.67,14.244 28.67,14.245 28.67,14.246C28.67,14.247 28.67,14.248 28.67,14.249C28.67,14.25 28.67,14.251 28.67,14.252C28.67,14.253 28.67,14.254 28.67,14.255C28.67,14.256 28.67,14.257 28.67,14.258C28.67,14.259 28.67,14.26 28.67,14.261C28.67,14.262 28.67,14.263 28.67,14.264C28.67,14.265 28.67,14.266 28.67,14.267C28.67,14.268 28.67,14.269 28.67,14.269C28.67,14.27 28.67,14.271 28.67,14.272C28.67,14.273 28.67,14.274 28.67,14.275C28.67,14.276 28.67,14.277 28.67,14.278C28.67,14.279 28.67,14.28 28.67,14.281C28.67,14.282 28.67,14.283 28.67,14.284C28.67,14.285 28.67,14.286 28.67,14.287C28.67,14.288 28.67,14.289 28.67,14.29C28.67,14.291 28.67,14.292 28.67,14.293C28.67,14.294 28.67,14.295 28.67,14.296C28.67,14.297 28.67,14.298 28.67,14.299C28.67,14.3 28.67,14.3 28.67,14.301C28.67,14.302 28.67,14.303 28.67,14.304C28.67,14.305 28.67,14.306 28.67,14.307C28.67,14.308 28.67,14.309 28.67,14.31C28.67,14.311 28.67,14.312 28.67,14.313C28.67,14.314 28.67,14.315 28.67,14.316C28.67,14.317 28.67,14.318 28.67,14.319C28.67,14.32 28.67,14.321 28.67,14.322C28.67,14.323 28.67,14.324 28.67,14.325C28.67,14.326 28.67,14.327 28.67,14.328C28.67,14.329 28.67,14.33 28.67,14.331C28.67,14.332 28.67,14.332 28.67,14.333C28.67,14.334 28.67,14.335 28.67,14.336C28.67,14.337 28.67,14.338 28.67,14.339C28.67,14.34 28.67,14.341 28.67,14.342C28.67,14.343 28.67,14.344 28.67,14.345C28.67,14.346 28.67,14.347 28.67,14.348C28.67,14.349 28.67,14.35 28.67,14.351C28.67,14.352 28.67,14.353 28.67,14.354C28.67,14.355 28.67,14.356 28.67,14.357C28.67,14.358 28.67,14.359 28.67,14.36C28.67,14.361 28.67,14.362 28.67,14.363C28.67,14.364 28.67,14.365 28.67,14.366C28.67,14.367 28.67,14.368 28.67,14.369C28.67,14.37 28.67,14.371 28.67,14.371C28.67,14.372 28.67,14.373 28.67,14.374C28.67,14.375 28.67,14.376 28.67,14.377C28.67,14.378 28.67,14.379 28.67,14.38C28.67,14.381 28.67,14.382 28.67,14.383C28.67,14.384 28.67,14.385 28.67,14.386C28.67,14.387 28.67,14.388 28.67,14.389C28.67,14.39 28.67,14.391 28.67,14.392C28.67,14.393 28.67,14.394 28.67,14.395C28.67,14.396 28.67,14.397 28.67,14.398C28.67,14.399 28.67,14.4 28.67,14.401C28.67,14.402 28.67,14.403 28.67,14.404C28.67,14.405 28.67,14.406 28.67,14.407C28.67,14.408 28.67,14.409 28.67,14.41C28.67,14.411 28.67,14.412 28.67,14.413C28.67,14.414 28.67,14.415 28.67,14.416C28.67,14.417 28.67,14.418 28.67,14.419C28.67,14.42 28.67,14.421 28.67,14.422C28.67,14.423 28.67,14.424 28.67,14.425C28.67,14.426 28.67,14.427 28.67,14.428C28.67,14.429 28.67,14.43 28.67,14.431C28.67,14.432 28.67,14.433 28.67,14.434C28.67,14.435 28.67,14.436 28.67,14.437C28.67,14.438 28.67,14.439 28.67,14.44C28.67,14.441 28.67,14.442 28.67,14.443C28.67,14.444 28.67,14.445 28.67,14.446C28.67,14.447 28.67,14.448 28.67,14.449C28.67,14.45 28.67,14.451 28.67,14.452C28.67,14.453 28.67,14.454 28.67,14.455C28.67,14.456 28.67,14.457 28.67,14.458C28.67,14.459 28.67,14.46 28.67,14.461C28.67,14.462 28.67,14.463 28.67,14.464C28.67,14.465 28.67,14.467 28.67,14.468C28.67,14.469 28.67,14.47 28.67,14.471C28.67,14.472 28.67,14.473 28.67,14.474C28.67,14.475 28.67,14.476 28.67,14.477C28.67,14.478 28.67,14.479 28.67,14.48C28.67,14.481 28.67,14.482 28.67,14.483C28.67,14.484 28.67,14.485 28.67,14.486C28.67,14.487 28.67,14.488 28.67,14.489C28.67,14.49 28.67,14.491 28.67,14.492C28.67,14.493 28.67,14.494 28.67,14.496C28.67,14.497 28.67,14.498 28.67,14.499C28.67,14.5 28.67,14.501 28.67,14.502C28.67,14.503 28.67,14.504 28.67,14.505C28.67,14.506 28.67,14.507 28.67,14.508C28.67,14.509 28.67,14.51 28.67,14.511C28.67,14.512 28.67,14.513 28.67,14.514C28.67,14.516 28.67,14.517 28.67,14.518C28.67,14.519 28.67,14.52 28.67,14.521C28.67,14.522 28.67,14.523 28.67,14.524C28.67,14.525 28.67,14.526 28.67,14.527C28.67,14.528 28.67,14.529 28.67,14.53C28.67,14.532 28.67,14.533 28.67,14.534C28.67,14.535 28.67,14.536 28.67,14.537C28.67,14.538 28.67,14.539 28.67,14.54C28.67,14.541 28.67,14.542 28.67,14.543C28.67,14.544 28.67,14.546 28.67,14.547C28.67,14.548 28.67,14.549 28.67,14.55C28.67,14.551 28.67,14.552 28.67,14.553C28.67,14.554 28.67,14.555 28.67,14.556C28.67,14.558 28.67,14.559 28.67,14.56C28.67,14.561 28.67,14.562 28.67,14.563C28.67,14.564 28.67,14.565 28.67,14.566C28.67,14.567 28.67,14.569 28.67,14.57C28.67,14.571 28.67,14.572 28.67,14.573C28.67,14.574 28.67,14.575 28.67,14.576C28.67,14.577 28.67,14.579 28.67,14.58C28.67,14.581 28.67,14.582 28.67,14.583C28.67,14.584 28.67,14.585 28.67,14.586C28.67,14.588 28.67,14.589 28.67,14.59C28.67,14.591 28.67,14.592 28.67,14.593C28.67,14.594 28.67,14.595 28.67,14.597C28.67,14.598 28.67,14.599 28.67,14.6C28.67,14.601 28.67,14.602 28.67,14.603C28.67,14.605 28.67,14.606 28.67,14.607C28.67,14.608 28.67,14.609 28.67,14.61C28.67,14.611 28.67,14.613 28.67,14.614C28.67,14.615 28.67,14.616 28.67,14.617C28.67,14.618 28.67,14.62 28.67,14.621C28.67,14.622 28.67,14.623 28.67,14.624C28.67,14.625 28.67,14.626 28.67,14.628C28.67,14.629 28.67,14.63 28.67,14.631C28.67,14.632 28.67,14.633 28.67,14.635C28.67,14.636 28.67,14.637 28.67,14.638C28.67,14.639 28.67,14.641 28.67,14.642C28.67,14.643 28.67,14.644 28.67,14.645C28.67,14.646 28.67,14.648 28.67,14.649C28.67,14.65 28.67,14.651 28.67,14.652C28.67,14.654 28.67,14.655 28.67,14.656C28.67,14.657 28.67,14.658 28.67,14.66C28.67,14.661 28.67,14.662 28.67,14.663C28.67,14.664 28.67,14.666 28.67,14.667C28.67,14.668 28.67,14.669 28.67,14.67C28.67,14.672 28.67,14.673 28.67,14.674C28.67,14.675 28.67,14.677 28.67,14.678C28.67,14.679 28.67,14.68 28.67,14.681C28.67,14.683 28.67,14.684 28.67,14.685C28.67,14.686 28.67,14.688 28.67,14.689C28.67,14.69 28.67,14.691 28.67,14.692C28.67,14.694 28.67,14.695 28.67,14.696C28.67,14.697 28.67,14.699 28.67,14.7C28.67,14.701 28.67,14.702 28.67,14.704C28.67,14.705 28.67,14.706 28.67,14.707C28.67,14.709 28.67,14.71 28.67,14.711C28.67,14.712 28.67,14.714 28.67,14.715C28.67,14.716 28.67,14.718 28.67,14.719C28.67,14.72 28.67,14.721 28.67,14.723C28.67,14.724 28.67,14.725 28.67,14.726C28.67,14.728 28.67,14.729 28.67,14.73C28.67,14.732 28.67,14.733 28.67,14.734C28.67,14.735 28.67,14.737 28.67,14.738C28.67,14.739 28.67,14.741 28.67,14.742C28.67,14.743 28.67,14.744 28.67,14.746C28.67,14.747 28.67,14.748 28.67,14.75C28.67,14.751 28.67,14.752 28.67,14.754C28.67,14.755 28.67,14.756 28.67,14.758C28.67,14.759 28.67,14.76 28.67,14.761C28.67,14.763 28.67,14.764 28.67,14.765C28.67,14.767 28.67,14.768 28.67,14.769C28.67,14.771 28.67,14.772 28.67,14.773C28.67,14.775 28.67,14.776 28.67,14.777C28.67,14.779 28.67,14.78 28.67,14.781C28.67,14.783 28.67,14.784 28.67,14.785C28.67,14.787 28.67,14.788 28.67,14.79C28.67,14.791 28.67,14.792 28.67,14.794C28.67,14.795 28.67,14.796 28.67,14.798C28.67,14.799 28.67,14.8 28.67,14.802C28.67,14.803 28.67,14.805 28.67,14.806C28.67,14.807 28.67,14.809 28.67,14.81C28.67,14.811 28.67,14.813 28.67,14.814C28.67,14.816 28.67,14.817 28.67,14.818C28.67,14.82 28.67,14.821 28.67,14.823C28.67,14.824 28.67,14.825 28.67,14.827C28.67,14.828 28.67,14.83 28.67,14.831C28.67,14.832 28.67,14.834 28.67,14.835C28.67,14.837 28.67,14.838 28.67,14.839C28.67,14.841 28.67,14.842 28.67,14.844C28.67,14.845 28.67,14.847 28.67,14.848C28.67,14.849 28.67,14.851 28.67,14.852C28.67,14.854 28.67,14.855 28.67,14.857C28.67,14.858 28.67,14.86 28.67,14.861C28.67,14.862 28.67,14.864 28.67,14.865C28.67,14.867 28.67,14.868 28.67,14.87C28.67,14.871 28.67,14.873 28.67,14.874C28.67,14.876 28.67,14.877 28.67,14.879C28.67,14.88 28.67,14.881 28.67,14.883C28.67,14.884 28.67,14.886 28.67,14.887C28.67,14.889 28.67,14.89 28.67,14.892C28.67,14.893 28.67,14.895 28.67,14.896C28.67,14.898 28.67,14.899 28.67,14.901C28.67,14.902 28.67,14.904 28.67,14.905C28.67,14.907 28.67,14.908 28.67,14.91C28.67,14.911 28.67,14.913 28.67,14.914C28.67,14.916 28.67,14.917 28.67,14.919C28.67,14.92 28.67,14.922 28.67,14.924C28.67,14.925 28.67,14.927 28.67,14.928C28.67,14.93 28.67,14.931 28.67,14.933C28.67,14.934 28.67,14.936 28.67,14.937C28.67,14.939 28.67,14.941 28.67,14.942C28.67,14.944 28.67,14.945 28.67,14.947C28.67,14.948 28.67,14.95 28.67,14.951C28.67,14.953 28.67,14.955 28.67,14.956C28.67,14.958 28.67,14.959 28.67,14.961C28.67,14.962 28.67,14.964 28.67,14.966C28.67,14.967 28.67,14.969 28.67,14.97C28.67,14.972 28.67,14.974 28.67,14.975C28.67,14.977 28.67,14.978 28.67,14.98C28.67,14.982 28.67,14.983 28.67,14.985C28.67,14.986 28.67,14.988 28.67,14.99C28.67,14.991 28.67,14.993 28.67,14.995C28.67,14.996 28.67,14.998 28.67,14.999C28.67,15.001 28.67,15.003 28.67,15.004C28.67,15.006 28.67,15.008 28.67,15.009C28.67,15.011 28.67,15.013 28.67,15.014C28.67,15.016 28.67,15.018 28.67,15.019C28.67,15.021 28.67,15.023 28.67,15.024C28.67,15.026 28.67,15.028 28.67,15.029C28.67,15.031 28.67,15.033 28.67,15.034C28.67,15.036 28.67,15.038 28.67,15.039C28.67,15.041 28.67,15.043 28.67,15.044C28.67,15.046 28.67,15.048 28.67,15.05C28.67,15.051 28.67,15.053 28.67,15.055C28.67,15.056 28.67,15.058 28.67,15.06L30.17,15.06C30.17,15.058 30.17,15.056 30.17,15.055C30.17,15.053 30.17,15.051 30.17,15.05C30.17,15.048 30.17,15.046 30.17,15.044C30.17,15.043 30.17,15.041 30.17,15.039C30.17,15.038 30.17,15.036 30.17,15.034C30.17,15.033 30.17,15.031 30.17,15.029C30.17,15.028 30.17,15.026 30.17,15.024C30.17,15.023 30.17,15.021 30.17,15.019C30.17,15.018 30.17,15.016 30.17,15.014C30.17,15.013 30.17,15.011 30.17,15.009C30.17,15.008 30.17,15.006 30.17,15.004C30.17,15.003 30.17,15.001 30.17,14.999C30.17,14.998 30.17,14.996 30.17,14.995C30.17,14.993 30.17,14.991 30.17,14.99C30.17,14.988 30.17,14.986 30.17,14.985C30.17,14.983 30.17,14.982 30.17,14.98C30.17,14.978 30.17,14.977 30.17,14.975C30.17,14.974 30.17,14.972 30.17,14.97C30.17,14.969 30.17,14.967 30.17,14.966C30.17,14.964 30.17,14.962 30.17,14.961C30.17,14.959 30.17,14.958 30.17,14.956C30.17,14.955 30.17,14.953 30.17,14.951C30.17,14.95 30.17,14.948 30.17,14.947C30.17,14.945 30.17,14.944 30.17,14.942C30.17,14.941 30.17,14.939 30.17,14.937C30.17,14.936 30.17,14.934 30.17,14.933C30.17,14.931 30.17,14.93 30.17,14.928C30.17,14.927 30.17,14.925 30.17,14.924C30.17,14.922 30.17,14.92 30.17,14.919C30.17,14.917 30.17,14.916 30.17,14.914C30.17,14.913 30.17,14.911 30.17,14.91C30.17,14.908 30.17,14.907 30.17,14.905C30.17,14.904 30.17,14.902 30.17,14.901C30.17,14.899 30.17,14.898 30.17,14.896C30.17,14.895 30.17,14.893 30.17,14.892C30.17,14.89 30.17,14.889 30.17,14.887C30.17,14.886 30.17,14.884 30.17,14.883C30.17,14.881 30.17,14.88 30.17,14.879C30.17,14.877 30.17,14.876 30.17,14.874C30.17,14.873 30.17,14.871 30.17,14.87C30.17,14.868 30.17,14.867 30.17,14.865C30.17,14.864 30.17,14.862 30.17,14.861C30.17,14.86 30.17,14.858 30.17,14.857C30.17,14.855 30.17,14.854 30.17,14.852C30.17,14.851 30.17,14.849 30.17,14.848C30.17,14.847 30.17,14.845 30.17,14.844C30.17,14.842 30.17,14.841 30.17,14.839C30.17,14.838 30.17,14.837 30.17,14.835C30.17,14.834 30.17,14.832 30.17,14.831C30.17,14.83 30.17,14.828 30.17,14.827C30.17,14.825 30.17,14.824 30.17,14.823C30.17,14.821 30.17,14.82 30.17,14.818C30.17,14.817 30.17,14.816 30.17,14.814C30.17,14.813 30.17,14.811 30.17,14.81C30.17,14.809 30.17,14.807 30.17,14.806C30.17,14.805 30.17,14.803 30.17,14.802C30.17,14.8 30.17,14.799 30.17,14.798C30.17,14.796 30.17,14.795 30.17,14.794C30.17,14.792 30.17,14.791 30.17,14.79C30.17,14.788 30.17,14.787 30.17,14.785C30.17,14.784 30.17,14.783 30.17,14.781C30.17,14.78 30.17,14.779 30.17,14.777C30.17,14.776 30.17,14.775 30.17,14.773C30.17,14.772 30.17,14.771 30.17,14.769C30.17,14.768 30.17,14.767 30.17,14.765C30.17,14.764 30.17,14.763 30.17,14.761C30.17,14.76 30.17,14.759 30.17,14.758C30.17,14.756 30.17,14.755 30.17,14.754C30.17,14.752 30.17,14.751 30.17,14.75C30.17,14.748 30.17,14.747 30.17,14.746C30.17,14.744 30.17,14.743 30.17,14.742C30.17,14.741 30.17,14.739 30.17,14.738C30.17,14.737 30.17,14.735 30.17,14.734C30.17,14.733 30.17,14.732 30.17,14.73C30.17,14.729 30.17,14.728 30.17,14.726C30.17,14.725 30.17,14.724 30.17,14.723C30.17,14.721 30.17,14.72 30.17,14.719C30.17,14.718 30.17,14.716 30.17,14.715C30.17,14.714 30.17,14.712 30.17,14.711C30.17,14.71 30.17,14.709 30.17,14.707C30.17,14.706 30.17,14.705 30.17,14.704C30.17,14.702 30.17,14.701 30.17,14.7C30.17,14.699 30.17,14.697 30.17,14.696C30.17,14.695 30.17,14.694 30.17,14.692C30.17,14.691 30.17,14.69 30.17,14.689C30.17,14.688 30.17,14.686 30.17,14.685C30.17,14.684 30.17,14.683 30.17,14.681C30.17,14.68 30.17,14.679 30.17,14.678C30.17,14.677 30.17,14.675 30.17,14.674C30.17,14.673 30.17,14.672 30.17,14.67C30.17,14.669 30.17,14.668 30.17,14.667C30.17,14.666 30.17,14.664 30.17,14.663C30.17,14.662 30.17,14.661 30.17,14.66C30.17,14.658 30.17,14.657 30.17,14.656C30.17,14.655 30.17,14.654 30.17,14.652C30.17,14.651 30.17,14.65 30.17,14.649C30.17,14.648 30.17,14.646 30.17,14.645C30.17,14.644 30.17,14.643 30.17,14.642C30.17,14.641 30.17,14.639 30.17,14.638C30.17,14.637 30.17,14.636 30.17,14.635C30.17,14.633 30.17,14.632 30.17,14.631C30.17,14.63 30.17,14.629 30.17,14.628C30.17,14.626 30.17,14.625 30.17,14.624C30.17,14.623 30.17,14.622 30.17,14.621C30.17,14.62 30.17,14.618 30.17,14.617C30.17,14.616 30.17,14.615 30.17,14.614C30.17,14.613 30.17,14.611 30.17,14.61C30.17,14.609 30.17,14.608 30.17,14.607C30.17,14.606 30.17,14.605 30.17,14.603C30.17,14.602 30.17,14.601 30.17,14.6C30.17,14.599 30.17,14.598 30.17,14.597C30.17,14.595 30.17,14.594 30.17,14.593C30.17,14.592 30.17,14.591 30.17,14.59C30.17,14.589 30.17,14.588 30.17,14.586C30.17,14.585 30.17,14.584 30.17,14.583C30.17,14.582 30.17,14.581 30.17,14.58C30.17,14.579 30.17,14.577 30.17,14.576C30.17,14.575 30.17,14.574 30.17,14.573C30.17,14.572 30.17,14.571 30.17,14.57C30.17,14.569 30.17,14.567 30.17,14.566C30.17,14.565 30.17,14.564 30.17,14.563C30.17,14.562 30.17,14.561 30.17,14.56C30.17,14.559 30.17,14.558 30.17,14.556C30.17,14.555 30.17,14.554 30.17,14.553C30.17,14.552 30.17,14.551 30.17,14.55C30.17,14.549 30.17,14.548 30.17,14.547C30.17,14.546 30.17,14.544 30.17,14.543C30.17,14.542 30.17,14.541 30.17,14.54C30.17,14.539 30.17,14.538 30.17,14.537C30.17,14.536 30.17,14.535 30.17,14.534C30.17,14.533 30.17,14.532 30.17,14.53C30.17,14.529 30.17,14.528 30.17,14.527C30.17,14.526 30.17,14.525 30.17,14.524C30.17,14.523 30.17,14.522 30.17,14.521C30.17,14.52 30.17,14.519 30.17,14.518C30.17,14.517 30.17,14.516 30.17,14.514C30.17,14.513 30.17,14.512 30.17,14.511C30.17,14.51 30.17,14.509 30.17,14.508C30.17,14.507 30.17,14.506 30.17,14.505C30.17,14.504 30.17,14.503 30.17,14.502C30.17,14.501 30.17,14.5 30.17,14.499C30.17,14.498 30.17,14.497 30.17,14.496C30.17,14.494 30.17,14.493 30.17,14.492C30.17,14.491 30.17,14.49 30.17,14.489C30.17,14.488 30.17,14.487 30.17,14.486C30.17,14.485 30.17,14.484 30.17,14.483C30.17,14.482 30.17,14.481 30.17,14.48C30.17,14.479 30.17,14.478 30.17,14.477C30.17,14.476 30.17,14.475 30.17,14.474C30.17,14.473 30.17,14.472 30.17,14.471C30.17,14.47 30.17,14.469 30.17,14.468C30.17,14.467 30.17,14.465 30.17,14.464C30.17,14.463 30.17,14.462 30.17,14.461C30.17,14.46 30.17,14.459 30.17,14.458C30.17,14.457 30.17,14.456 30.17,14.455C30.17,14.454 30.17,14.453 30.17,14.452C30.17,14.451 30.17,14.45 30.17,14.449C30.17,14.448 30.17,14.447 30.17,14.446C30.17,14.445 30.17,14.444 30.17,14.443C30.17,14.442 30.17,14.441 30.17,14.44C30.17,14.439 30.17,14.438 30.17,14.437C30.17,14.436 30.17,14.435 30.17,14.434C30.17,14.433 30.17,14.432 30.17,14.431C30.17,14.43 30.17,14.429 30.17,14.428C30.17,14.427 30.17,14.426 30.17,14.425C30.17,14.424 30.17,14.423 30.17,14.422C30.17,14.421 30.17,14.42 30.17,14.419C30.17,14.418 30.17,14.417 30.17,14.416C30.17,14.415 30.17,14.414 30.17,14.413C30.17,14.412 30.17,14.411 30.17,14.41C30.17,14.409 30.17,14.408 30.17,14.407C30.17,14.406 30.17,14.405 30.17,14.404C30.17,14.403 30.17,14.402 30.17,14.401C30.17,14.4 30.17,14.399 30.17,14.398C30.17,14.397 30.17,14.396 30.17,14.395C30.17,14.394 30.17,14.393 30.17,14.392C30.17,14.391 30.17,14.39 30.17,14.389C30.17,14.388 30.17,14.387 30.17,14.386C30.17,14.385 30.17,14.384 30.17,14.383C30.17,14.382 30.17,14.381 30.17,14.38C30.17,14.379 30.17,14.378 30.17,14.377C30.17,14.376 30.17,14.375 30.17,14.374C30.17,14.373 30.17,14.372 30.17,14.371C30.17,14.371 30.17,14.37 30.17,14.369C30.17,14.368 30.17,14.367 30.17,14.366C30.17,14.365 30.17,14.364 30.17,14.363C30.17,14.362 30.17,14.361 30.17,14.36C30.17,14.359 30.17,14.358 30.17,14.357C30.17,14.356 30.17,14.355 30.17,14.354C30.17,14.353 30.17,14.352 30.17,14.351C30.17,14.35 30.17,14.349 30.17,14.348C30.17,14.347 30.17,14.346 30.17,14.345C30.17,14.344 30.17,14.343 30.17,14.342C30.17,14.341 30.17,14.34 30.17,14.339C30.17,14.338 30.17,14.337 30.17,14.336C30.17,14.335 30.17,14.334 30.17,14.333C30.17,14.332 30.17,14.332 30.17,14.331C30.17,14.33 30.17,14.329 30.17,14.328C30.17,14.327 30.17,14.326 30.17,14.325C30.17,14.324 30.17,14.323 30.17,14.322C30.17,14.321 30.17,14.32 30.17,14.319C30.17,14.318 30.17,14.317 30.17,14.316C30.17,14.315 30.17,14.314 30.17,14.313C30.17,14.312 30.17,14.311 30.17,14.31C30.17,14.309 30.17,14.308 30.17,14.307C30.17,14.306 30.17,14.305 30.17,14.304C30.17,14.303 30.17,14.302 30.17,14.301C30.17,14.3 30.17,14.3 30.17,14.299C30.17,14.298 30.17,14.297 30.17,14.296C30.17,14.295 30.17,14.294 30.17,14.293C30.17,14.292 30.17,14.291 30.17,14.29C30.17,14.289 30.17,14.288 30.17,14.287C30.17,14.286 30.17,14.285 30.17,14.284C30.17,14.283 30.17,14.282 30.17,14.281C30.17,14.28 30.17,14.279 30.17,14.278C30.17,14.277 30.17,14.276 30.17,14.275C30.17,14.274 30.17,14.273 30.17,14.272C30.17,14.271 30.17,14.27 30.17,14.269C30.17,14.269 30.17,14.268 30.17,14.267C30.17,14.266 30.17,14.265 30.17,14.264C30.17,14.263 30.17,14.262 30.17,14.261C30.17,14.26 30.17,14.259 30.17,14.258C30.17,14.257 30.17,14.256 30.17,14.255C30.17,14.254 30.17,14.253 30.17,14.252C30.17,14.251 30.17,14.25 30.17,14.249C30.17,14.248 30.17,14.247 30.17,14.246C30.17,14.245 30.17,14.244 30.17,14.243C30.17,14.242 30.17,14.241 30.17,14.24C30.17,14.239 30.17,14.238 30.17,14.237C30.17,14.236 30.17,14.235 30.17,14.234C30.17,14.234 30.17,14.233 30.17,14.232C30.17,14.231 30.17,14.23 30.17,14.229C30.17,14.228 30.17,14.227 30.17,14.226C30.17,14.225 30.17,14.224 30.17,14.223C30.17,14.222 30.17,14.221 30.17,14.22C30.17,14.219 30.17,14.218 30.17,14.217C30.17,14.216 30.17,14.215 30.17,14.214C30.17,14.213 30.17,14.212 30.17,14.211C30.17,14.21 30.17,14.209 30.17,14.208C30.17,14.207 30.17,14.206 30.17,14.205C30.17,14.204 30.17,14.203 30.17,14.202C30.17,14.201 30.17,14.2 30.17,14.199C30.17,14.198 30.17,14.197 30.17,14.196C30.17,14.195 30.17,14.194 30.17,14.193C30.17,14.192 30.17,14.191 30.17,14.19C30.17,14.189 30.17,14.188 30.17,14.187C30.17,14.186 30.17,14.185 30.17,14.184C30.17,14.183 30.17,14.182 30.17,14.181C30.17,14.18 30.17,14.179 30.17,14.178C30.17,14.177 30.17,14.176 30.17,14.175C30.17,14.174 30.17,14.173 30.17,14.172C30.17,14.171 30.17,14.17 30.17,14.169C30.17,14.168 30.17,14.167 30.17,14.166C30.17,14.165 30.17,14.164 30.17,14.163C30.17,14.162 30.17,14.161 30.17,14.16C30.17,14.159 30.17,14.158 30.17,14.157C30.17,14.156 30.17,14.155 30.17,14.154C30.17,14.153 30.17,14.152 30.17,14.151C30.17,14.15 30.17,14.149 30.17,14.148C30.17,14.147 30.17,14.146 30.17,14.145C30.17,14.144 30.17,14.143 30.17,14.142C30.17,14.141 30.17,14.14 30.17,14.139C30.17,14.138 30.17,14.137 30.17,14.136C30.17,14.135 30.17,14.134 30.17,14.133C30.17,14.132 30.17,14.131 30.17,14.13C30.17,14.129 30.17,14.128 30.17,14.127C30.17,14.126 30.17,14.125 30.17,14.124C30.17,14.123 30.17,14.122 30.17,14.121C30.17,14.12 30.17,14.119 30.17,14.118C30.17,14.117 30.17,14.116 30.17,14.115C30.17,14.114 30.17,14.113 30.17,14.111C30.17,14.11 30.17,14.109 30.17,14.108C30.17,14.107 30.17,14.106 30.17,14.105C30.17,14.104 30.17,14.103 30.17,14.102C30.17,14.101 30.17,14.1 30.17,14.099C30.17,14.098 30.17,14.097 30.17,14.096C30.17,14.095 30.17,14.094 30.17,14.093C30.17,14.092 30.17,14.091 30.17,14.09C30.17,14.089 30.17,14.088 30.17,14.086C30.17,14.085 30.17,14.084 30.17,14.083C30.17,14.082 30.17,14.081 30.17,14.08C30.17,14.079 30.17,14.078 30.17,14.077C30.17,14.076 30.17,14.075 30.17,14.074C30.17,14.073 30.17,14.072 30.17,14.071C30.17,14.07 30.17,14.068 30.17,14.067C30.17,14.066 30.17,14.065 30.17,14.064C30.17,14.063 30.17,14.062 30.17,14.061C30.17,14.06 30.17,14.059 30.17,14.058C30.17,14.057 30.17,14.056 30.17,14.055C30.17,14.053 30.17,14.052 30.17,14.051C30.17,14.05 30.17,14.049 30.17,14.048C30.17,14.047 30.17,14.046 30.17,14.045C30.17,14.044 30.17,14.043 30.17,14.042C30.17,14.04 30.17,14.039 30.17,14.038C30.17,14.037 30.17,14.036 30.17,14.035C30.17,14.034 30.17,14.033 30.17,14.032C30.17,14.031 30.17,14.03 30.17,14.028C30.17,14.027 30.17,14.026 30.17,14.025C30.17,14.024 30.17,14.023 30.17,14.022C30.17,14.021 30.17,14.02 30.17,14.018C30.17,14.017 30.17,14.016 30.17,14.015C30.17,14.014 30.17,14.013 30.17,14.012C30.17,14.011 30.17,14.01 30.17,14.008C30.17,14.007 30.17,14.006 30.17,14.005C30.17,14.004 30.17,14.003 30.17,14.002C30.17,14.001 30.17,13.999 30.17,13.998C30.17,13.997 30.17,13.996 30.17,13.995C30.17,13.994 30.17,13.993 30.17,13.992C30.17,13.99 30.17,13.989 30.17,13.988C30.17,13.987 30.17,13.986 30.17,13.985C30.17,13.984 30.17,13.982 30.17,13.981C30.17,13.98 30.17,13.979 30.17,13.978C30.17,13.977 30.17,13.976 30.17,13.974C30.17,13.973 30.17,13.972 30.17,13.971C30.17,13.97 30.17,13.969 30.17,13.967C30.17,13.966 30.17,13.965 30.17,13.964C30.17,13.963 30.17,13.962 30.17,13.96C30.17,13.959 30.17,13.958 30.17,13.957C30.17,13.956 30.17,13.955 30.17,13.953C30.17,13.952 30.17,13.951 30.17,13.95C30.17,13.949 30.17,13.948 30.17,13.946C30.17,13.945 30.17,13.944 30.17,13.943C30.17,13.942 30.17,13.94 30.17,13.939C30.17,13.938 30.17,13.937 30.17,13.936C30.17,13.934 30.17,13.933 30.17,13.932C30.17,13.931 30.17,13.93 30.17,13.928C30.17,13.927 30.17,13.926 30.17,13.925C30.17,13.924 30.17,13.922 30.17,13.921C30.17,13.92 30.17,13.919 30.17,13.918C30.17,13.916 30.17,13.915 30.17,13.914C30.17,13.913 30.17,13.912 30.17,13.91C30.17,13.909 30.17,13.908 30.17,13.907C30.17,13.905 30.17,13.904 30.17,13.903C30.17,13.902 30.17,13.9 30.17,13.899C30.17,13.898 30.17,13.897 30.17,13.896C30.17,13.894 30.17,13.893 30.17,13.892C30.17,13.891 30.17,13.889 30.17,13.888C30.17,13.887 30.17,13.886 30.17,13.884C30.17,13.883 30.17,13.882 30.17,13.881C30.17,13.879 30.17,13.878 30.17,13.877C30.17,13.875 30.17,13.874 30.17,13.873C30.17,13.872 30.17,13.87 30.17,13.869C30.17,13.868 30.17,13.867 30.17,13.865C30.17,13.864 30.17,13.863 30.17,13.862C30.17,13.86 30.17,13.859 30.17,13.858C30.17,13.856 30.17,13.855 30.17,13.854C30.17,13.853 30.17,13.851 30.17,13.85C30.17,13.849 30.17,13.847 30.17,13.846C30.17,13.845 30.17,13.843 30.17,13.842C30.17,13.841 30.17,13.84 30.17,13.838C30.17,13.837 30.17,13.836 30.17,13.834C30.17,13.833 30.17,13.832 30.17,13.83C30.17,13.829 30.17,13.828 30.17,13.826C30.17,13.825 30.17,13.824 30.17,13.822C30.17,13.821 30.17,13.82 30.17,13.818C30.17,13.817 30.17,13.816 30.17,13.814C30.17,13.813 30.17,13.812 30.17,13.81C30.17,13.809 30.17,13.808 30.17,13.806C30.17,13.805 30.17,13.804 30.17,13.802C30.17,13.801 30.17,13.8 30.17,13.798C30.17,13.797 30.17,13.796 30.17,13.794C30.17,13.793 30.17,13.791 30.17,13.79C30.17,13.789 30.17,13.787 30.17,13.786C30.17,13.785 30.17,13.783 30.17,13.782C30.17,13.78 30.17,13.779 30.17,13.778C30.17,13.776 30.17,13.775 30.17,13.774C30.17,13.772 30.17,13.771 30.17,13.769C30.17,13.768 30.17,13.767 30.17,13.765C30.17,13.764 30.17,13.762 30.17,13.761C30.17,13.76 30.17,13.758 30.17,13.757C30.17,13.755 30.17,13.754 30.17,13.752C30.17,13.751 30.17,13.75 30.17,13.748C30.17,13.747 30.17,13.745 30.17,13.744C30.17,13.743 30.17,13.741 30.17,13.74C30.17,13.738 30.17,13.737 30.17,13.735C30.17,13.734 30.17,13.732 30.17,13.731C30.17,13.73 30.17,13.728 30.17,13.727C30.17,13.725 30.17,13.724 30.17,13.722C30.17,13.721 30.17,13.719 30.17,13.718C30.17,13.716 30.17,13.715 30.17,13.714C30.17,13.712 30.17,13.711 30.17,13.709C30.17,13.708 30.17,13.706 30.17,13.705C30.17,13.703 30.17,13.702 30.17,13.7C30.17,13.699 30.17,13.697 30.17,13.696C30.17,13.694 30.17,13.693 30.17,13.691C30.17,13.69 30.17,13.688 30.17,13.687C30.17,13.685 30.17,13.684 30.17,13.682C30.17,13.681 30.17,13.679 30.17,13.678C30.17,13.676 30.17,13.675 30.17,13.673C30.17,13.672 30.17,13.67 30.17,13.669C30.17,13.667 30.17,13.666 30.17,13.664C30.17,13.662 30.17,13.661 30.17,13.659C30.17,13.658 30.17,13.656 30.17,13.655C30.17,13.653 30.17,13.652 30.17,13.65C30.17,13.649 30.17,13.647 30.17,13.645C30.17,13.644 30.17,13.642 30.17,13.641C30.17,13.639 30.17,13.638 30.17,13.636C30.17,13.634 30.17,13.633 30.17,13.631C30.17,13.63 30.17,13.628 30.17,13.627C30.17,13.625 30.17,13.623 30.17,13.622C30.17,13.62 30.17,13.619 30.17,13.617C30.17,13.615 30.17,13.614 30.17,13.612C30.17,13.611 30.17,13.609 30.17,13.607C30.17,13.606 30.17,13.604 30.17,13.603C30.17,13.601 30.17,13.599 30.17,13.598C30.17,13.596 30.17,13.594 30.17,13.593C30.17,13.591 30.17,13.59 30.17,13.588C30.17,13.586 30.17,13.585 30.17,13.583C30.17,13.581 30.17,13.58 30.17,13.578C30.17,13.576 30.17,13.575 30.17,13.573C30.17,13.571 30.17,13.57 30.17,13.568C30.17,13.566 30.17,13.565 30.17,13.563C30.17,13.561 30.17,13.56 30.17,13.558C30.17,13.556 30.17,13.555 30.17,13.553C30.17,13.551 30.17,13.55 30.17,13.548C30.17,13.546 30.17,13.545 30.17,13.543C30.17,13.541 30.17,13.539 30.17,13.538C30.17,13.536 30.17,13.534 30.17,13.533C30.17,13.531 30.17,13.529 30.17,13.527C30.17,13.526 30.17,13.524 30.17,13.522C30.17,13.521 30.17,13.519 30.17,13.517C30.17,13.515 30.17,13.514 30.17,13.512C30.17,13.51 30.17,13.508 30.17,13.507C30.17,13.505 30.17,13.503 30.17,13.501C30.17,13.5 30.17,13.498 30.17,13.496C30.17,13.494 30.17,13.492 30.17,13.491C30.17,13.489 30.17,13.487 30.17,13.485C30.17,13.484 30.17,13.482 30.17,13.48C30.17,13.478 30.17,13.476 30.17,13.475C30.17,13.473 30.17,13.471 30.17,13.469C30.17,13.467 30.17,13.466 30.17,13.464C30.17,13.462 30.17,13.46 30.17,13.458C30.17,13.457 30.17,13.455 30.17,13.453C30.17,13.451 30.17,13.449 30.17,13.447C30.17,13.446 30.17,13.444 30.17,13.442C30.17,13.44 30.17,13.438 30.17,13.436C30.17,13.435 30.17,13.433 30.17,13.431C30.17,13.429 30.17,13.427 30.17,13.425C30.17,13.423 30.17,13.422 30.17,13.42C30.17,13.418 30.17,13.416 30.17,13.414C30.17,13.412 30.17,13.41 30.17,13.408C30.17,13.406 30.17,13.405 30.17,13.403C30.17,13.401 30.17,13.399 30.17,13.397C30.17,13.395 30.17,13.393 30.17,13.391C30.17,13.389 30.17,13.387 30.17,13.385C30.17,13.384 30.17,13.382 30.17,13.38C30.17,13.378 30.17,13.376 30.17,13.374C30.17,13.372 30.17,13.37 30.17,13.368C30.17,13.366 30.17,13.364 30.17,13.362C30.17,13.36 30.17,13.358 30.17,13.356C30.17,13.354 30.17,13.352 30.17,13.35C30.17,13.349 30.17,13.347 30.17,13.345C30.17,13.343 30.17,13.341 30.17,13.339C30.17,13.337 30.17,13.335 30.17,13.333C30.17,13.331 30.17,13.329 30.17,13.327C30.17,13.325 30.17,13.323 30.17,13.321C30.17,13.319 30.17,13.317 30.17,13.315C30.17,13.313 30.17,13.311 30.17,13.308C30.17,13.306 30.17,13.304 30.17,13.302C30.17,13.3 30.17,13.298 30.17,13.296C30.17,13.294 30.17,13.292 30.17,13.29C30.17,13.288 30.17,13.286 30.17,13.284C30.17,13.282 30.17,13.28 30.17,13.278C30.17,13.276 30.17,13.274 30.17,13.272C30.17,13.269 30.17,13.267 30.17,13.265C30.17,13.263 30.17,13.261 30.17,13.259C30.17,13.257 30.17,13.255 30.17,13.253C30.17,13.251 30.17,13.248 30.17,13.246C30.17,13.244 30.17,13.242 30.17,13.24C30.17,13.238 30.17,13.236 30.17,13.234C30.17,13.231 30.17,13.229 30.17,13.227C30.17,13.225 30.17,13.223 30.17,13.221C30.17,13.219 30.17,13.216 30.17,13.214C30.17,13.212 30.17,13.21 30.17,13.208C30.17,13.206 30.17,13.203 30.17,13.201C30.17,13.199 30.17,13.197 30.17,13.195C30.17,13.193 30.17,13.19 30.17,13.188C30.17,13.186 30.17,13.184 30.17,13.182C30.17,13.179 30.17,13.177 30.17,13.175C30.17,13.173 30.17,13.17 30.17,13.168C30.17,13.166 30.17,13.164 30.17,13.162C30.17,13.159 30.17,13.157 30.17,13.155C30.17,13.153 30.17,13.15 30.17,13.148C30.17,13.146 30.17,13.144 30.17,13.141C30.17,13.139 30.17,13.137 30.17,13.135C30.17,13.132 30.17,13.13 30.17,13.128C30.17,13.125 30.17,13.123 30.17,13.121C30.17,13.119 30.17,13.116 30.17,13.114C30.17,13.112 30.17,13.109 30.17,13.107C30.17,13.105 30.17,13.102 30.17,13.1C30.17,13.098 30.17,13.095 30.17,13.093C30.17,13.091 30.17,13.088 30.17,13.086C30.17,13.084 30.17,13.081 30.17,13.079C30.17,13.077 30.17,13.074 30.17,13.072C30.17,13.07 30.17,13.067 30.17,13.065C30.17,13.063 30.17,13.06 30.17,13.058C30.17,13.055 30.17,13.053 30.17,13.051C30.17,13.048 30.17,13.046 30.17,13.043C30.17,13.041 30.17,13.039 30.17,13.036C30.17,13.034 30.17,13.031 30.17,13.029C30.17,13.027 30.17,13.024 30.17,13.022C30.17,13.019 30.17,13.017 30.17,13.014C30.17,13.012 30.17,13.01 30.17,13.007C30.17,13.005 30.17,13.002 30.17,13C30.17,12.997 30.17,12.995 30.17,12.992C30.17,12.99 30.17,12.987 30.17,12.985C30.17,12.983 30.17,12.98 30.17,12.978C30.17,12.975 30.17,12.973 30.17,12.97C30.17,12.968 30.17,12.965 30.17,12.963C30.17,12.96 30.17,12.958 30.17,12.955C30.17,12.953 30.17,12.95 30.17,12.947C30.17,12.945 30.17,12.942 30.17,12.94L28.67,12.94ZM28.67,15.06C28.67,15.062 28.67,15.063 28.67,15.065C28.67,15.067 28.67,15.068 28.67,15.07C28.67,15.072 28.67,15.074 28.67,15.075C28.67,15.077 28.67,15.079 28.67,15.08C28.67,15.082 28.67,15.084 28.67,15.086C28.67,15.087 28.67,15.089 28.67,15.091C28.67,15.092 28.67,15.094 28.67,15.096C28.67,15.098 28.67,15.099 28.67,15.101C28.67,15.103 28.67,15.104 28.67,15.106C28.67,15.108 28.67,15.11 28.67,15.111C28.67,15.113 28.67,15.115 28.67,15.116C28.67,15.118 28.67,15.12 28.67,15.122C28.67,15.123 28.67,15.125 28.67,15.127C28.67,15.128 28.67,15.13 28.67,15.132C28.67,15.134 28.67,15.135 28.67,15.137C28.67,15.139 28.67,15.14 28.67,15.142C28.67,15.144 28.67,15.145 28.67,15.147C28.67,15.149 28.67,15.151 28.67,15.152C28.67,15.154 28.67,15.156 28.67,15.157C28.67,15.159 28.67,15.161 28.67,15.163C28.67,15.164 28.67,15.166 28.67,15.168C28.67,15.169 28.67,15.171 28.67,15.173C28.67,15.174 28.67,15.176 28.67,15.178C28.67,15.18 28.67,15.181 28.67,15.183C28.67,15.185 28.67,15.186 28.67,15.188C28.67,15.19 28.67,15.191 28.67,15.193C28.67,15.195 28.67,15.197 28.67,15.198C28.67,15.2 28.67,15.202 28.67,15.203C28.67,15.205 28.67,15.207 28.67,15.208C28.67,15.21 28.67,15.212 28.67,15.214C28.67,15.215 28.67,15.217 28.67,15.219C28.67,15.22 28.67,15.222 28.67,15.224C28.67,15.225 28.67,15.227 28.67,15.229C28.67,15.23 28.67,15.232 28.67,15.234C28.67,15.236 28.67,15.237 28.67,15.239C28.67,15.241 28.67,15.242 28.67,15.244C28.67,15.246 28.67,15.247 28.67,15.249C28.67,15.251 28.67,15.252 28.67,15.254C28.67,15.256 28.67,15.258 28.67,15.259C28.67,15.261 28.67,15.263 28.67,15.264C28.67,15.266 28.67,15.268 28.67,15.269C28.67,15.271 28.67,15.273 28.67,15.274C28.67,15.276 28.67,15.278 28.67,15.279C28.67,15.281 28.67,15.283 28.67,15.285C28.67,15.286 28.67,15.288 28.67,15.29C28.67,15.291 28.67,15.293 28.67,15.295C28.67,15.296 28.67,15.298 28.67,15.3C28.67,15.301 28.67,15.303 28.67,15.305C28.67,15.306 28.67,15.308 28.67,15.31C28.67,15.311 28.67,15.313 28.67,15.315C28.67,15.317 28.67,15.318 28.67,15.32C28.67,15.322 28.67,15.323 28.67,15.325C28.67,15.327 28.67,15.328 28.67,15.33C28.67,15.332 28.67,15.333 28.67,15.335C28.67,15.337 28.67,15.338 28.67,15.34C28.67,15.342 28.67,15.343 28.67,15.345C28.67,15.347 28.67,15.348 28.67,15.35C28.67,15.352 28.67,15.353 28.67,15.355C28.67,15.357 28.67,15.358 28.67,15.36C28.67,15.362 28.67,15.364 28.67,15.365C28.67,15.367 28.67,15.369 28.67,15.37C28.67,15.372 28.67,15.374 28.67,15.375C28.67,15.377 28.67,15.379 28.67,15.38C28.67,15.382 28.67,15.384 28.67,15.385C28.67,15.387 28.67,15.389 28.67,15.39C28.67,15.392 28.67,15.394 28.67,15.395C28.67,15.397 28.67,15.399 28.67,15.4C28.67,15.402 28.67,15.404 28.67,15.405C28.67,15.407 28.67,15.409 28.67,15.41C28.67,15.412 28.67,15.414 28.67,15.415C28.67,15.417 28.67,15.419 28.67,15.42C28.67,15.422 28.67,15.424 28.67,15.425C28.67,15.427 28.67,15.429 28.67,15.43C28.67,15.432 28.67,15.434 28.67,15.435C28.67,15.437 28.67,15.439 28.67,15.44C28.67,15.442 28.67,15.444 28.67,15.445C28.67,15.447 28.67,15.449 28.67,15.45C28.67,15.452 28.67,15.454 28.67,15.455C28.67,15.457 28.67,15.459 28.67,15.46C28.67,15.462 28.67,15.464 28.67,15.465C28.67,15.467 28.67,15.469 28.67,15.47C28.67,15.472 28.67,15.474 28.67,15.475C28.67,15.477 28.67,15.479 28.67,15.48C28.67,15.482 28.67,15.484 28.67,15.485C28.67,15.487 28.67,15.488 28.67,15.49C28.67,15.492 28.67,15.493 28.67,15.495C28.67,15.497 28.67,15.498 28.67,15.5C28.67,15.502 28.67,15.503 28.67,15.505C28.67,15.507 28.67,15.508 28.67,15.51C28.67,15.512 28.67,15.513 28.67,15.515C28.67,15.517 28.67,15.518 28.67,15.52C28.67,15.522 28.67,15.523 28.67,15.525C28.67,15.527 28.67,15.528 28.67,15.53C28.67,15.531 28.67,15.533 28.67,15.535C28.67,15.536 28.67,15.538 28.67,15.54C28.67,15.541 28.67,15.543 28.67,15.545C28.67,15.546 28.67,15.548 28.67,15.55C28.67,15.551 28.67,15.553 28.67,15.555C28.67,15.556 28.67,15.558 28.67,15.56C28.67,15.561 28.67,15.563 28.67,15.564C28.67,15.566 28.67,15.568 28.67,15.569C28.67,15.571 28.67,15.573 28.67,15.574C28.67,15.576 28.67,15.578 28.67,15.579C28.67,15.581 28.67,15.583 28.67,15.584C28.67,15.586 28.67,15.588 28.67,15.589C28.67,15.591 28.67,15.592 28.67,15.594C28.67,15.596 28.67,15.597 28.67,15.599C28.67,15.601 28.67,15.602 28.67,15.604C28.67,15.606 28.67,15.607 28.67,15.609C28.67,15.611 28.67,15.612 28.67,15.614C28.67,15.615 28.67,15.617 28.67,15.619C28.67,15.62 28.67,15.622 28.67,15.624C28.67,15.625 28.67,15.627 28.67,15.629C28.67,15.63 28.67,15.632 28.67,15.633C28.67,15.635 28.67,15.637 28.67,15.638C28.67,15.64 28.67,15.642 28.67,15.643C28.67,15.645 28.67,15.647 28.67,15.648C28.67,15.65 28.67,15.651 28.67,15.653C28.67,15.655 28.67,15.656 28.67,15.658C28.67,15.66 28.67,15.661 28.67,15.663C28.67,15.665 28.67,15.666 28.67,15.668C28.67,15.669 28.67,15.671 28.67,15.673C28.67,15.674 28.67,15.676 28.67,15.678C28.67,15.679 28.67,15.681 28.67,15.682C28.67,15.684 28.67,15.686 28.67,15.687C28.67,15.689 28.67,15.691 28.67,15.692C28.67,15.694 28.67,15.696 28.67,15.697C28.67,15.699 28.67,15.7 28.67,15.702C28.67,15.704 28.67,15.705 28.67,15.707C28.67,15.709 28.67,15.71 28.67,15.712C28.67,15.713 28.67,15.715 28.67,15.717C28.67,15.718 28.67,15.72 28.67,15.722C28.67,15.723 28.67,15.725 28.67,15.726C28.67,15.728 28.67,15.73 28.67,15.731C28.67,15.733 28.67,15.735 28.67,15.736C28.67,15.738 28.67,15.739 28.67,15.741C28.67,15.743 28.67,15.744 28.67,15.746C28.67,15.748 28.67,15.749 28.67,15.751C28.67,15.752 28.67,15.754 28.67,15.756C28.67,15.757 28.67,15.759 28.67,15.761C28.67,15.762 28.67,15.764 28.67,15.765C28.67,15.767 28.67,15.769 28.67,15.77C28.67,15.772 28.67,15.773 28.67,15.775C28.67,15.777 28.67,15.778 28.67,15.78C28.67,15.782 28.67,15.783 28.67,15.785C28.67,15.786 28.67,15.788 28.67,15.79C28.67,15.791 28.67,15.793 28.67,15.795C28.67,15.796 28.67,15.798 28.67,15.799C28.67,15.801 28.67,15.803 28.67,15.804C28.67,15.806 28.67,15.807 28.67,15.809C28.67,15.811 28.67,15.812 28.67,15.814C28.67,15.816 28.67,15.817 28.67,15.819C28.67,15.82 28.67,15.822 28.67,15.824C28.67,15.825 28.67,15.827 28.67,15.828C28.67,15.83 28.67,15.832 28.67,15.833C28.67,15.835 28.67,15.836 28.67,15.838C28.67,15.84 28.67,15.841 28.67,15.843C28.67,15.845 28.67,15.846 28.67,15.848C28.67,15.849 28.67,15.851 28.67,15.853C28.67,15.854 28.67,15.856 28.67,15.857C28.67,15.859 28.67,15.861 28.67,15.862C28.67,15.864 28.67,15.865 28.67,15.867C28.67,15.869 28.67,15.87 28.67,15.872C28.67,15.873 28.67,15.875 28.67,15.877C28.67,15.878 28.67,15.88 28.67,15.881C28.67,15.883 28.67,15.885 28.67,15.886C28.67,15.888 28.67,15.89 28.67,15.891C28.67,15.893 28.67,15.894 28.67,15.896C28.67,15.898 28.67,15.899 28.67,15.901C28.67,15.902 28.67,15.904 28.67,15.906C28.67,15.907 28.67,15.909 28.67,15.91C28.67,15.912 28.67,15.914 28.67,15.915C28.67,15.917 28.67,15.918 28.67,15.92C28.67,15.922 28.67,15.923 28.67,15.925C28.67,15.926 28.67,15.928 28.67,15.93C28.67,15.931 28.67,15.933 28.67,15.934C28.67,15.936 28.67,15.938 28.67,15.939C28.67,15.941 28.67,15.942 28.67,15.944C28.67,15.946 28.67,15.947 28.67,15.949C28.67,15.95 28.67,15.952 28.67,15.954C28.67,15.955 28.67,15.957 28.67,15.958C28.67,15.96 28.67,15.961 28.67,15.963C28.67,15.965 28.67,15.966 28.67,15.968C28.67,15.969 28.67,15.971 28.67,15.973C28.67,15.974 28.67,15.976 28.67,15.977C28.67,15.979 28.67,15.981 28.67,15.982C28.67,15.984 28.67,15.985 28.67,15.987C28.67,15.989 28.67,15.99 28.67,15.992C28.67,15.993 28.67,15.995 28.67,15.997C28.67,15.998 28.67,16 28.67,16.001C28.67,16.003 28.67,16.004 28.67,16.006C28.67,16.008 28.67,16.009 28.67,16.011C28.67,16.012 28.67,16.014 28.67,16.016C28.67,16.017 28.67,16.019 28.67,16.02C28.67,16.022 28.67,16.024 28.67,16.025C28.67,16.027 28.67,16.028 28.67,16.03C28.67,16.031 28.67,16.033 28.67,16.035C28.67,16.036 28.67,16.038 28.67,16.039C28.67,16.041 28.67,16.043 28.67,16.044C28.67,16.046 28.67,16.047 28.67,16.049C28.67,16.05 28.67,16.052 28.67,16.054C28.67,16.055 28.67,16.057 28.67,16.058C28.67,16.06 28.67,16.062 28.67,16.063C28.67,16.065 28.67,16.066 28.67,16.068C28.67,16.069 28.67,16.071 28.67,16.073C28.67,16.074 28.67,16.076 28.67,16.077C28.67,16.079 28.67,16.081 28.67,16.082C28.67,16.084 28.67,16.085 28.67,16.087C28.67,16.088 28.67,16.09 28.67,16.092C28.67,16.093 28.67,16.095 28.67,16.096C28.67,16.098 28.67,16.099 28.67,16.101C28.67,16.103 28.67,16.104 28.67,16.106C28.67,16.107 28.67,16.109 28.67,16.111C28.67,16.112 28.67,16.114 28.67,16.115C28.67,16.117 28.67,16.118 28.67,16.12C28.67,16.122 28.67,16.123 28.67,16.125C28.67,16.126 28.67,16.128 28.67,16.129C28.67,16.131 28.67,16.133 28.67,16.134C28.67,16.136 28.67,16.137 28.67,16.139C28.67,16.14 28.67,16.142 28.67,16.144C28.67,16.145 28.67,16.147 28.67,16.148C28.67,16.15 28.67,16.151 28.67,16.153C28.67,16.155 28.67,16.156 28.67,16.158C28.67,16.159 28.67,16.161 28.67,16.162C28.67,16.164 28.67,16.166 28.67,16.167C28.67,16.169 28.67,16.17 28.67,16.172C28.67,16.173 28.67,16.175 28.67,16.177C28.67,16.178 28.67,16.18 28.67,16.181C28.67,16.183 28.67,16.184 28.67,16.186C28.67,16.188 28.67,16.189 28.67,16.191C28.67,16.192 28.67,16.194 28.67,16.195C28.67,16.197 28.67,16.199 28.67,16.2C28.67,16.202 28.67,16.203 28.67,16.205C28.67,16.206 28.67,16.208 28.67,16.209C28.67,16.211 28.67,16.213 28.67,16.214C28.67,16.216 28.67,16.217 28.67,16.219C28.67,16.22 28.67,16.222 28.67,16.224C28.67,16.225 28.67,16.227 28.67,16.228C28.67,16.23 28.67,16.231 28.67,16.233C28.67,16.234 28.67,16.236 28.67,16.238C28.67,16.239 28.67,16.241 28.67,16.242C28.67,16.244 28.67,16.245 28.67,16.247C28.67,16.249 28.67,16.25 28.67,16.252C28.67,16.253 28.67,16.255 28.67,16.256C28.67,16.258 28.67,16.259 28.67,16.261C28.67,16.263 28.67,16.264 28.67,16.266C28.67,16.267 28.67,16.269 28.67,16.27C28.67,16.272 28.67,16.273 28.67,16.275C28.67,16.277 28.67,16.278 28.67,16.28C28.67,16.281 28.67,16.283 28.67,16.284C28.67,16.286 28.67,16.287 28.67,16.289C28.67,16.291 28.67,16.292 28.67,16.294C28.67,16.295 28.67,16.297 28.67,16.298C28.67,16.3 28.67,16.301 28.67,16.303C28.67,16.305 28.67,16.306 28.67,16.308C28.67,16.309 28.67,16.311 28.67,16.312C28.67,16.314 28.67,16.315 28.67,16.317C28.67,16.319 28.67,16.32 28.67,16.322C28.67,16.323 28.67,16.325 28.67,16.326C28.67,16.328 28.67,16.329 28.67,16.331C28.67,16.333 28.67,16.334 28.67,16.336C28.67,16.337 28.67,16.339 28.67,16.34C28.67,16.342 28.67,16.343 28.67,16.345C28.67,16.346 28.67,16.348 28.67,16.35C28.67,16.351 28.67,16.353 28.67,16.354C28.67,16.356 28.67,16.357 28.67,16.359C28.67,16.36 28.67,16.362 28.67,16.363C28.67,16.365 28.67,16.367 28.67,16.368C28.67,16.37 28.67,16.371 28.67,16.373C28.67,16.374 28.67,16.376 28.67,16.377C28.67,16.379 28.67,16.38 28.67,16.382C28.67,16.384 28.67,16.385 28.67,16.387C28.67,16.388 28.67,16.39 28.67,16.391C28.67,16.393 28.67,16.394 28.67,16.396C28.67,16.397 28.67,16.399 28.67,16.401C28.67,16.402 28.67,16.404 28.67,16.405C28.67,16.407 28.67,16.408 28.67,16.41C28.67,16.411 28.67,16.413 28.67,16.414C28.67,16.416 28.67,16.418 28.67,16.419C28.67,16.421 28.67,16.422 28.67,16.424C28.67,16.425 28.67,16.427 28.67,16.428C28.67,16.43 28.67,16.431 28.67,16.433C28.67,16.434 28.67,16.436 28.67,16.438C28.67,16.439 28.67,16.441 28.67,16.442C28.67,16.444 28.67,16.445 28.67,16.447C28.67,16.448 28.67,16.45 28.67,16.451C28.67,16.453 28.67,16.454 28.67,16.456C28.67,16.458 28.67,16.459 28.67,16.461C28.67,16.462 28.67,16.464 28.67,16.465C28.67,16.467 28.67,16.468 28.67,16.47C28.67,16.471 28.67,16.473 28.67,16.474C28.67,16.476 28.67,16.477 28.67,16.479C28.67,16.481 28.67,16.482 28.67,16.484C28.67,16.485 28.67,16.487 28.67,16.488C28.67,16.49 28.67,16.491 28.67,16.493C28.67,16.494 28.67,16.496 28.67,16.497C28.67,16.499 28.67,16.5 28.67,16.502C28.67,16.504 28.67,16.505 28.67,16.507C28.67,16.508 28.67,16.51 28.67,16.511C28.67,16.513 28.67,16.514 28.67,16.516C28.67,16.517 28.67,16.519 28.67,16.52C28.67,16.522 28.67,16.523 28.67,16.525C28.67,16.527 28.67,16.528 28.67,16.53C28.67,16.531 28.67,16.533 28.67,16.534C28.67,16.536 28.67,16.537 28.67,16.539C28.67,16.54 28.67,16.542 28.67,16.543C28.67,16.545 28.67,16.546 28.67,16.548C28.67,16.549 28.67,16.551 28.67,16.552C28.67,16.554 28.67,16.556 28.67,16.557C28.67,16.559 28.67,16.56 28.67,16.562C28.67,16.563 28.67,16.565 28.67,16.566C28.67,16.568 28.67,16.569 28.67,16.571C28.67,16.572 28.67,16.574 28.67,16.575C28.67,16.577 28.67,16.578 28.67,16.58C28.67,16.581 28.67,16.583 28.67,16.584C28.67,16.586 28.67,16.588 28.67,16.589C28.67,16.591 28.67,16.592 28.67,16.594C28.67,16.595 28.67,16.597 28.67,16.598C28.67,16.6 28.67,16.601 28.67,16.603C28.67,16.604 28.67,16.606 28.67,16.607C28.67,16.609 28.67,16.61 28.67,16.612C28.67,16.613 28.67,16.615 28.67,16.616C28.67,16.618 28.67,16.619 28.67,16.621C28.67,16.623 28.67,16.624 28.67,16.626C28.67,16.627 28.67,16.629 28.67,16.63C28.67,16.632 28.67,16.633 28.67,16.635C28.67,16.636 28.67,16.638 28.67,16.639C28.67,16.641 28.67,16.642 28.67,16.644C28.67,16.645 28.67,16.647 28.67,16.648C28.67,16.65 28.67,16.651 28.67,16.653C28.67,16.654 28.67,16.656 28.67,16.657C28.67,16.659 28.67,16.66 28.67,16.662C28.67,16.663 28.67,16.665 28.67,16.666C28.67,16.668 28.67,16.67 28.67,16.671C28.67,16.673 28.67,16.674 28.67,16.676C28.67,16.677 28.67,16.679 28.67,16.68C28.67,16.682 28.67,16.683 28.67,16.685C28.67,16.686 28.67,16.688 28.67,16.689C28.67,16.691 28.67,16.692 28.67,16.694C28.67,16.695 28.67,16.697 28.67,16.698C28.67,16.7 28.67,16.701 28.67,16.703C28.67,16.704 28.67,16.706 28.67,16.707C28.67,16.709 28.67,16.71 28.67,16.712C28.67,16.713 28.67,16.715 28.67,16.716C28.67,16.718 28.67,16.719 28.67,16.721C28.67,16.722 28.67,16.724 28.67,16.725C28.67,16.727 28.67,16.728 28.67,16.73C28.67,16.731 28.67,16.733 28.67,16.734C28.67,16.736 28.67,16.737 28.67,16.739C28.67,16.74 28.67,16.742 28.67,16.744C28.67,16.745 28.67,16.747 28.67,16.748C28.67,16.75 28.67,16.751 28.67,16.753C28.67,16.754 28.67,16.756 28.67,16.757C28.67,16.759 28.67,16.76 28.67,16.762C28.67,16.763 28.67,16.765 28.67,16.766C28.67,16.768 28.67,16.769 28.67,16.771C28.67,16.772 28.67,16.774 28.67,16.775C28.67,16.777 28.67,16.778 28.67,16.78C28.67,16.781 28.67,16.783 28.67,16.784C28.67,16.786 28.67,16.787 28.67,16.789C28.67,16.79 28.67,16.792 28.67,16.793C28.67,16.795 28.67,16.796 28.67,16.798C28.67,16.799 28.67,16.801 28.67,16.802C28.67,16.804 28.67,16.805 28.67,16.807C28.67,16.808 28.67,16.81 28.67,16.811C28.67,16.813 28.67,16.814 28.67,16.816C28.67,16.817 28.67,16.819 28.67,16.82C28.67,16.822 28.67,16.823 28.67,16.825C28.67,16.826 28.67,16.828 28.67,16.829C28.67,16.831 28.67,16.832 28.67,16.834C28.67,16.835 28.67,16.837 28.67,16.838C28.67,16.84 28.67,16.841 28.67,16.843C28.67,16.844 28.67,16.846 28.67,16.847C28.67,16.849 28.67,16.85 28.67,16.852C28.67,16.853 28.67,16.855 28.67,16.856C28.67,16.858 28.67,16.859 28.67,16.861C28.67,16.862 28.67,16.864 28.67,16.865C28.67,16.867 28.67,16.868 28.67,16.87C28.67,16.871 28.67,16.873 28.67,16.874C28.67,16.876 28.67,16.877 28.67,16.878C28.67,16.88 28.67,16.881 28.67,16.883C28.67,16.884 28.67,16.886 28.67,16.887C28.67,16.889 28.67,16.89 28.67,16.892C28.67,16.893 28.67,16.895 28.67,16.896C28.67,16.898 28.67,16.899 28.67,16.901C28.67,16.902 28.67,16.904 28.67,16.905C28.67,16.907 28.67,16.908 28.67,16.91C28.67,16.911 28.67,16.913 28.67,16.914C28.67,16.916 28.67,16.917 28.67,16.919C28.67,16.92 28.67,16.922 28.67,16.923C28.67,16.925 28.67,16.926 28.67,16.928C28.67,16.929 28.67,16.931 28.67,16.932C28.67,16.934 28.67,16.935 28.67,16.937C28.67,16.938 28.67,16.94 28.67,16.941C28.67,16.943 28.67,16.944 28.67,16.946C28.67,16.947 28.67,16.949 28.67,16.95C28.67,16.952 28.67,16.953 28.67,16.954C28.67,16.956 28.67,16.957 28.67,16.959C28.67,16.96 28.67,16.962 28.67,16.963C28.67,16.965 28.67,16.966 28.67,16.968C28.67,16.969 28.67,16.971 28.67,16.972C28.67,16.974 28.67,16.975 28.67,16.977C28.67,16.978 28.67,16.98 28.67,16.981C28.67,16.983 28.67,16.984 28.67,16.986C28.67,16.987 28.67,16.989 28.67,16.99C28.67,16.992 28.67,16.993 28.67,16.995C28.67,16.996 28.67,16.998 28.67,16.999C28.67,17 28.67,17.002 28.67,17.003C28.67,17.005 28.67,17.006 28.67,17.008C28.67,17.009 28.67,17.011 28.67,17.012C28.67,17.014 28.67,17.015 28.67,17.017C28.67,17.018 28.67,17.02 28.67,17.021C28.67,17.023 28.67,17.024 28.67,17.026C28.67,17.027 28.67,17.029 28.67,17.03C28.67,17.032 28.67,17.033 28.67,17.035C28.67,17.036 28.67,17.038 28.67,17.039C28.67,17.04 28.67,17.042 28.67,17.043C28.67,17.045 28.67,17.046 28.67,17.048C28.67,17.049 28.67,17.051 28.67,17.052C28.67,17.054 28.67,17.055 28.67,17.057C28.67,17.058 28.67,17.06 28.67,17.061C28.67,17.063 28.67,17.064 28.67,17.066C28.67,17.067 28.67,17.069 28.67,17.07C28.67,17.071 28.67,17.073 28.67,17.074C28.67,17.076 28.67,17.077 28.67,17.079C28.67,17.08 28.67,17.082 28.67,17.083C28.67,17.085 28.67,17.086 28.67,17.088C28.67,17.089 28.67,17.091 28.67,17.092C28.67,17.094 28.67,17.095 28.67,17.097C28.67,17.098 28.67,17.1 28.67,17.101C28.67,17.102 28.67,17.104 28.67,17.105C28.67,17.107 28.67,17.108 28.67,17.11C28.67,17.111 28.67,17.113 28.67,17.114C28.67,17.116 28.67,17.117 28.67,17.119C28.67,17.12 28.67,17.122 28.67,17.123C28.67,17.125 28.67,17.126 28.67,17.127C28.67,17.129 28.67,17.13 28.67,17.132C28.67,17.133 28.67,17.135 28.67,17.136C28.67,17.138 28.67,17.139 28.67,17.141C28.67,17.142 28.67,17.144 28.67,17.145C28.67,17.147 28.67,17.148 28.67,17.15C28.67,17.151 28.67,17.152 28.67,17.154C28.67,17.155 28.67,17.157 28.67,17.158C28.67,17.16 28.67,17.161 28.67,17.163C28.67,17.164 28.67,17.166 28.67,17.167C28.67,17.169 28.67,17.17 28.67,17.172C28.67,17.173 28.67,17.174 28.67,17.176C28.67,17.177 28.67,17.179 28.67,17.18C28.67,17.182 28.67,17.183 28.67,17.185C28.67,17.186 28.67,17.188 28.67,17.189C28.67,17.191 28.67,17.192 28.67,17.194C28.67,17.195 28.67,17.196 28.67,17.198C28.67,17.199 28.67,17.201 28.67,17.202C28.67,17.204 28.67,17.205 28.67,17.207C28.67,17.208 28.67,17.21 28.67,17.211C28.67,17.213 28.67,17.214 28.67,17.216C28.67,17.217 28.67,17.218 28.67,17.22C28.67,17.221 28.67,17.223 28.67,17.224C28.67,17.226 28.67,17.227 28.67,17.229C28.67,17.23 28.67,17.232 28.67,17.233C28.67,17.235 28.67,17.236 28.67,17.237C28.67,17.239 28.67,17.24 28.67,17.242C28.67,17.243 28.67,17.245 28.67,17.246C28.67,17.248 28.67,17.249 28.67,17.251C28.67,17.252 28.67,17.254 28.67,17.255C28.67,17.256 28.67,17.258 28.67,17.259C28.67,17.261 28.67,17.262 28.67,17.264C28.67,17.265 28.67,17.267 28.67,17.268C28.67,17.27 28.67,17.271 28.67,17.273C28.67,17.274 28.67,17.275 28.67,17.277C28.67,17.278 28.67,17.28 28.67,17.281C28.67,17.283 28.67,17.284 28.67,17.286C28.67,17.287 28.67,17.289 28.67,17.29C28.67,17.291 28.67,17.293 28.67,17.294C28.67,17.296 28.67,17.297 28.67,17.299C28.67,17.3 28.67,17.302 28.67,17.303C28.67,17.305 28.67,17.306 28.67,17.308C28.67,17.309 28.67,17.31 28.67,17.312C28.67,17.313 28.67,17.315 28.67,17.316C28.67,17.318 28.67,17.319 28.67,17.321C28.67,17.322 28.67,17.324 28.67,17.325C28.67,17.326 28.67,17.328 28.67,17.329C28.67,17.331 28.67,17.332 28.67,17.334C28.67,17.335 28.67,17.337 28.67,17.338C28.67,17.34 28.67,17.341 28.67,17.342C28.67,17.344 28.67,17.345 28.67,17.347C28.67,17.348 28.67,17.35 28.67,17.351C28.67,17.353 28.67,17.354 28.67,17.356C28.67,17.357 28.67,17.358 28.67,17.36C28.67,17.361 28.67,17.363 28.67,17.364C28.67,17.366 28.67,17.367 28.67,17.369C28.67,17.37 28.67,17.371 28.67,17.373C28.67,17.374 28.67,17.376 28.67,17.377C28.67,17.379 28.67,17.38 28.67,17.382C28.67,17.383 28.67,17.385 28.67,17.386C28.67,17.387 28.67,17.389 28.67,17.39C28.67,17.392 28.67,17.393 28.67,17.395C28.67,17.396 28.67,17.398 28.67,17.399C28.67,17.401 28.67,17.402 28.67,17.403C28.67,17.405 28.67,17.406 28.67,17.408C28.67,17.409 28.67,17.411 28.67,17.412C28.67,17.414 28.67,17.415 28.67,17.416C28.67,17.418 28.67,17.419 28.67,17.421C28.67,17.422 28.67,17.424 28.67,17.425C28.67,17.427 28.67,17.428 28.67,17.429C28.67,17.431 28.67,17.432 28.67,17.434C28.67,17.435 28.67,17.437 28.67,17.438C28.67,17.44 28.67,17.441 28.67,17.442C28.67,17.444 28.67,17.445 28.67,17.447C28.67,17.448 28.67,17.45 28.67,17.451C28.67,17.453 28.67,17.454 28.67,17.456C28.67,17.457 28.67,17.458 28.67,17.46L30.17,17.46C30.17,17.458 30.17,17.457 30.17,17.456C30.17,17.454 30.17,17.453 30.17,17.451C30.17,17.45 30.17,17.448 30.17,17.447C30.17,17.445 30.17,17.444 30.17,17.442C30.17,17.441 30.17,17.44 30.17,17.438C30.17,17.437 30.17,17.435 30.17,17.434C30.17,17.432 30.17,17.431 30.17,17.429C30.17,17.428 30.17,17.427 30.17,17.425C30.17,17.424 30.17,17.422 30.17,17.421C30.17,17.419 30.17,17.418 30.17,17.416C30.17,17.415 30.17,17.414 30.17,17.412C30.17,17.411 30.17,17.409 30.17,17.408C30.17,17.406 30.17,17.405 30.17,17.403C30.17,17.402 30.17,17.401 30.17,17.399C30.17,17.398 30.17,17.396 30.17,17.395C30.17,17.393 30.17,17.392 30.17,17.39C30.17,17.389 30.17,17.387 30.17,17.386C30.17,17.385 30.17,17.383 30.17,17.382C30.17,17.38 30.17,17.379 30.17,17.377C30.17,17.376 30.17,17.374 30.17,17.373C30.17,17.371 30.17,17.37 30.17,17.369C30.17,17.367 30.17,17.366 30.17,17.364C30.17,17.363 30.17,17.361 30.17,17.36C30.17,17.358 30.17,17.357 30.17,17.356C30.17,17.354 30.17,17.353 30.17,17.351C30.17,17.35 30.17,17.348 30.17,17.347C30.17,17.345 30.17,17.344 30.17,17.342C30.17,17.341 30.17,17.34 30.17,17.338C30.17,17.337 30.17,17.335 30.17,17.334C30.17,17.332 30.17,17.331 30.17,17.329C30.17,17.328 30.17,17.326 30.17,17.325C30.17,17.324 30.17,17.322 30.17,17.321C30.17,17.319 30.17,17.318 30.17,17.316C30.17,17.315 30.17,17.313 30.17,17.312C30.17,17.31 30.17,17.309 30.17,17.308C30.17,17.306 30.17,17.305 30.17,17.303C30.17,17.302 30.17,17.3 30.17,17.299C30.17,17.297 30.17,17.296 30.17,17.294C30.17,17.293 30.17,17.291 30.17,17.29C30.17,17.289 30.17,17.287 30.17,17.286C30.17,17.284 30.17,17.283 30.17,17.281C30.17,17.28 30.17,17.278 30.17,17.277C30.17,17.275 30.17,17.274 30.17,17.273C30.17,17.271 30.17,17.27 30.17,17.268C30.17,17.267 30.17,17.265 30.17,17.264C30.17,17.262 30.17,17.261 30.17,17.259C30.17,17.258 30.17,17.256 30.17,17.255C30.17,17.254 30.17,17.252 30.17,17.251C30.17,17.249 30.17,17.248 30.17,17.246C30.17,17.245 30.17,17.243 30.17,17.242C30.17,17.24 30.17,17.239 30.17,17.237C30.17,17.236 30.17,17.235 30.17,17.233C30.17,17.232 30.17,17.23 30.17,17.229C30.17,17.227 30.17,17.226 30.17,17.224C30.17,17.223 30.17,17.221 30.17,17.22C30.17,17.218 30.17,17.217 30.17,17.216C30.17,17.214 30.17,17.213 30.17,17.211C30.17,17.21 30.17,17.208 30.17,17.207C30.17,17.205 30.17,17.204 30.17,17.202C30.17,17.201 30.17,17.199 30.17,17.198C30.17,17.196 30.17,17.195 30.17,17.194C30.17,17.192 30.17,17.191 30.17,17.189C30.17,17.188 30.17,17.186 30.17,17.185C30.17,17.183 30.17,17.182 30.17,17.18C30.17,17.179 30.17,17.177 30.17,17.176C30.17,17.174 30.17,17.173 30.17,17.172C30.17,17.17 30.17,17.169 30.17,17.167C30.17,17.166 30.17,17.164 30.17,17.163C30.17,17.161 30.17,17.16 30.17,17.158C30.17,17.157 30.17,17.155 30.17,17.154C30.17,17.152 30.17,17.151 30.17,17.15C30.17,17.148 30.17,17.147 30.17,17.145C30.17,17.144 30.17,17.142 30.17,17.141C30.17,17.139 30.17,17.138 30.17,17.136C30.17,17.135 30.17,17.133 30.17,17.132C30.17,17.13 30.17,17.129 30.17,17.127C30.17,17.126 30.17,17.125 30.17,17.123C30.17,17.122 30.17,17.12 30.17,17.119C30.17,17.117 30.17,17.116 30.17,17.114C30.17,17.113 30.17,17.111 30.17,17.11C30.17,17.108 30.17,17.107 30.17,17.105C30.17,17.104 30.17,17.102 30.17,17.101C30.17,17.1 30.17,17.098 30.17,17.097C30.17,17.095 30.17,17.094 30.17,17.092C30.17,17.091 30.17,17.089 30.17,17.088C30.17,17.086 30.17,17.085 30.17,17.083C30.17,17.082 30.17,17.08 30.17,17.079C30.17,17.077 30.17,17.076 30.17,17.074C30.17,17.073 30.17,17.071 30.17,17.07C30.17,17.069 30.17,17.067 30.17,17.066C30.17,17.064 30.17,17.063 30.17,17.061C30.17,17.06 30.17,17.058 30.17,17.057C30.17,17.055 30.17,17.054 30.17,17.052C30.17,17.051 30.17,17.049 30.17,17.048C30.17,17.046 30.17,17.045 30.17,17.043C30.17,17.042 30.17,17.04 30.17,17.039C30.17,17.038 30.17,17.036 30.17,17.035C30.17,17.033 30.17,17.032 30.17,17.03C30.17,17.029 30.17,17.027 30.17,17.026C30.17,17.024 30.17,17.023 30.17,17.021C30.17,17.02 30.17,17.018 30.17,17.017C30.17,17.015 30.17,17.014 30.17,17.012C30.17,17.011 30.17,17.009 30.17,17.008C30.17,17.006 30.17,17.005 30.17,17.003C30.17,17.002 30.17,17 30.17,16.999C30.17,16.998 30.17,16.996 30.17,16.995C30.17,16.993 30.17,16.992 30.17,16.99C30.17,16.989 30.17,16.987 30.17,16.986C30.17,16.984 30.17,16.983 30.17,16.981C30.17,16.98 30.17,16.978 30.17,16.977C30.17,16.975 30.17,16.974 30.17,16.972C30.17,16.971 30.17,16.969 30.17,16.968C30.17,16.966 30.17,16.965 30.17,16.963C30.17,16.962 30.17,16.96 30.17,16.959C30.17,16.957 30.17,16.956 30.17,16.954C30.17,16.953 30.17,16.952 30.17,16.95C30.17,16.949 30.17,16.947 30.17,16.946C30.17,16.944 30.17,16.943 30.17,16.941C30.17,16.94 30.17,16.938 30.17,16.937C30.17,16.935 30.17,16.934 30.17,16.932C30.17,16.931 30.17,16.929 30.17,16.928C30.17,16.926 30.17,16.925 30.17,16.923C30.17,16.922 30.17,16.92 30.17,16.919C30.17,16.917 30.17,16.916 30.17,16.914C30.17,16.913 30.17,16.911 30.17,16.91C30.17,16.908 30.17,16.907 30.17,16.905C30.17,16.904 30.17,16.902 30.17,16.901C30.17,16.899 30.17,16.898 30.17,16.896C30.17,16.895 30.17,16.893 30.17,16.892C30.17,16.89 30.17,16.889 30.17,16.887C30.17,16.886 30.17,16.884 30.17,16.883C30.17,16.881 30.17,16.88 30.17,16.878C30.17,16.877 30.17,16.876 30.17,16.874C30.17,16.873 30.17,16.871 30.17,16.87C30.17,16.868 30.17,16.867 30.17,16.865C30.17,16.864 30.17,16.862 30.17,16.861C30.17,16.859 30.17,16.858 30.17,16.856C30.17,16.855 30.17,16.853 30.17,16.852C30.17,16.85 30.17,16.849 30.17,16.847C30.17,16.846 30.17,16.844 30.17,16.843C30.17,16.841 30.17,16.84 30.17,16.838C30.17,16.837 30.17,16.835 30.17,16.834C30.17,16.832 30.17,16.831 30.17,16.829C30.17,16.828 30.17,16.826 30.17,16.825C30.17,16.823 30.17,16.822 30.17,16.82C30.17,16.819 30.17,16.817 30.17,16.816C30.17,16.814 30.17,16.813 30.17,16.811C30.17,16.81 30.17,16.808 30.17,16.807C30.17,16.805 30.17,16.804 30.17,16.802C30.17,16.801 30.17,16.799 30.17,16.798C30.17,16.796 30.17,16.795 30.17,16.793C30.17,16.792 30.17,16.79 30.17,16.789C30.17,16.787 30.17,16.786 30.17,16.784C30.17,16.783 30.17,16.781 30.17,16.78C30.17,16.778 30.17,16.777 30.17,16.775C30.17,16.774 30.17,16.772 30.17,16.771C30.17,16.769 30.17,16.768 30.17,16.766C30.17,16.765 30.17,16.763 30.17,16.762C30.17,16.76 30.17,16.759 30.17,16.757C30.17,16.756 30.17,16.754 30.17,16.753C30.17,16.751 30.17,16.75 30.17,16.748C30.17,16.747 30.17,16.745 30.17,16.744C30.17,16.742 30.17,16.74 30.17,16.739C30.17,16.737 30.17,16.736 30.17,16.734C30.17,16.733 30.17,16.731 30.17,16.73C30.17,16.728 30.17,16.727 30.17,16.725C30.17,16.724 30.17,16.722 30.17,16.721C30.17,16.719 30.17,16.718 30.17,16.716C30.17,16.715 30.17,16.713 30.17,16.712C30.17,16.71 30.17,16.709 30.17,16.707C30.17,16.706 30.17,16.704 30.17,16.703C30.17,16.701 30.17,16.7 30.17,16.698C30.17,16.697 30.17,16.695 30.17,16.694C30.17,16.692 30.17,16.691 30.17,16.689C30.17,16.688 30.17,16.686 30.17,16.685C30.17,16.683 30.17,16.682 30.17,16.68C30.17,16.679 30.17,16.677 30.17,16.676C30.17,16.674 30.17,16.673 30.17,16.671C30.17,16.67 30.17,16.668 30.17,16.666C30.17,16.665 30.17,16.663 30.17,16.662C30.17,16.66 30.17,16.659 30.17,16.657C30.17,16.656 30.17,16.654 30.17,16.653C30.17,16.651 30.17,16.65 30.17,16.648C30.17,16.647 30.17,16.645 30.17,16.644C30.17,16.642 30.17,16.641 30.17,16.639C30.17,16.638 30.17,16.636 30.17,16.635C30.17,16.633 30.17,16.632 30.17,16.63C30.17,16.629 30.17,16.627 30.17,16.626C30.17,16.624 30.17,16.623 30.17,16.621C30.17,16.619 30.17,16.618 30.17,16.616C30.17,16.615 30.17,16.613 30.17,16.612C30.17,16.61 30.17,16.609 30.17,16.607C30.17,16.606 30.17,16.604 30.17,16.603C30.17,16.601 30.17,16.6 30.17,16.598C30.17,16.597 30.17,16.595 30.17,16.594C30.17,16.592 30.17,16.591 30.17,16.589C30.17,16.588 30.17,16.586 30.17,16.584C30.17,16.583 30.17,16.581 30.17,16.58C30.17,16.578 30.17,16.577 30.17,16.575C30.17,16.574 30.17,16.572 30.17,16.571C30.17,16.569 30.17,16.568 30.17,16.566C30.17,16.565 30.17,16.563 30.17,16.562C30.17,16.56 30.17,16.559 30.17,16.557C30.17,16.556 30.17,16.554 30.17,16.552C30.17,16.551 30.17,16.549 30.17,16.548C30.17,16.546 30.17,16.545 30.17,16.543C30.17,16.542 30.17,16.54 30.17,16.539C30.17,16.537 30.17,16.536 30.17,16.534C30.17,16.533 30.17,16.531 30.17,16.53C30.17,16.528 30.17,16.527 30.17,16.525C30.17,16.523 30.17,16.522 30.17,16.52C30.17,16.519 30.17,16.517 30.17,16.516C30.17,16.514 30.17,16.513 30.17,16.511C30.17,16.51 30.17,16.508 30.17,16.507C30.17,16.505 30.17,16.504 30.17,16.502C30.17,16.5 30.17,16.499 30.17,16.497C30.17,16.496 30.17,16.494 30.17,16.493C30.17,16.491 30.17,16.49 30.17,16.488C30.17,16.487 30.17,16.485 30.17,16.484C30.17,16.482 30.17,16.481 30.17,16.479C30.17,16.477 30.17,16.476 30.17,16.474C30.17,16.473 30.17,16.471 30.17,16.47C30.17,16.468 30.17,16.467 30.17,16.465C30.17,16.464 30.17,16.462 30.17,16.461C30.17,16.459 30.17,16.458 30.17,16.456C30.17,16.454 30.17,16.453 30.17,16.451C30.17,16.45 30.17,16.448 30.17,16.447C30.17,16.445 30.17,16.444 30.17,16.442C30.17,16.441 30.17,16.439 30.17,16.438C30.17,16.436 30.17,16.434 30.17,16.433C30.17,16.431 30.17,16.43 30.17,16.428C30.17,16.427 30.17,16.425 30.17,16.424C30.17,16.422 30.17,16.421 30.17,16.419C30.17,16.418 30.17,16.416 30.17,16.414C30.17,16.413 30.17,16.411 30.17,16.41C30.17,16.408 30.17,16.407 30.17,16.405C30.17,16.404 30.17,16.402 30.17,16.401C30.17,16.399 30.17,16.397 30.17,16.396C30.17,16.394 30.17,16.393 30.17,16.391C30.17,16.39 30.17,16.388 30.17,16.387C30.17,16.385 30.17,16.384 30.17,16.382C30.17,16.38 30.17,16.379 30.17,16.377C30.17,16.376 30.17,16.374 30.17,16.373C30.17,16.371 30.17,16.37 30.17,16.368C30.17,16.367 30.17,16.365 30.17,16.363C30.17,16.362 30.17,16.36 30.17,16.359C30.17,16.357 30.17,16.356 30.17,16.354C30.17,16.353 30.17,16.351 30.17,16.35C30.17,16.348 30.17,16.346 30.17,16.345C30.17,16.343 30.17,16.342 30.17,16.34C30.17,16.339 30.17,16.337 30.17,16.336C30.17,16.334 30.17,16.333 30.17,16.331C30.17,16.329 30.17,16.328 30.17,16.326C30.17,16.325 30.17,16.323 30.17,16.322C30.17,16.32 30.17,16.319 30.17,16.317C30.17,16.315 30.17,16.314 30.17,16.312C30.17,16.311 30.17,16.309 30.17,16.308C30.17,16.306 30.17,16.305 30.17,16.303C30.17,16.301 30.17,16.3 30.17,16.298C30.17,16.297 30.17,16.295 30.17,16.294C30.17,16.292 30.17,16.291 30.17,16.289C30.17,16.287 30.17,16.286 30.17,16.284C30.17,16.283 30.17,16.281 30.17,16.28C30.17,16.278 30.17,16.277 30.17,16.275C30.17,16.273 30.17,16.272 30.17,16.27C30.17,16.269 30.17,16.267 30.17,16.266C30.17,16.264 30.17,16.263 30.17,16.261C30.17,16.259 30.17,16.258 30.17,16.256C30.17,16.255 30.17,16.253 30.17,16.252C30.17,16.25 30.17,16.249 30.17,16.247C30.17,16.245 30.17,16.244 30.17,16.242C30.17,16.241 30.17,16.239 30.17,16.238C30.17,16.236 30.17,16.234 30.17,16.233C30.17,16.231 30.17,16.23 30.17,16.228C30.17,16.227 30.17,16.225 30.17,16.224C30.17,16.222 30.17,16.22 30.17,16.219C30.17,16.217 30.17,16.216 30.17,16.214C30.17,16.213 30.17,16.211 30.17,16.209C30.17,16.208 30.17,16.206 30.17,16.205C30.17,16.203 30.17,16.202 30.17,16.2C30.17,16.199 30.17,16.197 30.17,16.195C30.17,16.194 30.17,16.192 30.17,16.191C30.17,16.189 30.17,16.188 30.17,16.186C30.17,16.184 30.17,16.183 30.17,16.181C30.17,16.18 30.17,16.178 30.17,16.177C30.17,16.175 30.17,16.173 30.17,16.172C30.17,16.17 30.17,16.169 30.17,16.167C30.17,16.166 30.17,16.164 30.17,16.162C30.17,16.161 30.17,16.159 30.17,16.158C30.17,16.156 30.17,16.155 30.17,16.153C30.17,16.151 30.17,16.15 30.17,16.148C30.17,16.147 30.17,16.145 30.17,16.144C30.17,16.142 30.17,16.14 30.17,16.139C30.17,16.137 30.17,16.136 30.17,16.134C30.17,16.133 30.17,16.131 30.17,16.129C30.17,16.128 30.17,16.126 30.17,16.125C30.17,16.123 30.17,16.122 30.17,16.12C30.17,16.118 30.17,16.117 30.17,16.115C30.17,16.114 30.17,16.112 30.17,16.111C30.17,16.109 30.17,16.107 30.17,16.106C30.17,16.104 30.17,16.103 30.17,16.101C30.17,16.099 30.17,16.098 30.17,16.096C30.17,16.095 30.17,16.093 30.17,16.092C30.17,16.09 30.17,16.088 30.17,16.087C30.17,16.085 30.17,16.084 30.17,16.082C30.17,16.081 30.17,16.079 30.17,16.077C30.17,16.076 30.17,16.074 30.17,16.073C30.17,16.071 30.17,16.069 30.17,16.068C30.17,16.066 30.17,16.065 30.17,16.063C30.17,16.062 30.17,16.06 30.17,16.058C30.17,16.057 30.17,16.055 30.17,16.054C30.17,16.052 30.17,16.05 30.17,16.049C30.17,16.047 30.17,16.046 30.17,16.044C30.17,16.043 30.17,16.041 30.17,16.039C30.17,16.038 30.17,16.036 30.17,16.035C30.17,16.033 30.17,16.031 30.17,16.03C30.17,16.028 30.17,16.027 30.17,16.025C30.17,16.024 30.17,16.022 30.17,16.02C30.17,16.019 30.17,16.017 30.17,16.016C30.17,16.014 30.17,16.012 30.17,16.011C30.17,16.009 30.17,16.008 30.17,16.006C30.17,16.004 30.17,16.003 30.17,16.001C30.17,16 30.17,15.998 30.17,15.997C30.17,15.995 30.17,15.993 30.17,15.992C30.17,15.99 30.17,15.989 30.17,15.987C30.17,15.985 30.17,15.984 30.17,15.982C30.17,15.981 30.17,15.979 30.17,15.977C30.17,15.976 30.17,15.974 30.17,15.973C30.17,15.971 30.17,15.969 30.17,15.968C30.17,15.966 30.17,15.965 30.17,15.963C30.17,15.961 30.17,15.96 30.17,15.958C30.17,15.957 30.17,15.955 30.17,15.954C30.17,15.952 30.17,15.95 30.17,15.949C30.17,15.947 30.17,15.946 30.17,15.944C30.17,15.942 30.17,15.941 30.17,15.939C30.17,15.938 30.17,15.936 30.17,15.934C30.17,15.933 30.17,15.931 30.17,15.93C30.17,15.928 30.17,15.926 30.17,15.925C30.17,15.923 30.17,15.922 30.17,15.92C30.17,15.918 30.17,15.917 30.17,15.915C30.17,15.914 30.17,15.912 30.17,15.91C30.17,15.909 30.17,15.907 30.17,15.906C30.17,15.904 30.17,15.902 30.17,15.901C30.17,15.899 30.17,15.898 30.17,15.896C30.17,15.894 30.17,15.893 30.17,15.891C30.17,15.89 30.17,15.888 30.17,15.886C30.17,15.885 30.17,15.883 30.17,15.881C30.17,15.88 30.17,15.878 30.17,15.877C30.17,15.875 30.17,15.873 30.17,15.872C30.17,15.87 30.17,15.869 30.17,15.867C30.17,15.865 30.17,15.864 30.17,15.862C30.17,15.861 30.17,15.859 30.17,15.857C30.17,15.856 30.17,15.854 30.17,15.853C30.17,15.851 30.17,15.849 30.17,15.848C30.17,15.846 30.17,15.845 30.17,15.843C30.17,15.841 30.17,15.84 30.17,15.838C30.17,15.836 30.17,15.835 30.17,15.833C30.17,15.832 30.17,15.83 30.17,15.828C30.17,15.827 30.17,15.825 30.17,15.824C30.17,15.822 30.17,15.82 30.17,15.819C30.17,15.817 30.17,15.816 30.17,15.814C30.17,15.812 30.17,15.811 30.17,15.809C30.17,15.807 30.17,15.806 30.17,15.804C30.17,15.803 30.17,15.801 30.17,15.799C30.17,15.798 30.17,15.796 30.17,15.795C30.17,15.793 30.17,15.791 30.17,15.79C30.17,15.788 30.17,15.786 30.17,15.785C30.17,15.783 30.17,15.782 30.17,15.78C30.17,15.778 30.17,15.777 30.17,15.775C30.17,15.773 30.17,15.772 30.17,15.77C30.17,15.769 30.17,15.767 30.17,15.765C30.17,15.764 30.17,15.762 30.17,15.761C30.17,15.759 30.17,15.757 30.17,15.756C30.17,15.754 30.17,15.752 30.17,15.751C30.17,15.749 30.17,15.748 30.17,15.746C30.17,15.744 30.17,15.743 30.17,15.741C30.17,15.739 30.17,15.738 30.17,15.736C30.17,15.735 30.17,15.733 30.17,15.731C30.17,15.73 30.17,15.728 30.17,15.726C30.17,15.725 30.17,15.723 30.17,15.722C30.17,15.72 30.17,15.718 30.17,15.717C30.17,15.715 30.17,15.713 30.17,15.712C30.17,15.71 30.17,15.709 30.17,15.707C30.17,15.705 30.17,15.704 30.17,15.702C30.17,15.7 30.17,15.699 30.17,15.697C30.17,15.696 30.17,15.694 30.17,15.692C30.17,15.691 30.17,15.689 30.17,15.687C30.17,15.686 30.17,15.684 30.17,15.682C30.17,15.681 30.17,15.679 30.17,15.678C30.17,15.676 30.17,15.674 30.17,15.673C30.17,15.671 30.17,15.669 30.17,15.668C30.17,15.666 30.17,15.665 30.17,15.663C30.17,15.661 30.17,15.66 30.17,15.658C30.17,15.656 30.17,15.655 30.17,15.653C30.17,15.651 30.17,15.65 30.17,15.648C30.17,15.647 30.17,15.645 30.17,15.643C30.17,15.642 30.17,15.64 30.17,15.638C30.17,15.637 30.17,15.635 30.17,15.633C30.17,15.632 30.17,15.63 30.17,15.629C30.17,15.627 30.17,15.625 30.17,15.624C30.17,15.622 30.17,15.62 30.17,15.619C30.17,15.617 30.17,15.615 30.17,15.614C30.17,15.612 30.17,15.611 30.17,15.609C30.17,15.607 30.17,15.606 30.17,15.604C30.17,15.602 30.17,15.601 30.17,15.599C30.17,15.597 30.17,15.596 30.17,15.594C30.17,15.592 30.17,15.591 30.17,15.589C30.17,15.588 30.17,15.586 30.17,15.584C30.17,15.583 30.17,15.581 30.17,15.579C30.17,15.578 30.17,15.576 30.17,15.574C30.17,15.573 30.17,15.571 30.17,15.569C30.17,15.568 30.17,15.566 30.17,15.564C30.17,15.563 30.17,15.561 30.17,15.56C30.17,15.558 30.17,15.556 30.17,15.555C30.17,15.553 30.17,15.551 30.17,15.55C30.17,15.548 30.17,15.546 30.17,15.545C30.17,15.543 30.17,15.541 30.17,15.54C30.17,15.538 30.17,15.536 30.17,15.535C30.17,15.533 30.17,15.531 30.17,15.53C30.17,15.528 30.17,15.527 30.17,15.525C30.17,15.523 30.17,15.522 30.17,15.52C30.17,15.518 30.17,15.517 30.17,15.515C30.17,15.513 30.17,15.512 30.17,15.51C30.17,15.508 30.17,15.507 30.17,15.505C30.17,15.503 30.17,15.502 30.17,15.5C30.17,15.498 30.17,15.497 30.17,15.495C30.17,15.493 30.17,15.492 30.17,15.49C30.17,15.488 30.17,15.487 30.17,15.485C30.17,15.484 30.17,15.482 30.17,15.48C30.17,15.479 30.17,15.477 30.17,15.475C30.17,15.474 30.17,15.472 30.17,15.47C30.17,15.469 30.17,15.467 30.17,15.465C30.17,15.464 30.17,15.462 30.17,15.46C30.17,15.459 30.17,15.457 30.17,15.455C30.17,15.454 30.17,15.452 30.17,15.45C30.17,15.449 30.17,15.447 30.17,15.445C30.17,15.444 30.17,15.442 30.17,15.44C30.17,15.439 30.17,15.437 30.17,15.435C30.17,15.434 30.17,15.432 30.17,15.43C30.17,15.429 30.17,15.427 30.17,15.425C30.17,15.424 30.17,15.422 30.17,15.42C30.17,15.419 30.17,15.417 30.17,15.415C30.17,15.414 30.17,15.412 30.17,15.41C30.17,15.409 30.17,15.407 30.17,15.405C30.17,15.404 30.17,15.402 30.17,15.4C30.17,15.399 30.17,15.397 30.17,15.395C30.17,15.394 30.17,15.392 30.17,15.39C30.17,15.389 30.17,15.387 30.17,15.385C30.17,15.384 30.17,15.382 30.17,15.38C30.17,15.379 30.17,15.377 30.17,15.375C30.17,15.374 30.17,15.372 30.17,15.37C30.17,15.369 30.17,15.367 30.17,15.365C30.17,15.364 30.17,15.362 30.17,15.36C30.17,15.358 30.17,15.357 30.17,15.355C30.17,15.353 30.17,15.352 30.17,15.35C30.17,15.348 30.17,15.347 30.17,15.345C30.17,15.343 30.17,15.342 30.17,15.34C30.17,15.338 30.17,15.337 30.17,15.335C30.17,15.333 30.17,15.332 30.17,15.33C30.17,15.328 30.17,15.327 30.17,15.325C30.17,15.323 30.17,15.322 30.17,15.32C30.17,15.318 30.17,15.317 30.17,15.315C30.17,15.313 30.17,15.311 30.17,15.31C30.17,15.308 30.17,15.306 30.17,15.305C30.17,15.303 30.17,15.301 30.17,15.3C30.17,15.298 30.17,15.296 30.17,15.295C30.17,15.293 30.17,15.291 30.17,15.29C30.17,15.288 30.17,15.286 30.17,15.285C30.17,15.283 30.17,15.281 30.17,15.279C30.17,15.278 30.17,15.276 30.17,15.274C30.17,15.273 30.17,15.271 30.17,15.269C30.17,15.268 30.17,15.266 30.17,15.264C30.17,15.263 30.17,15.261 30.17,15.259C30.17,15.258 30.17,15.256 30.17,15.254C30.17,15.252 30.17,15.251 30.17,15.249C30.17,15.247 30.17,15.246 30.17,15.244C30.17,15.242 30.17,15.241 30.17,15.239C30.17,15.237 30.17,15.236 30.17,15.234C30.17,15.232 30.17,15.23 30.17,15.229C30.17,15.227 30.17,15.225 30.17,15.224C30.17,15.222 30.17,15.22 30.17,15.219C30.17,15.217 30.17,15.215 30.17,15.214C30.17,15.212 30.17,15.21 30.17,15.208C30.17,15.207 30.17,15.205 30.17,15.203C30.17,15.202 30.17,15.2 30.17,15.198C30.17,15.197 30.17,15.195 30.17,15.193C30.17,15.191 30.17,15.19 30.17,15.188C30.17,15.186 30.17,15.185 30.17,15.183C30.17,15.181 30.17,15.18 30.17,15.178C30.17,15.176 30.17,15.174 30.17,15.173C30.17,15.171 30.17,15.169 30.17,15.168C30.17,15.166 30.17,15.164 30.17,15.163C30.17,15.161 30.17,15.159 30.17,15.157C30.17,15.156 30.17,15.154 30.17,15.152C30.17,15.151 30.17,15.149 30.17,15.147C30.17,15.145 30.17,15.144 30.17,15.142C30.17,15.14 30.17,15.139 30.17,15.137C30.17,15.135 30.17,15.134 30.17,15.132C30.17,15.13 30.17,15.128 30.17,15.127C30.17,15.125 30.17,15.123 30.17,15.122C30.17,15.12 30.17,15.118 30.17,15.116C30.17,15.115 30.17,15.113 30.17,15.111C30.17,15.11 30.17,15.108 30.17,15.106C30.17,15.104 30.17,15.103 30.17,15.101C30.17,15.099 30.17,15.098 30.17,15.096C30.17,15.094 30.17,15.092 30.17,15.091C30.17,15.089 30.17,15.087 30.17,15.086C30.17,15.084 30.17,15.082 30.17,15.08C30.17,15.079 30.17,15.077 30.17,15.075C30.17,15.074 30.17,15.072 30.17,15.07C30.17,15.068 30.17,15.067 30.17,15.065C30.17,15.063 30.17,15.062 30.17,15.06L28.67,15.06ZM28.672,17.413C28.601,18.546 28.446,19.672 28.207,20.782L29.674,21.098C29.928,19.915 30.094,18.714 30.169,17.506L28.672,17.413ZM28.231,20.696C27.905,21.646 27.451,22.547 26.882,23.375L28.118,24.225C28.764,23.285 29.28,22.262 29.65,21.183L28.231,20.696ZM26.943,23.298C25.921,24.434 25.077,25.718 24.439,27.107L25.802,27.733C26.377,26.482 27.137,25.325 28.058,24.301L26.943,23.298ZM24.389,27.252C24.225,27.969 24.151,28.704 24.171,29.44L25.67,29.4C25.654,28.791 25.715,28.182 25.851,27.588L24.389,27.252ZM24.17,29.417C24.168,30.105 24.257,30.79 24.436,31.455L25.885,31.065C25.741,30.529 25.669,29.977 25.67,29.422L24.17,29.417ZM25.081,30.514C24.316,30.595 23.544,30.595 22.779,30.514L22.621,32.006C23.492,32.098 24.369,32.098 25.239,32.006L25.081,30.514ZM22.814,30.519C22.82,30.519 22.741,30.502 22.577,30.364C22.426,30.238 22.26,30.059 22.092,29.848C21.757,29.426 21.475,28.956 21.36,28.743L20.041,29.457C20.185,29.724 20.514,30.273 20.918,30.782C21.121,31.036 21.357,31.299 21.614,31.514C21.857,31.718 22.191,31.94 22.586,32.001L22.814,30.519ZM21.371,28.765C21.116,28.253 20.593,27.929 20.02,27.929L20.02,29.429C20.024,29.429 20.027,29.431 20.029,29.435L21.371,28.765ZM20.02,27.929C19.448,27.929 18.925,28.253 18.669,28.765L20.011,29.435C20.013,29.431 20.016,29.429 20.02,29.429L20.02,27.929ZM18.691,28.724C18.488,29.074 18.159,29.57 17.81,29.977C17.636,30.181 17.472,30.345 17.33,30.456C17.173,30.579 17.117,30.579 17.153,30.575L17.328,32.065C17.703,32.021 18.025,31.818 18.256,31.636C18.504,31.442 18.74,31.198 18.95,30.952C19.372,30.46 19.752,29.885 19.989,29.476L18.691,28.724ZM17.151,30.575C16.541,30.648 15.568,30.65 14.429,30.63C13.315,30.61 12.058,30.57 10.96,30.57L10.96,32.07C12.042,32.07 13.255,32.109 14.402,32.13C15.522,32.15 16.599,32.152 17.329,32.065L17.151,30.575ZM10.96,31.32C11.698,31.453 11.698,31.453 11.698,31.452C11.698,31.452 11.698,31.452 11.699,31.452C11.699,31.452 11.699,31.451 11.699,31.451C11.699,31.45 11.699,31.449 11.699,31.449C11.699,31.447 11.7,31.444 11.7,31.441C11.701,31.436 11.703,31.428 11.704,31.419C11.707,31.4 11.711,31.374 11.716,31.342C11.726,31.277 11.738,31.185 11.75,31.075C11.773,30.855 11.795,30.549 11.788,30.214C11.781,29.882 11.745,29.496 11.64,29.125C11.536,28.758 11.348,28.347 10.995,28.036L10.005,29.163C10.062,29.213 10.137,29.322 10.196,29.532C10.254,29.738 10.282,29.987 10.288,30.246C10.293,30.5 10.277,30.74 10.258,30.917C10.249,31.005 10.239,31.076 10.232,31.123C10.229,31.147 10.226,31.165 10.224,31.176C10.223,31.181 10.222,31.185 10.222,31.187C10.222,31.188 10.222,31.188 10.222,31.188C10.222,31.188 10.222,31.188 10.222,31.188C10.222,31.188 10.222,31.188 10.222,31.188C10.222,31.187 10.222,31.187 10.222,31.187C10.222,31.187 10.222,31.187 10.96,31.32ZM10.995,28.036C10.597,27.687 10.191,27.305 9.801,26.936C9.417,26.571 9.042,26.211 8.723,25.923L7.718,27.036C8.019,27.308 8.374,27.649 8.769,28.024C9.16,28.394 9.584,28.793 10.005,29.163L10.995,28.036ZM8.785,25.986L7.105,24.066L5.976,25.054L7.656,26.974L8.785,25.986Z" fill="#000000"/>
<path d="M23.5,25.652L23.5,18.748C23.5,18.335 23.164,18 22.75,18C22.336,18 22,18.335 22,18.748L22,25.652C22,26.065 22.336,26.4 22.75,26.4C23.164,26.4 23.5,26.065 23.5,25.652Z" fill="#000000"/>
<path d="M19.54,25.649L19.5,18.742C19.498,18.33 19.16,17.998 18.746,18C18.331,18.002 17.998,18.339 18,18.751L18.04,25.658C18.042,26.07 18.38,26.402 18.794,26.4C19.209,26.398 19.542,26.061 19.54,25.649Z" fill="#000000"/>
<path d="M14,18.758L14.04,25.651C14.042,26.067 14.38,26.402 14.794,26.4C15.209,26.398 15.542,26.058 15.54,25.642L15.5,18.749C15.498,18.333 15.16,17.998 14.746,18C14.331,18.002 13.998,18.342 14,18.758Z" fill="#000000"/>
</g>
<defs>
<filter id="filter153_541" x="-0.06709" y="-0.026563" width="15.996126" height="17.108764" filterUnits="userSpaceOnUse" color-interpolation-filters="sRGB">
<feFlood flood-opacity="0" result="BackgroundImageFix"/>
<feColorMatrix in="SourceAlpha" type="matrix" values="0 0 0 0 0 0 0 0 0 0 0 0 0 0 0 0 0 0 127 0" result="hardAlpha"/>
<feMorphology radius="0" operator="dilate" in="SourceAlpha" result="0dropshadow"/>
<feOffset dx="0" dy="1"/>
<feGaussianBlur stdDeviation="0.4"/>
<feComposite in2="hardAlpha" operator="out"/>
<feColorMatrix type="matrix" values="0 0 0 0 0 0 0 0 0 0 0 0 0 0 0 0 0 0 0.5 0"/>
<feBlend mode="normal" in2="BackgroundImageFix" result="0dropshadow"/>
<feBlend mode="normal" in="SourceGraphic" in2="0dropshadow" result="shape"/>
</filter>
</defs>
</svg>
