<svg width="202" height="88" viewBox="0 0 202 88" fill="none" xmlns="http://www.w3.org/2000/svg" xmlns:xlink="http://www.w3.org/1999/xlink">
<path d="M151.749,30.607C152.195,32.831 149.907,34.523 147.634,34.523L137.346,34.523C135.072,34.523 133.127,32.695 133.127,30.558L133.127,23.982C133.127,21.845 135.072,20.211 137.346,20.211L145.988,20.211C148.261,20.211 149.451,21.896 150.103,24.056L151.749,30.608L151.749,30.607Z" fill="#767F89"/>
<path d="M35.714,59.473C38.916,61.407 41.358,64.501 42.57,68.176L43.852,68.176C45.064,64.501 47.504,61.407 50.708,59.473L35.716,59.473L35.714,59.473Z" fill="#515D69"/>
<path d="M150.72,59.473L73.574,59.473C76.776,61.407 79.218,64.501 80.43,68.176L150.722,68.176C152.996,68.176 154.735,66.348 154.735,64.211L154.735,63.244C154.735,59.811 154.477,59.473 150.722,59.473L150.72,59.473Z" fill="#515D69"/>
<path d="M5.58,68.176C6.792,64.501 9.233,61.407 12.436,59.473L5.041,59.473C2.768,59.473 0.823,61.107 0.823,63.244L0.823,64.211C0.823,66.348 2.768,68.176 5.041,68.176L5.58,68.176Z" fill="#515D69"/>
<path d="M23.765,87.323C32.004,87.323 38.683,81.045 38.683,73.301C38.683,65.557 32.004,59.279 23.765,59.279C15.527,59.279 8.848,65.557 8.848,73.301C8.848,81.045 15.527,87.323 23.765,87.323Z" fill="#68727C"/>
<path d="M23.765,80.65C28.083,80.65 31.584,77.36 31.584,73.301C31.584,69.242 28.083,65.951 23.765,65.951C19.447,65.951 15.946,69.242 15.946,73.301C15.946,77.36 19.447,80.65 23.765,80.65Z" fill="#BDC2C7"/>
<path d="M61.831,87.323C70.07,87.323 76.749,81.045 76.749,73.301C76.749,65.557 70.07,59.279 61.831,59.279C53.592,59.279 46.914,65.557 46.914,73.301C46.914,81.045 53.592,87.323 61.831,87.323Z" fill="#68727C"/>
<path d="M23.766,75.912C25.3,75.912 26.543,74.743 26.543,73.301C26.543,71.859 25.3,70.69 23.766,70.69C22.231,70.69 20.988,71.859 20.988,73.301C20.988,74.743 22.231,75.912 23.766,75.912Z" fill="#515D69"/>
<path d="M62.243,80.65C66.561,80.65 70.062,77.36 70.062,73.301C70.062,69.242 66.561,65.951 62.243,65.951C57.924,65.951 54.424,69.242 54.424,73.301C54.424,77.36 57.924,80.65 62.243,80.65Z" fill="#BDC2C7"/>
<path d="M62.243,75.912C63.777,75.912 65.02,74.743 65.02,73.301C65.02,71.859 63.777,70.69 62.243,70.69C60.708,70.69 59.465,71.859 59.465,73.301C59.465,74.743 60.708,75.912 62.243,75.912Z" fill="#515D69"/>
<path d="M180.967,87.323C189.206,87.323 195.885,81.045 195.885,73.301C195.885,65.557 189.206,59.279 180.967,59.279C172.728,59.279 166.049,65.557 166.049,73.301C166.049,81.045 172.728,87.323 180.967,87.323Z" fill="#68727C"/>
<path d="M180.967,80.65C185.285,80.65 188.786,77.36 188.786,73.301C188.786,69.242 185.285,65.951 180.967,65.951C176.649,65.951 173.148,69.242 173.148,73.301C173.148,77.36 176.649,80.65 180.967,80.65Z" fill="#BDC2C7"/>
<path d="M181.378,75.912C182.912,75.912 184.156,74.743 184.156,73.301C184.156,71.859 182.912,70.69 181.378,70.69C179.844,70.69 178.601,71.859 178.601,73.301C178.601,74.743 179.844,75.912 181.378,75.912Z" fill="#515D69"/>
<path d="M137.757,26.98C137.502,26.98 137.247,26.882 137.064,26.688C136.724,26.328 136.759,25.779 137.14,25.46L146.726,17.451C147.109,17.132 147.693,17.165 148.033,17.523C148.372,17.882 148.337,18.432 147.957,18.751L138.37,26.76C138.193,26.907 137.975,26.98 137.755,26.98L137.757,26.98Z" fill="#A8AEB4"/>
<path d="M147.119,63.147L110.288,63.147C108.015,63.147 106.173,64.879 106.173,67.016L106.173,75.525C106.173,77.662 108.015,79.394 110.288,79.394L147.119,79.394C149.392,79.394 151.235,77.662 151.235,75.525L151.235,67.016C151.235,64.879 149.392,63.147 147.119,63.147Z" fill="#D4D7DA"/>
<path d="M147.119,63.147L110.288,63.147C108.014,63.147 106.173,64.878 106.173,67.016L106.173,69.99C111.181,72.185 119.179,73.605 128.191,73.605C137.848,73.605 146.337,71.975 151.235,69.507L151.235,67.014C151.235,64.876 149.393,63.146 147.119,63.146L147.119,63.147Z" fill="#EEEFF0"/>
<path d="M194.856,50.705L194.856,44.387C194.856,42.25 194.111,39.745 191.77,39.358L157.986,34.072L154.206,20.356C153.486,18.132 152.058,16.536 148.868,16.536L127.469,16.536C125.195,16.536 123.251,18.17 123.251,20.308L123.251,52.413C123.251,54.55 125.195,56.378 127.469,56.378L154.63,56.378C156.903,56.378 158.642,58.012 158.642,60.149L158.642,66.242L164.426,66.242L168.21,59.859C169.547,57.732 172.109,55.991 174.383,55.991L186.728,55.991C189.002,55.991 192.078,58.022 193.107,59.859L194.547,62.567L198.971,62.567L198.971,53.848C198.971,53.848 198.148,52.446 194.856,50.705L194.856,50.705ZM147.634,34.523L137.346,34.523C135.072,34.523 133.128,32.695 133.128,30.558L133.128,23.982C133.128,21.845 135.072,20.211 137.346,20.211L145.988,20.211C148.261,20.211 149.451,21.895 150.103,24.056L151.749,30.608C152.195,32.833 149.907,34.525 147.634,34.525L147.634,34.523Z" fill="#F26A21"/>
<path d="M128.621,42.18C128.366,42.18 128.111,42.081 127.928,41.888C127.588,41.528 127.623,40.979 128.004,40.659L144.671,26.734C145.053,26.415 145.638,26.448 145.977,26.806C146.317,27.166 146.282,27.715 145.901,28.034L129.235,41.959C129.058,42.106 128.839,42.18 128.619,42.18L128.621,42.18Z" fill="#A8AEB4"/>
<path d="M194.033,50.383L194.033,57.539L194.547,62.567L199.074,61.697L198.971,53.849L194.033,50.383Z" fill="#FFFFFF"/>
<path d="M191.77,39.358L157.986,34.072L154.206,20.356C153.486,18.132 152.058,16.536 148.868,16.536L127.469,16.536C125.195,16.536 123.251,18.17 123.251,20.308L123.251,39.584C132.662,43.383 145.778,45.741 160.288,45.741C173.144,45.741 184.905,43.89 193.965,40.826C193.481,40.078 192.772,39.523 191.77,39.358L191.77,39.358ZM147.634,34.523L137.346,34.523C135.072,34.523 133.128,32.695 133.128,30.558L133.128,23.982C133.128,21.845 135.072,20.211 137.346,20.211L145.988,20.211C148.261,20.211 149.451,21.895 150.103,24.056L151.749,30.608C152.195,32.833 149.907,34.525 147.634,34.525L147.634,34.523Z" fill="#F58C55"/>
<path d="M159.054,38.972L158.23,40.132L159.054,41.486L169.239,43.42L170.268,41.583L169.444,39.745L159.054,38.972Z" fill="#FFFFFF"/>
<path d="M51.235,60.092L53.663,58.506L32.757,58.506L35.185,60.092C38.249,62.092 40.558,65.024 41.687,68.344L41.893,68.95L44.527,68.95L44.733,68.344C45.862,65.022 48.171,62.092 51.235,60.092L51.235,60.092ZM43.21,67.153C42.191,64.53 40.506,62.153 38.331,60.247L48.087,60.247C45.912,62.152 44.226,64.529 43.208,67.153L43.21,67.153Z" fill="#263544"/>
<path d="M5.041,68.95L6.255,68.95L6.461,68.344C7.591,65.022 9.899,62.092 12.963,60.092L15.391,58.506L5.041,58.506C2.261,58.506 0,60.631 0,63.244L0,64.211C0,66.824 2.261,68.95 5.041,68.95ZM1.852,63.244C1.852,61.591 3.282,60.247 5.041,60.247L9.817,60.247C7.628,62.165 5.932,64.563 4.918,67.207C3.216,67.145 1.852,65.826 1.852,64.211L1.852,63.244L1.852,63.244Z" fill="#263544"/>
<path d="M23.868,64.755C18.911,64.755 14.878,68.546 14.878,73.205C14.878,77.864 18.911,81.655 23.868,81.655C28.825,81.655 32.858,77.864 32.858,73.205C32.858,68.546 28.825,64.755 23.868,64.755ZM23.868,79.914C19.932,79.914 16.73,76.905 16.73,73.205C16.73,69.505 19.932,66.496 23.868,66.496C27.804,66.496 31.006,69.505 31.006,73.205C31.006,76.905 27.804,79.914 23.868,79.914Z" fill="#263544"/>
<path d="M23.868,69.724C21.827,69.724 20.165,71.286 20.165,73.205C20.165,75.124 21.827,76.686 23.868,76.686C25.909,76.686 27.572,75.124 27.572,73.205C27.572,71.286 25.909,69.724 23.868,69.724ZM23.868,74.946C22.848,74.946 22.016,74.164 22.016,73.205C22.016,72.246 22.848,71.464 23.868,71.464C24.889,71.464 25.72,72.246 25.72,73.205C25.72,74.164 24.889,74.946 23.868,74.946Z" fill="#263544"/>
<path d="M39.609,73.205C39.609,65.047 32.547,58.409 23.868,58.409C15.189,58.409 8.127,65.047 8.127,73.205C8.127,77.792 10.36,81.9 13.86,84.616L1.852,84.616C1.339,84.616 0.926,85.005 0.926,85.486C0.926,85.968 1.339,86.356 1.852,86.356L16.667,86.356C16.667,86.356 16.669,86.356 16.671,86.356C18.829,87.405 21.276,88 23.868,88C26.461,88 28.907,87.405 31.066,86.356C31.066,86.356 31.068,86.356 31.07,86.356L38.477,86.356C38.99,86.356 39.403,85.968 39.403,85.486C39.403,85.005 38.99,84.616 38.477,84.616L33.876,84.616C37.374,81.9 39.609,77.792 39.609,73.205ZM9.979,73.205C9.979,66.006 16.21,60.15 23.868,60.15C31.527,60.15 37.757,66.006 37.757,73.205C37.757,80.403 31.527,86.26 23.868,86.26C16.21,86.26 9.979,80.403 9.979,73.205Z" fill="#263544"/>
<path d="M62.14,64.755C57.183,64.755 53.15,68.546 53.15,73.205C53.15,77.864 57.183,81.655 62.14,81.655C67.097,81.655 71.13,77.864 71.13,73.205C71.13,68.546 67.097,64.755 62.14,64.755ZM62.14,79.914C58.204,79.914 55.002,76.905 55.002,73.205C55.002,69.505 58.204,66.496 62.14,66.496C66.076,66.496 69.278,69.505 69.278,73.205C69.278,76.905 66.076,79.914 62.14,79.914Z" fill="#263544"/>
<path d="M62.14,69.724C60.099,69.724 58.436,71.286 58.436,73.205C58.436,75.124 60.099,76.686 62.14,76.686C64.181,76.686 65.843,75.124 65.843,73.205C65.843,71.286 64.181,69.724 62.14,69.724ZM62.14,74.946C61.119,74.946 60.288,74.164 60.288,73.205C60.288,72.246 61.119,71.464 62.14,71.464C63.16,71.464 63.992,72.246 63.992,73.205C63.992,74.164 63.16,74.946 62.14,74.946Z" fill="#263544"/>
<path d="M181.07,64.755C176.113,64.755 172.08,68.546 172.08,73.205C172.08,77.864 176.113,81.655 181.07,81.655C186.027,81.655 190.059,77.864 190.059,73.205C190.059,68.546 186.027,64.755 181.07,64.755ZM181.07,79.914C177.134,79.914 173.932,76.905 173.932,73.205C173.932,69.505 177.134,66.496 181.07,66.496C185.006,66.496 188.208,69.505 188.208,73.205C188.208,76.905 185.006,79.914 181.07,79.914Z" fill="#263544"/>
<path d="M181.07,69.724C179.029,69.724 177.366,71.286 177.366,73.205C177.366,75.124 179.029,76.686 181.07,76.686C183.111,76.686 184.774,75.124 184.774,73.205C184.774,71.286 183.111,69.724 181.07,69.724ZM181.07,74.946C180.049,74.946 179.218,74.164 179.218,73.205C179.218,72.246 180.049,71.464 181.07,71.464C182.09,71.464 182.922,72.246 182.922,73.205C182.922,74.164 182.09,74.946 181.07,74.946Z" fill="#263544"/>
<path d="M199.844,53.365C199.831,53.347 199.735,53.214 199.535,52.997C199.504,52.955 199.471,52.912 199.432,52.874C199.416,52.856 199.354,52.798 199.257,52.707C198.677,52.131 197.624,51.232 195.885,50.214L195.885,44.385C195.885,41.851 194.86,38.975 191.973,38.498L158.757,33.305L155.115,20.087C155.111,20.076 155.109,20.064 155.105,20.052C154.128,17.035 152.089,15.567 148.871,15.567L127.471,15.567C124.691,15.567 122.43,17.693 122.43,20.306L122.43,52.411C122.43,55.024 124.691,57.15 127.471,57.15L154.632,57.15C156.391,57.15 157.821,58.494 157.821,60.148L157.821,66.143C157.821,66.625 158.235,67.014 158.747,67.014L164.428,67.014C164.764,67.014 165.074,66.843 165.237,66.567L169.015,60.194C170.249,58.237 172.556,56.763 174.385,56.763L186.731,56.763C188.698,56.763 191.432,58.633 192.28,60.15L193.72,62.857C193.877,63.151 194.198,63.339 194.55,63.339L199.076,63.339C199.589,63.339 200.002,62.95 200.002,62.468L200.002,53.846C200.002,53.674 199.949,53.506 199.846,53.363L199.844,53.365ZM198.148,61.6L195.268,61.6L195.268,55.604C195.268,55.123 194.854,54.734 194.342,54.734C193.829,54.734 193.416,55.123 193.416,55.604L193.416,58.604C191.98,56.788 189.128,55.024 186.729,55.024L174.383,55.024C171.868,55.024 169.002,56.79 167.414,59.32C167.41,59.326 167.406,59.333 167.401,59.339L163.883,65.275L160.525,65.275L164.393,54.135C164.552,53.678 164.286,53.187 163.801,53.038C163.315,52.889 162.792,53.139 162.634,53.595L159.673,62.124L159.673,60.151C159.673,57.539 157.412,55.413 154.632,55.413L127.471,55.413C125.712,55.413 124.282,54.069 124.282,52.415L124.282,20.308C124.282,18.683 125.663,17.36 127.379,17.314C127.377,17.341 127.368,17.366 127.368,17.395L127.368,46.106C127.368,46.437 127.298,48.828 129.025,50.562C130.183,51.727 131.844,52.317 133.955,52.317L148.22,52.317C148.733,52.317 149.146,51.928 149.146,51.446C149.146,50.965 148.733,50.576 148.22,50.576L133.955,50.576C132.383,50.576 131.183,50.176 130.389,49.383C129.117,48.116 129.218,46.201 129.218,46.186C129.218,46.166 129.218,46.147 129.218,46.128L129.218,17.395C129.218,17.366 129.216,17.339 129.212,17.31L148.868,17.31C151.253,17.31 152.589,18.277 153.327,20.544L157.115,34.291C157.208,34.624 157.498,34.875 157.86,34.931L191.661,40.215C193.918,40.588 194.033,43.756 194.033,44.387L194.033,49.315C193.035,48.899 191.953,48.582 190.836,48.472C186.671,48.06 173.356,46.569 173.222,46.553C172.716,46.497 172.255,46.837 172.194,47.315C172.134,47.793 172.496,48.226 173.004,48.282C173.138,48.298 186.465,49.789 190.642,50.203C194.076,50.543 197.323,53.369 197.978,53.968C198.045,54.038 198.103,54.098 198.148,54.148L198.148,61.6L198.148,61.6Z" fill="#263544"/>
<path d="M151.004,23.783L150.994,23.745C150.093,20.759 148.41,19.244 145.988,19.244L137.346,19.244C134.566,19.244 132.305,21.37 132.305,23.983L132.305,30.558C132.305,33.171 134.566,35.297 137.346,35.297L147.634,35.297C149.231,35.297 150.819,34.62 151.78,33.531C152.572,32.634 152.885,31.52 152.659,30.398L151.004,23.783L151.004,23.783ZM150.354,32.421C149.745,33.111 148.677,33.556 147.634,33.556L137.346,33.556C135.587,33.556 134.157,32.212 134.157,30.558L134.157,23.983C134.157,22.329 135.587,20.985 137.346,20.985L145.988,20.985C146.951,20.985 148.331,21.319 149.206,24.201L150.842,30.736C150.959,31.351 150.796,31.918 150.354,32.419L150.354,32.421Z" fill="#263544"/>
<path d="M150.72,58.506L120.576,58.506L120.576,5.385C120.576,1.037 117.134,0.074 116.988,0.035C116.494,-0.096 115.983,0.174 115.846,0.637C115.708,1.099 115.994,1.581 116.485,1.71C116.508,1.716 118.726,2.341 118.726,5.385L118.726,58.508L116.874,58.508L116.874,8.479C116.874,4.132 113.432,3.168 113.286,3.13C112.792,2.998 112.278,3.267 112.138,3.729C111.998,4.191 112.28,4.671 112.771,4.803C112.864,4.83 115.022,5.487 115.022,8.481L115.022,58.51L70.619,58.51L73.047,60.096C76.111,62.096 78.42,65.028 79.549,68.348L79.755,68.954L105.352,68.954L105.352,75.433C105.352,78.046 107.613,80.171 110.393,80.171L147.224,80.171C150.004,80.171 152.265,78.046 152.265,75.433L152.265,68.724C154.292,68.109 155.763,66.323 155.763,64.215L155.763,63.248C155.763,61.519 155.697,60.233 154.85,59.419C154.051,58.651 152.833,58.51 150.722,58.51L150.72,58.506ZM150.411,75.429C150.411,77.083 148.981,78.427 147.222,78.427L145.267,78.427L145.267,69.143C145.267,68.662 144.854,68.273 144.341,68.273C143.829,68.273 143.416,68.662 143.416,69.143L143.416,78.427L129.424,78.427L129.424,69.143C129.424,68.662 129.01,68.273 128.498,68.273C127.985,68.273 127.572,68.662 127.572,69.143L127.572,78.427L114.197,78.427L114.197,69.143C114.197,68.662 113.784,68.273 113.271,68.273C112.759,68.273 112.346,68.662 112.346,69.143L112.346,78.427L110.391,78.427C108.632,78.427 107.202,77.083 107.202,75.429L107.202,66.919C107.202,65.265 108.632,63.921 110.391,63.921L119.959,63.921L119.959,73.011C119.959,73.493 120.372,73.882 120.885,73.882C121.397,73.882 121.811,73.493 121.811,73.011L121.811,63.921L135.391,63.921L135.391,73.011C135.391,73.493 135.804,73.882 136.317,73.882C136.829,73.882 137.243,73.493 137.243,73.011L137.243,63.921L147.222,63.921C148.981,63.921 150.411,65.265 150.411,66.919L150.411,75.429ZM153.909,64.211C153.909,65.339 153.243,66.32 152.261,66.83C152.21,64.258 149.971,62.181 147.222,62.181L110.391,62.181C107.611,62.181 105.35,64.306 105.35,66.919L105.35,67.209L81.092,67.209C80.078,64.563 78.383,62.165 76.193,60.247L150.722,60.247C152.164,60.247 153.193,60.312 153.527,60.631C153.883,60.974 153.911,62.109 153.911,63.244L153.911,64.211L153.909,64.211Z" fill="#263544"/>
<path d="M141.975,37.424L133.539,37.424C133.027,37.424 132.613,37.813 132.613,38.294C132.613,38.776 133.027,39.164 133.539,39.164L141.975,39.164C142.488,39.164 142.901,38.776 142.901,38.294C142.901,37.813 142.488,37.424 141.975,37.424Z" fill="#263544"/>
<path d="M169.15,39.265L160.204,37.962C160.068,37.942 159.93,37.933 159.792,37.933C158.465,37.933 157.354,38.828 157.15,40.062C157.041,40.725 157.212,41.389 157.636,41.932C158.058,42.474 158.679,42.83 159.385,42.932L168.331,44.236C168.467,44.255 168.605,44.265 168.743,44.265C170.07,44.265 171.181,43.369 171.385,42.135C171.494,41.472 171.323,40.807 170.899,40.265C170.477,39.724 169.856,39.368 169.15,39.265ZM169.554,41.868C169.486,42.282 169.06,42.58 168.613,42.514L159.667,41.211C159.218,41.145 158.91,40.749 158.979,40.329C159.041,39.956 159.389,39.673 159.79,39.673C159.833,39.673 159.877,39.677 159.918,39.683L168.864,40.986C169.082,41.017 169.272,41.128 169.403,41.294C169.533,41.46 169.586,41.665 169.551,41.868L169.554,41.868Z" fill="#263544"/>
<path d="M83.951,84.616L72.148,84.616C75.646,81.9 77.881,77.792 77.881,73.205C77.881,65.047 70.819,58.409 62.14,58.409C53.461,58.409 46.399,65.047 46.399,73.205C46.399,77.792 48.632,81.9 52.132,84.616L47.325,84.616C46.813,84.616 46.399,85.005 46.399,85.486C46.399,85.968 46.813,86.356 47.325,86.356L54.733,86.356C54.792,86.356 54.852,86.351 54.908,86.339C57.074,87.397 59.533,88 62.14,88C64.747,88 67.179,87.405 69.338,86.356L83.951,86.356C84.463,86.356 84.877,85.968 84.877,85.486C84.877,85.005 84.463,84.616 83.951,84.616ZM48.251,73.205C48.251,66.006 54.482,60.15 62.14,60.15C69.799,60.15 76.029,66.006 76.029,73.205C76.029,80.403 69.799,86.26 62.14,86.26C54.482,86.26 48.251,80.403 48.251,73.205Z" fill="#263544"/>
<path d="M197.942,84.616L191.078,84.616C194.576,81.9 196.811,77.792 196.811,73.205C196.811,65.047 189.749,58.409 181.07,58.409C172.391,58.409 165.329,65.047 165.329,73.205C165.329,77.792 167.562,81.9 171.062,84.616L159.053,84.616C158.541,84.616 158.127,85.005 158.127,85.486C158.127,85.968 158.541,86.356 159.053,86.356L173.868,86.356C173.868,86.356 173.87,86.356 173.872,86.356C176.031,87.405 178.477,88 181.07,88C183.662,88 186.109,87.405 188.267,86.356L197.942,86.356C198.455,86.356 198.868,85.968 198.868,85.486C198.868,85.005 198.455,84.616 197.942,84.616ZM167.181,73.205C167.181,66.006 173.411,60.15 181.07,60.15C188.728,60.15 194.959,66.006 194.959,73.205C194.959,80.403 188.728,86.26 181.07,86.26C173.411,86.26 167.181,80.403 167.181,73.205Z" fill="#263544"/>
</svg>
