<svg width="82" height="1140" viewBox="0 0 82 1140" fill="none" xmlns="http://www.w3.org/2000/svg" xmlns:xlink="http://www.w3.org/1999/xlink">
<path d="M42,287.917C42,289.065 41.384,290 40.625,290L39.375,290C38.616,290 38,289.065 38,287.917L38,266.087C38,264.935 38.616,264 39.375,264L40.625,264C41.384,264 42,264.935 42,266.087L42,287.917Z" fill="#E52A2D"/>
<path d="M42,297.959C42,299.084 41.391,300 40.637,300L39.36,300C38.609,300 38,299.084 38,297.959L38,296.041C38,294.916 38.609,294 39.36,294L40.637,294C41.391,294 42,294.916 42,296.041L42,297.959Z" fill="#E52A2D"/>
<path d="M42,849.959C42,851.084 41.391,852 40.637,852L39.36,852C38.609,852 38,851.084 38,849.959L38,848.041C38,846.916 38.609,846 39.36,846L40.637,846C41.391,846 42,846.916 42,848.041L42,849.959Z" fill="#E52A2D"/>
<path d="M39.998,254C25.662,254 14,266.111 14,281.002C14,295.889 25.662,308 39.998,308C54.338,308 66,295.889 66,281.002C66,266.111 54.338,254 39.998,254ZM39.998,302.931C28.354,302.931 18.882,293.093 18.882,281.002C18.882,268.907 28.354,259.069 39.998,259.069C51.646,259.069 61.118,268.907 61.118,281.002C61.118,293.093 51.646,302.931 39.998,302.931Z" fill="#E52A2D"/>
<path d="M18.948,307.349C18.472,306.995 7.274,298.484 7.274,282.003C7.274,265.522 18.472,257.007 18.948,256.653C20.111,255.797 20.345,254.178 19.472,253.037C18.599,251.893 16.948,251.66 15.782,252.516C15.222,252.932 2,262.852 2,282.003C2,301.154 15.222,311.074 15.782,311.486C16.258,311.833 16.809,312 17.357,312C18.159,312 18.948,311.642 19.468,310.969C20.341,309.828 20.107,308.21 18.948,307.349Z" fill="#E52A2D"/>
<path d="M63.748,252.513C62.715,251.661 61.251,251.895 60.475,253.031C59.699,254.171 59.907,255.79 60.934,256.65C61.36,257.005 71.309,265.512 71.309,281.998C71.309,298.48 61.36,306.995 60.934,307.349C59.904,308.205 59.692,309.824 60.468,310.965C60.93,311.642 61.632,312 62.344,312C62.835,312 63.328,311.833 63.748,311.486C64.249,311.074 76,301.15 76,281.998C76,262.846 64.249,252.93 63.748,252.513L63.748,252.513Z" fill="#E52A2D"/>
<path d="M42,841.917C42,843.065 41.384,844 40.625,844L39.375,844C38.616,844 38,843.065 38,841.917L38,820.087C38,818.935 38.616,818 39.375,818L40.625,818C41.384,818 42,818.935 42,820.087L42,841.917Z" fill="#E52A2D"/>
<path d="M39.998,808C25.662,808 14,820.559 14,836.002C14,851.441 25.662,864 39.998,864C54.338,864 66,851.441 66,836.002C66,820.559 54.338,808 39.998,808ZM39.998,858.743C28.354,858.743 18.882,848.541 18.882,836.002C18.882,823.459 28.354,813.257 39.998,813.257C51.646,813.257 61.118,823.459 61.118,836.002C61.118,848.541 51.646,858.743 39.998,858.743Z" fill="#E52A2D"/>
<path d="M18.948,861.349C18.472,860.995 7.274,852.484 7.274,836.003C7.274,819.522 18.472,811.007 18.948,810.653C20.111,809.797 20.345,808.178 19.472,807.037C18.599,805.893 16.948,805.66 15.782,806.516C15.222,806.932 2,816.852 2,836.003C2,855.154 15.222,865.074 15.782,865.486C16.258,865.833 16.809,866 17.357,866C18.159,866 18.948,865.642 19.468,864.969C20.341,863.828 20.107,862.21 18.948,861.349Z" fill="#E52A2D"/>
<path d="M63.748,806.513C62.715,805.661 61.251,805.895 60.475,807.031C59.699,808.171 59.907,809.79 60.934,810.65C61.36,811.005 71.309,819.512 71.309,835.998C71.309,852.48 61.36,860.995 60.934,861.349C59.904,862.205 59.692,863.824 60.468,864.965C60.93,865.642 61.632,866 62.344,866C62.835,866 63.328,865.833 63.748,865.486C64.249,865.074 76,855.15 76,835.998C76,816.846 64.249,806.93 63.748,806.513L63.748,806.513Z" fill="#E52A2D"/>
<path d="M69.256,122.606L69.256,116L55.426,116L55.426,122.606L26.574,122.606L26.574,116L12.739,116L12.739,122.606L2,122.606L2,168L80,168L80,122.606L69.256,122.606L69.256,122.606ZM9.666,160.302L9.666,130.304L72.334,130.304L72.334,160.302L9.666,160.302Z" fill="#E52A2D"/>
<path d="M14,144L28,144L28,138L14,138L14,144Z" fill="#E52A2D"/>
<path d="M64.327,134L59.676,134L59.676,138.288L56,138.288L56,143.712L59.676,143.712L59.676,148L64.327,148L64.327,143.712L68,143.712L68,138.288L64.327,138.288L64.327,134Z" fill="#E52A2D"/>
<path d="M71.256,1094.606L71.256,1088L57.426,1088L57.426,1094.606L28.574,1094.606L28.574,1088L14.739,1088L14.739,1094.606L4,1094.606L4,1140L82,1140L82,1094.606L71.256,1094.606L71.256,1094.606ZM11.666,1132.302L11.666,1102.304L74.334,1102.304L74.334,1132.302L11.666,1132.302Z" fill="#E52A2D"/>
<path d="M16,1116L30,1116L30,1112L16,1112L16,1116Z" fill="#E52A2D"/>
<path d="M66.327,1108L61.676,1108L61.676,1112.288L58,1112.288L58,1117.712L61.676,1117.712L61.676,1122L66.327,1122L66.327,1117.712L70,1117.712L70,1112.288L66.327,1112.288L66.327,1108Z" fill="#E52A2D"/>
<path d="M73.644,10.777C74.132,10.06 74.118,9.071 73.604,8.37L69.925,3.344C69.426,2.663 68.577,2.41 67.825,2.721L43.809,12.628L39.789,9.466C39.477,9.218 39.098,9.085 38.706,9.085L33.469,9.085L33.469,7.212L34.707,7.212C35.723,7.212 36.547,6.321 36.547,5.223L36.547,1.986C36.547,0.888 35.723,0 34.707,0L27.525,0C26.508,0 25.687,0.888 25.687,1.986L25.687,5.223C25.687,6.321 26.508,7.212 27.525,7.212L28.915,7.212L28.915,9.085L21.383,9.085L21.383,8.445C21.383,7.647 20.941,6.924 20.258,6.615L11.761,2.744C11.299,2.537 10.779,2.537 10.317,2.753C9.858,2.966 9.498,3.372 9.325,3.88L6.118,13.121C5.79,14.06 6.166,15.115 6.988,15.579L17.705,21.624L17.705,28.014C17.705,29.112 18.529,30 19.545,30L47.555,30C48.014,30 48.457,29.816 48.795,29.481L68.367,10.163L71.504,11.46C72.278,11.777 73.153,11.501 73.644,10.777ZM10.133,12.87L12.097,7.212L17.705,9.763L17.705,17.139L10.133,12.87ZM46.843,26.028L21.383,26.028L21.383,13.057L38.108,13.057L42.451,16.476C42.953,16.871 43.609,16.966 44.188,16.727L64.938,8.166L46.843,26.028Z" fill="#E52A2D"/>
<path d="M73.001,14C73.001,14 70,20.676 70,22.571C70,24.465 71.345,26 73.001,26C74.655,26 76,24.465 76,22.571C76,20.676 73.001,14 73.001,14Z" fill="#E52A2D"/>
<path d="M73.644,694.777C74.132,694.06 74.118,693.071 73.604,692.37L69.925,687.344C69.426,686.663 68.577,686.41 67.825,686.721L43.809,696.628L39.789,693.466C39.477,693.218 39.098,693.085 38.706,693.085L33.469,693.085L33.469,691.212L34.707,691.212C35.723,691.212 36.547,690.321 36.547,689.223L36.547,685.986C36.547,684.888 35.723,684 34.707,684L27.525,684C26.508,684 25.687,684.888 25.687,685.986L25.687,689.223C25.687,690.321 26.508,691.212 27.525,691.212L28.915,691.212L28.915,693.085L21.383,693.085L21.383,692.445C21.383,691.647 20.941,690.924 20.258,690.615L11.761,686.744C11.299,686.537 10.779,686.537 10.317,686.753C9.858,686.966 9.498,687.372 9.325,687.88L6.118,697.121C5.79,698.06 6.166,699.115 6.988,699.579L17.705,705.624L17.705,712.014C17.705,713.112 18.529,714 19.545,714L47.555,714C48.014,714 48.457,713.816 48.795,713.481L68.367,694.163L71.504,695.46C72.278,695.777 73.153,695.501 73.644,694.777ZM10.133,696.87L12.097,691.212L17.705,693.763L17.705,701.139L10.133,696.87ZM46.843,710.028L21.383,710.028L21.383,697.057L38.108,697.057L42.451,700.476C42.953,700.871 43.609,700.966 44.188,700.727L64.938,692.166L46.843,710.028Z" fill="#E52A2D"/>
<path d="M73.001,700C73.001,700 70,705.563 70,707.142C70,708.721 71.345,710 73.001,710C74.655,710 76,708.721 76,707.142C76,705.563 73.001,700 73.001,700Z" fill="#E52A2D"/>
<path d="M79.286,407.191C79.5,404.434 79.238,401.122 77.255,400.069C75.017,398.879 72.678,398.639 70.415,398.406C68.475,398.207 66.64,398.022 65.095,397.223C64.359,396.842 63.532,396.235 62.662,395.587C60.997,394.363 59.274,393.091 57.28,392.669C55.14,392.213 52.678,392 49.537,392C47.963,392 46.397,392.055 44.877,392.099C43.684,392.141 42.563,392.175 41.465,392.189C36.656,392.24 33.457,392.933 28.794,394.922C25.845,396.18 22.995,397.439 20.598,398.498C18.675,399.352 17.562,399.486 15.121,399.774L14.842,399.808C10.57,400.316 3.419,401.17 0.615,405.549C-0.357,407.071 -0.172,408.728 1.13,410.103C2.465,411.515 4.434,412.15 6.182,412.582C7.042,412.795 7.966,412.966 9.004,413.117C9.105,413.131 9.196,413.151 9.29,413.165C10.012,415.939 12.655,418 15.8,418C18.752,418 21.261,416.203 22.164,413.683L22.182,413.686C24.028,413.714 25.881,413.734 27.727,413.755C34.24,413.823 39.539,413.858 44.398,413.858C48.253,413.858 51.829,413.837 55.278,413.796C56.282,416.138 58.712,417.757 61.494,417.757C64.366,417.757 66.865,416.008 67.804,413.556C68.185,413.556 68.609,413.559 69.059,413.559C75.242,413.559 77.766,412.959 78.535,411.275L78.575,411.186C78.654,411.025 78.727,410.836 78.796,410.631L80,406.893L79.286,407.191L79.286,407.191ZM18.741,411.786C18.657,413.268 17.37,414.427 15.8,414.427C14.182,414.427 12.866,413.179 12.866,411.649L12.866,411.594C12.88,410.95 13.127,410.356 13.537,409.89C14.135,409.235 15.034,408.933 15.858,408.933C16.231,408.933 17.018,409.002 17.704,409.533C17.903,409.695 18.084,409.88 18.233,410.085C18.237,410.096 18.248,410.106 18.251,410.116C18.295,410.175 18.331,410.236 18.367,410.295C18.396,410.343 18.418,410.391 18.44,410.432C18.451,410.456 18.469,410.48 18.48,410.507C18.578,410.734 18.617,410.932 18.654,411.162C18.675,411.299 18.708,411.43 18.737,411.553C18.737,411.581 18.741,411.615 18.741,411.649L18.741,411.786L18.741,411.786ZM64.428,411.581L64.42,411.649C64.286,413.076 63.006,414.183 61.494,414.183C60.018,414.183 58.767,413.144 58.578,411.731C58.564,411.635 58.556,411.529 58.556,411.406C58.556,410.607 58.919,409.883 59.492,409.379C60.029,409.016 60.75,408.813 61.53,408.813C62.226,408.813 62.879,408.985 63.38,409.28C64.025,409.791 64.431,410.552 64.431,411.406C64.431,411.467 64.431,411.526 64.428,411.581L64.428,411.581ZM75.173,409.523C74.64,409.691 73.128,409.986 69.059,409.986C68.721,409.986 68.402,409.983 68.109,409.983C67.855,408.745 67.249,407.856 66.687,407.274C66.35,406.917 65.962,406.608 65.53,406.341C64.406,405.538 63.013,405.051 61.494,405.051C59.811,405.051 58.277,405.652 57.091,406.619C56.772,406.855 56.471,407.112 56.203,407.407C55.637,408.021 55.042,408.947 54.832,410.229C51.521,410.264 48.094,410.281 44.398,410.281C39.55,410.281 34.266,410.253 27.767,410.181C25.95,410.161 24.13,410.14 22.313,410.116C22.248,409.859 22.164,409.609 22.066,409.369C22.063,409.362 22.059,409.352 22.055,409.345C22.016,409.242 21.972,409.142 21.925,409.043C21.874,408.944 21.823,408.841 21.765,408.731C21.733,408.673 21.704,408.621 21.667,408.563C21.646,408.522 21.627,408.484 21.602,408.443C21.417,408.148 21.218,407.877 20.993,407.623C20.986,407.613 20.982,407.603 20.971,407.599C20.717,407.311 20.442,407.047 20.144,406.811C20.083,406.759 20.017,406.715 19.956,406.663C19.901,406.625 19.85,406.591 19.8,406.557C18.679,405.768 17.301,405.298 15.8,405.298C13.939,405.298 12.238,406.039 11.013,407.226C10.324,407.877 9.787,408.669 9.457,409.568C8.594,409.441 7.836,409.297 7.132,409.122C5.935,408.827 4.612,408.429 3.948,407.726C3.832,407.599 3.796,407.527 3.781,407.524C3.789,407.507 3.803,407.462 3.847,407.397C5.707,404.499 11.72,403.779 15.314,403.354L15.597,403.32C18.182,403.008 19.742,402.822 22.204,401.735C24.587,400.679 27.419,399.424 30.346,398.179C34.578,396.372 37.185,395.81 41.508,395.758C42.65,395.748 43.793,395.714 45.004,395.673C46.491,395.625 48.029,395.577 49.537,395.577C52.395,395.577 54.589,395.758 56.453,396.153C57.617,396.403 58.999,397.418 60.333,398.406C61.291,399.109 62.281,399.839 63.282,400.357C65.487,401.495 67.786,401.729 70.009,401.962C71.906,402.157 73.704,402.339 75.227,403.093C75.757,404.112 75.583,407.946 75.173,409.523L75.173,409.523Z" fill="#FAB639"/>
<path d="M43.746,441.314L43.746,423.365L50.771,423.365L50.771,418L29.229,418L29.229,423.365L36.254,423.365L36.254,441.314L14,441.314L14,444L66,444L66,441.314L43.746,441.314ZM37.835,441.314L37.835,423.365L42.168,423.365L42.168,441.314L37.835,441.314Z" fill="#FAB639"/>
<path d="M79.286,960.36C79.5,957.391 79.238,953.823 77.255,952.69C75.017,951.408 72.678,951.15 70.415,950.898C68.475,950.684 66.64,950.485 65.095,949.624C64.359,949.214 63.532,948.561 62.662,947.863C60.997,946.544 59.274,945.174 57.28,944.72C55.14,944.229 52.678,944 49.537,944C47.963,944 46.397,944.059 44.877,944.107C43.684,944.151 42.563,944.188 41.465,944.203C36.656,944.259 33.457,945.004 28.794,947.146C25.845,948.502 22.995,949.857 20.598,950.998C18.675,951.918 17.562,952.062 15.121,952.372L14.842,952.409C10.57,952.955 3.419,953.875 0.615,958.591C-0.357,960.231 -0.172,962.014 1.13,963.495C2.465,965.017 4.434,965.7 6.182,966.165C7.042,966.394 7.966,966.579 9.004,966.741C9.105,966.756 9.196,966.778 9.29,966.793C10.012,969.781 12.655,972 15.8,972C18.752,972 21.261,970.065 22.164,967.351L22.182,967.354C24.028,967.384 25.881,967.406 27.727,967.428C34.24,967.502 39.539,967.539 44.398,967.539C48.253,967.539 51.829,967.517 55.278,967.472C56.282,969.995 58.712,971.738 61.494,971.738C64.366,971.738 66.865,969.854 67.804,967.214C68.185,967.214 68.609,967.218 69.059,967.218C75.242,967.218 77.766,966.571 78.535,964.758L78.575,964.662C78.654,964.489 78.727,964.285 78.796,964.064L80,960.039L79.286,960.36L79.286,960.36ZM18.741,965.308C18.657,966.904 17.37,968.152 15.8,968.152C14.182,968.152 12.866,966.808 12.866,965.161L12.866,965.102C12.88,964.407 13.127,963.768 13.537,963.266C14.135,962.561 15.034,962.236 15.858,962.236C16.231,962.236 17.018,962.31 17.704,962.882C17.903,963.056 18.084,963.255 18.233,963.477C18.237,963.488 18.248,963.499 18.251,963.51C18.295,963.573 18.331,963.639 18.367,963.702C18.396,963.754 18.418,963.805 18.44,963.85C18.451,963.875 18.469,963.901 18.48,963.931C18.578,964.175 18.617,964.389 18.654,964.636C18.675,964.784 18.708,964.924 18.737,965.057C18.737,965.087 18.741,965.124 18.741,965.161L18.741,965.308L18.741,965.308ZM64.428,965.087L64.42,965.161C64.286,966.697 63.006,967.89 61.494,967.89C60.018,967.89 58.767,966.771 58.578,965.249C58.564,965.146 58.556,965.031 58.556,964.898C58.556,964.038 58.919,963.259 59.492,962.716C60.029,962.324 60.75,962.107 61.53,962.107C62.226,962.107 62.879,962.291 63.38,962.609C64.025,963.159 64.431,963.979 64.431,964.898C64.431,964.965 64.431,965.028 64.428,965.087L64.428,965.087ZM75.173,962.871C74.64,963.052 73.128,963.37 69.059,963.37C68.721,963.37 68.402,963.366 68.109,963.366C67.855,962.033 67.249,961.076 66.687,960.448C66.35,960.064 65.962,959.732 65.53,959.444C64.406,958.58 63.013,958.055 61.494,958.055C59.811,958.055 58.277,958.702 57.091,959.743C56.772,959.998 56.471,960.275 56.203,960.592C55.637,961.254 55.042,962.251 54.832,963.632C51.521,963.669 48.094,963.687 44.398,963.687C39.55,963.687 34.266,963.658 27.767,963.58C25.95,963.558 24.13,963.536 22.313,963.51C22.248,963.233 22.164,962.963 22.066,962.705C22.063,962.697 22.059,962.686 22.055,962.679C22.016,962.568 21.972,962.461 21.925,962.354C21.874,962.247 21.823,962.136 21.765,962.018C21.733,961.955 21.704,961.9 21.667,961.837C21.646,961.793 21.627,961.752 21.602,961.708C21.417,961.39 21.218,961.098 20.993,960.825C20.986,960.814 20.982,960.803 20.971,960.799C20.717,960.489 20.442,960.205 20.144,959.95C20.083,959.895 20.017,959.846 19.956,959.791C19.901,959.75 19.85,959.714 19.8,959.677C18.679,958.827 17.301,958.321 15.8,958.321C13.939,958.321 12.238,959.119 11.013,960.397C10.324,961.098 9.787,961.951 9.457,962.919C8.594,962.782 7.836,962.627 7.132,962.439C5.935,962.121 4.612,961.693 3.948,960.936C3.832,960.799 3.796,960.722 3.781,960.718C3.789,960.7 3.803,960.652 3.847,960.581C5.707,957.461 11.72,956.685 15.314,956.227L15.597,956.19C18.182,955.854 19.742,955.655 22.204,954.484C24.587,953.347 27.419,951.995 30.346,950.655C34.578,948.709 37.185,948.103 41.508,948.048C42.65,948.036 43.793,947.999 45.004,947.955C46.491,947.903 48.029,947.852 49.537,947.852C52.395,947.852 54.589,948.047 56.453,948.472C57.617,948.742 58.999,949.835 60.333,950.898C61.291,951.656 62.281,952.442 63.282,953C65.487,954.226 67.786,954.477 70.009,954.728C71.906,954.939 73.704,955.134 75.227,955.947C75.757,957.043 75.583,961.172 75.173,962.871L75.173,962.871Z" fill="#FAB639"/>
<path d="M43.746,993.314L43.746,975.365L50.771,975.365L50.771,970L29.229,970L29.229,975.365L36.254,975.365L36.254,993.314L14,993.314L14,996L66,996L66,993.314L43.746,993.314ZM37.835,993.314L37.835,975.365L42.168,975.365L42.168,993.314L37.835,993.314Z" fill="#FAB639"/>
<path d="M79.286,561.191C79.5,558.434 79.238,555.122 77.255,554.069C75.017,552.879 72.678,552.639 70.415,552.406C68.475,552.207 66.64,552.022 65.095,551.223C64.359,550.842 63.532,550.235 62.662,549.587C60.997,548.363 59.274,547.091 57.28,546.669C55.14,546.213 52.678,546 49.537,546C47.963,546 46.397,546.055 44.877,546.099C43.684,546.141 42.563,546.175 41.465,546.189C36.656,546.24 33.457,546.933 28.794,548.922C25.845,550.18 22.995,551.439 20.598,552.498C18.675,553.352 17.562,553.486 15.121,553.774L14.842,553.808C10.57,554.316 3.419,555.17 0.615,559.549C-0.357,561.071 -0.172,562.728 1.13,564.103C2.465,565.515 4.434,566.15 6.182,566.582C7.042,566.795 7.966,566.966 9.004,567.117C9.105,567.131 9.196,567.151 9.29,567.165C10.012,569.939 12.655,572 15.8,572C18.752,572 21.261,570.203 22.164,567.683L22.182,567.686C24.028,567.714 25.881,567.734 27.727,567.755C34.24,567.823 39.539,567.858 44.398,567.858C48.253,567.858 51.829,567.837 55.278,567.796C56.282,570.138 58.712,571.757 61.494,571.757C64.366,571.757 66.865,570.008 67.804,567.556C68.185,567.556 68.609,567.559 69.059,567.559C75.242,567.559 77.766,566.959 78.535,565.275L78.575,565.186C78.654,565.025 78.727,564.836 78.796,564.631L80,560.893L79.286,561.191L79.286,561.191ZM18.741,565.786C18.657,567.268 17.37,568.427 15.8,568.427C14.182,568.427 12.866,567.179 12.866,565.649L12.866,565.594C12.88,564.95 13.127,564.356 13.537,563.89C14.135,563.235 15.034,562.933 15.858,562.933C16.231,562.933 17.018,563.002 17.704,563.533C17.903,563.695 18.084,563.88 18.233,564.085C18.237,564.096 18.248,564.106 18.251,564.116C18.295,564.175 18.331,564.236 18.367,564.295C18.396,564.343 18.418,564.391 18.44,564.432C18.451,564.456 18.469,564.48 18.48,564.507C18.578,564.734 18.617,564.932 18.654,565.162C18.675,565.299 18.708,565.43 18.737,565.553C18.737,565.581 18.741,565.615 18.741,565.649L18.741,565.786L18.741,565.786ZM64.428,565.581L64.42,565.649C64.286,567.076 63.006,568.183 61.494,568.183C60.018,568.183 58.767,567.144 58.578,565.731C58.564,565.635 58.556,565.529 58.556,565.406C58.556,564.607 58.919,563.883 59.492,563.379C60.029,563.016 60.75,562.813 61.53,562.813C62.226,562.813 62.879,562.985 63.38,563.28C64.025,563.791 64.431,564.552 64.431,565.406C64.431,565.467 64.431,565.526 64.428,565.581L64.428,565.581ZM75.173,563.523C74.64,563.691 73.128,563.986 69.059,563.986C68.721,563.986 68.402,563.983 68.109,563.983C67.855,562.745 67.249,561.856 66.687,561.274C66.35,560.917 65.962,560.608 65.53,560.341C64.406,559.538 63.013,559.051 61.494,559.051C59.811,559.051 58.277,559.652 57.091,560.619C56.772,560.855 56.471,561.112 56.203,561.407C55.637,562.021 55.042,562.947 54.832,564.229C51.521,564.264 48.094,564.281 44.398,564.281C39.55,564.281 34.266,564.253 27.767,564.181C25.95,564.161 24.13,564.14 22.313,564.116C22.248,563.859 22.164,563.609 22.066,563.369C22.063,563.362 22.059,563.352 22.055,563.345C22.016,563.242 21.972,563.142 21.925,563.043C21.874,562.944 21.823,562.841 21.765,562.731C21.733,562.673 21.704,562.621 21.667,562.563C21.646,562.522 21.627,562.484 21.602,562.443C21.417,562.148 21.218,561.877 20.993,561.623C20.986,561.613 20.982,561.603 20.971,561.599C20.717,561.311 20.442,561.047 20.144,560.811C20.083,560.759 20.017,560.715 19.956,560.663C19.901,560.625 19.85,560.591 19.8,560.557C18.679,559.768 17.301,559.298 15.8,559.298C13.939,559.298 12.238,560.039 11.013,561.226C10.324,561.877 9.787,562.669 9.457,563.568C8.594,563.441 7.836,563.297 7.132,563.122C5.935,562.827 4.612,562.429 3.948,561.726C3.832,561.599 3.796,561.527 3.781,561.524C3.789,561.507 3.803,561.462 3.847,561.397C5.707,558.499 11.72,557.779 15.314,557.354L15.597,557.32C18.182,557.008 19.742,556.822 22.204,555.735C24.587,554.679 27.419,553.424 30.346,552.179C34.578,550.372 37.185,549.81 41.508,549.758C42.65,549.748 43.793,549.714 45.004,549.673C46.491,549.625 48.029,549.577 49.537,549.577C52.395,549.577 54.589,549.758 56.453,550.153C57.617,550.403 58.999,551.418 60.333,552.406C61.291,553.109 62.281,553.839 63.282,554.357C65.487,555.495 67.786,555.729 70.009,555.962C71.906,556.157 73.704,556.339 75.227,557.093C75.757,558.112 75.583,561.946 75.173,563.523L75.173,563.523Z" fill="#FAB639"/>
<path d="M43.746,595.314L43.746,577.365L50.771,577.365L50.771,572L29.229,572L29.229,577.365L36.254,577.365L36.254,595.314L14,595.314L14,598L66,598L66,595.314L43.746,595.314ZM37.835,595.314L37.835,577.365L42.168,577.365L42.168,595.314L37.835,595.314Z" fill="#FAB639"/>
</svg>
