<svg width="212" height="86" viewBox="0 0 212 86" fill="none" xmlns="http://www.w3.org/2000/svg" xmlns:xlink="http://www.w3.org/1999/xlink">
<path d="M27.917,5.344L32.858,2.915L56.574,2.915L94.126,3.401L123.525,2.915L133.654,25.261L58.057,27.447L23.47,26.232L27.917,5.344Z" fill="#767F89"/>
<path d="M36.934,15.059C36.627,15.059 36.321,14.935 36.101,14.693C35.694,14.241 35.736,13.551 36.193,13.15L47.703,3.092C48.162,2.691 48.864,2.733 49.271,3.182C49.679,3.634 49.637,4.324 49.18,4.724L37.67,14.782C37.458,14.967 37.196,15.059 36.931,15.059L36.934,15.059Z" fill="#A8AEB4"/>
<path d="M32.141,30.505C31.835,30.505 31.528,30.381 31.311,30.138C30.903,29.686 30.945,28.997 31.402,28.596L51.413,11.108C51.873,10.707 52.575,10.748 52.982,11.198C53.39,11.649 53.348,12.339 52.891,12.74L32.88,30.228C32.667,30.413 32.405,30.505 32.141,30.505Z" fill="#A8AEB4"/>
<path d="M105.119,15.059C104.813,15.059 104.507,14.935 104.287,14.693C103.879,14.241 103.921,13.551 104.378,13.15L115.888,3.092C116.348,2.691 117.049,2.733 117.457,3.182C117.865,3.634 117.823,4.324 117.366,4.724L105.856,14.782C105.643,14.967 105.381,15.059 105.117,15.059L105.119,15.059Z" fill="#A8AEB4"/>
<path d="M100.326,30.505C100.02,30.505 99.714,30.381 99.494,30.138C99.086,29.686 99.128,28.997 99.585,28.596L119.596,11.108C120.056,10.707 120.757,10.748 121.165,11.198C121.573,11.649 121.531,12.339 121.074,12.74L101.063,30.228C100.85,30.413 100.588,30.505 100.324,30.505L100.326,30.505Z" fill="#A8AEB4"/>
<path d="M52.893,30.262C52.587,30.262 52.281,30.138 52.063,29.895C51.656,29.443 51.698,28.753 52.155,28.353L72.166,10.865C72.625,10.464 73.327,10.505 73.734,10.954C74.142,11.406 74.1,12.096 73.643,12.497L53.632,29.985C53.419,30.17 53.158,30.262 52.893,30.262L52.893,30.262Z" fill="#A8AEB4"/>
<path d="M79.821,17.146C79.515,17.146 79.211,17.022 78.991,16.779C78.584,16.327 78.623,15.638 79.083,15.237L91.556,4.307C92.016,3.906 92.717,3.945 93.125,4.397C93.533,4.849 93.493,5.538 93.034,5.939L80.56,16.869C80.348,17.054 80.083,17.146 79.821,17.146L79.821,17.146Z" fill="#A8AEB4"/>
<path d="M16.552,8.744L4.694,8.744C2.647,8.744 0.988,10.375 0.988,12.387L0.988,44.449C0.988,46.461 2.647,48.092 4.694,48.092L16.552,48.092C18.599,48.092 20.258,46.461 20.258,44.449L20.258,12.387C20.258,10.375 18.599,8.744 16.552,8.744Z" fill="#68727C"/>
<path d="M188.036,29.026C188.036,27.015 186.376,25.382 184.331,25.382L138.014,23.014L124.303,1.215L27.455,1.215C25.409,1.215 23.858,2.786 23.858,4.797L17.543,32.448L17.543,55.015C17.543,57.026 18.988,58.78 21.034,58.78L21.348,58.78C24.532,51.25 29.016,41.175 29.928,39.106C31.368,35.827 33.935,35.462 35.98,35.462L56.238,35.462C58.284,35.462 59.862,35.989 62.044,39.106C63.425,41.078 70.466,51.25 75.459,58.78L146.848,58.78C150.033,51.25 154.517,41.175 155.428,39.106C156.869,35.827 159.435,35.462 161.481,35.462L181.739,35.462C183.785,35.462 185.363,35.929 187.545,39.045C187.942,39.611 188.81,40.845 189.961,42.528L188.039,29.026L188.036,29.026ZM58.304,20.525C58.304,22.536 56.428,24.289 54.383,24.289L33.631,24.289C31.585,24.289 29.554,22.813 29.925,20.585L32.148,8.956C32.519,6.811 34.508,5.342 36.553,5.342L54.383,5.342C56.428,5.342 58.304,6.852 58.304,8.863L58.304,20.522L58.304,20.525ZM89.432,20.646C89.432,22.657 87.772,24.289 85.726,24.289L68.186,24.289C66.14,24.289 64.48,22.657 64.48,20.646L64.48,8.987C64.48,6.976 66.14,5.344 68.186,5.344L85.726,5.344C87.772,5.344 89.432,6.976 89.432,8.987L89.432,20.646ZM125.533,24.289L102.557,24.289C100.512,24.289 99.067,22.536 99.067,20.525L99.067,8.866C99.067,6.855 100.512,5.344 102.557,5.344L119.727,5.344C121.773,5.344 123.433,6.862 124.298,8.927L129.239,20.614C129.775,22.516 127.579,24.287 125.533,24.287L125.533,24.289Z" fill="#F26A21"/>
<path d="M187.349,26.92C186.677,25.992 185.578,25.382 184.33,25.382L138.014,23.014L124.302,1.215L27.454,1.215C25.409,1.215 23.798,2.786 23.798,4.797L17.654,31.452C22.914,32.978 28.539,34.352 34.478,35.557C34.992,35.484 35.501,35.465 35.978,35.465L56.236,35.465C58.281,35.465 59.86,35.992 62.041,39.108C62.147,39.259 62.288,39.463 62.456,39.703C73.057,40.752 84.236,41.311 95.791,41.311C132.171,41.311 164.858,35.751 187.349,26.92L187.349,26.92ZM99.066,8.866C99.066,6.855 100.512,5.344 102.557,5.344L119.727,5.344C121.773,5.344 123.433,6.862 124.298,8.927L129.239,20.614C129.775,22.516 127.578,24.287 125.533,24.287L102.557,24.287C100.512,24.287 99.066,22.533 99.066,20.522L99.066,8.863L99.066,8.866ZM58.303,20.525C58.303,22.536 56.428,24.289 54.383,24.289L33.631,24.289C31.585,24.289 29.554,22.813 29.925,20.585L32.148,8.956C32.519,6.811 34.508,5.342 36.553,5.342L54.383,5.342C56.428,5.342 58.303,6.852 58.303,8.863L58.303,20.522L58.303,20.525ZM89.432,20.646C89.432,22.657 87.771,24.289 85.726,24.289L68.185,24.289C66.14,24.289 64.48,22.657 64.48,20.646L64.48,8.987C64.48,6.976 66.14,5.344 68.185,5.344L85.726,5.344C87.771,5.344 89.432,6.976 89.432,8.987L89.432,20.646Z" fill="#F58C55"/>
<path d="M48.175,84.846C59.946,84.846 69.488,75.304 69.488,63.533C69.488,51.762 59.946,42.22 48.175,42.22C36.404,42.22 26.862,51.762 26.862,63.533C26.862,75.304 36.404,84.846 48.175,84.846Z" transform="rotate(-89.027 48.175 63.533)" fill="#68727C"/>
<path d="M172.686,84.846C184.457,84.846 193.999,75.304 193.999,63.533C193.999,51.762 184.457,42.22 172.686,42.22C160.915,42.22 151.373,51.762 151.373,63.533C151.373,75.304 160.915,84.846 172.686,84.846Z" transform="rotate(-89.027 172.686 63.533)" fill="#68727C"/>
<path d="M47.809,75.539C54.495,75.539 59.914,70.21 59.914,63.637C59.914,57.064 54.495,51.735 47.809,51.735C41.123,51.735 35.704,57.064 35.704,63.637C35.704,70.21 41.123,75.539 47.809,75.539Z" fill="#BDC2C7"/>
<path d="M173.062,75.539C179.748,75.539 185.168,70.21 185.168,63.637C185.168,57.064 179.748,51.735 173.062,51.735C166.377,51.735 160.957,57.064 160.957,63.637C160.957,70.21 166.377,75.539 173.062,75.539Z" fill="#BDC2C7"/>
<path d="M18.576,29.47L17.259,33.196L17.422,41.454L24.176,41.291L24.613,29.632L18.576,29.47Z" fill="#FBD4BF"/>
<path d="M181.581,25.018L181.581,35.948L186.134,36.919L189.563,40.482L187.364,26.919L185.811,26.069L181.581,25.018Z" fill="#FFFFFF"/>
<path d="M210.888,79.911L188.16,79.911C187.544,79.911 187.048,79.422 187.048,78.818C187.048,78.213 187.544,77.725 188.16,77.725L210.888,77.725C211.503,77.725 212,78.213 212,78.818C212,79.422 211.503,79.911 210.888,79.911Z" fill="#263544"/>
<path d="M47.782,50.729C40.565,50.729 34.696,56.501 34.696,63.595C34.696,70.69 40.565,76.461 47.782,76.461C54.998,76.461 60.868,70.688 60.868,63.595C60.868,56.503 54.998,50.729 47.782,50.729L47.782,50.729ZM47.782,74.278C41.791,74.278 36.919,69.485 36.919,63.598C36.919,57.71 41.793,52.918 47.782,52.918C53.77,52.918 58.645,57.71 58.645,63.598C58.645,69.485 53.77,74.278 47.782,74.278L47.782,74.278Z" fill="#263544"/>
<path d="M191.058,42.345L189.148,28.943C189.104,26.378 186.976,24.304 184.363,24.287L138.654,21.889L125.249,0.52C125.046,0.197 124.688,0 124.303,0L27.455,0C24.843,0 22.709,2.055 22.64,4.605L21.175,10.915C20.582,8.96 18.739,7.53 16.56,7.53L4.699,7.53C2.043,7.53 0,9.655 0,12.266L0,44.327C0,46.938 2.043,49.064 4.699,49.064L16.305,49.064L16.305,55.015C16.305,57.626 18.376,59.751 21.031,59.751L21.345,59.751C21.79,59.751 22.192,59.491 22.368,59.088C27.447,47.427 30.254,40.993 30.945,39.416C32.035,36.939 33.744,36.431 35.978,36.431L56.236,36.431C57.8,36.431 59.067,36.659 61.125,39.601C62.464,41.512 69.154,51.347 74.532,59.263C74.737,59.566 75.086,59.748 75.456,59.748L146.846,59.748C147.291,59.748 147.693,59.489 147.869,59.085C152.948,47.424 155.754,40.99 156.446,39.414C157.536,36.936 159.245,36.429 161.479,36.429L181.737,36.429C183.3,36.429 184.568,36.657 186.626,39.598C186.996,40.125 187.782,41.272 189.034,43.103C189.323,43.526 189.872,43.696 190.354,43.514C190.838,43.332 191.129,42.846 191.058,42.341L191.058,42.345ZM16.347,32.205C16.33,32.285 16.305,32.365 16.305,32.448L16.305,46.878L4.699,46.878C3.268,46.878 2.223,45.734 2.223,44.327L2.223,12.266C2.223,10.86 3.268,9.716 4.699,9.716L16.557,9.716C17.988,9.716 19.27,10.86 19.27,12.266L19.27,19.618L16.347,32.205ZM181.737,34.247L161.479,34.247C159.255,34.247 156.1,34.694 154.406,38.549C153.726,40.099 151.011,46.319 146.115,57.565L76.052,57.565C70.73,49.732 64.275,40.247 62.958,38.364C60.559,34.937 58.607,34.247 56.236,34.247L35.978,34.247C33.754,34.247 30.599,34.694 28.905,38.549C28.225,40.096 25.562,46.309 20.673,57.533C19.435,57.341 18.529,56.285 18.529,55.015L18.529,32.569L18.949,30.361L22.481,30.361L22.481,39.834L20.167,39.834C19.551,39.834 19.055,40.322 19.055,40.927C19.055,41.532 19.551,42.02 20.167,42.02L24.705,42.02L24.705,30.361L38.448,30.361C39.063,30.361 39.56,29.873 39.56,29.268C39.56,28.663 39.063,28.175 38.448,28.175L19.455,28.175L24.831,4.979C24.848,4.899 24.858,4.819 24.858,4.736C24.858,3.33 26.022,2.186 27.452,2.186L93.073,2.186C93.056,2.264 93.135,2.346 93.135,2.429L93.135,43.883C93.135,46.591 92.688,48.211 91.789,49.141C90.852,50.111 89.083,50.562 86.272,50.562C85.659,50.562 85.148,51.051 85.148,51.655C85.148,52.26 85.686,52.748 86.299,52.748C92.957,52.748 95.356,50.429 95.356,43.883L95.356,2.429C95.356,2.346 95.252,2.264 95.235,2.186L123.678,2.186L137.063,23.526C137.253,23.832 137.631,24.024 137.997,24.044L180.343,26.261L180.343,31.816C180.343,32.421 180.84,32.909 181.455,32.909C182.07,32.909 182.567,32.421 182.567,31.816L182.567,26.378L184.316,26.473C184.335,26.473 184.333,26.473 184.353,26.473C185.783,26.473 186.934,27.617 186.934,29.023C186.934,29.074 186.934,29.125 186.939,29.173L188.194,37.99C185.914,34.884 184.017,34.245 181.737,34.245L181.737,34.247Z" fill="#263544"/>
<path d="M97.74,30.361L108.116,30.361C108.731,30.361 109.228,29.873 109.228,29.268C109.228,28.663 108.731,28.175 108.116,28.175L97.74,28.175C97.125,28.175 96.628,28.663 96.628,29.268C96.628,29.873 97.125,30.361 97.74,30.361Z" fill="#263544"/>
<path d="M76.247,28.175L65.871,28.175C65.255,28.175 64.759,28.663 64.759,29.268C64.759,29.873 65.255,30.361 65.871,30.361L76.247,30.361C76.862,30.361 77.358,29.873 77.358,29.268C77.358,28.663 76.862,28.175 76.247,28.175Z" fill="#263544"/>
<path d="M128.868,50.035L108.363,50.035C107.748,50.035 107.251,50.524 107.251,51.128C107.251,51.733 107.748,52.221 108.363,52.221L128.868,52.221C131.403,52.221 133.441,51.481 134.832,50.018C136.907,47.837 136.865,44.835 136.865,44.42L136.865,29.39C136.865,28.785 136.368,28.297 135.753,28.297C135.138,28.297 134.642,28.785 134.642,29.39L134.642,44.449C134.642,44.471 134.597,44.495 134.597,44.517C134.597,44.541 134.701,46.944 133.172,48.537C132.218,49.53 130.753,50.035 128.865,50.035L128.868,50.035Z" fill="#263544"/>
<path d="M90.42,8.865C90.42,6.249 88.263,4.129 85.602,4.129L68.062,4.129C65.401,4.129 63.244,6.249 63.244,8.865L63.244,20.524C63.244,23.14 65.401,25.26 68.062,25.26L85.602,25.26C88.263,25.26 90.42,23.14 90.42,20.524L90.42,8.865ZM88.196,20.524C88.196,21.933 87.035,23.074 85.602,23.074L68.062,23.074C66.629,23.074 65.468,21.933 65.468,20.524L65.468,8.865C65.468,7.457 66.629,6.315 68.062,6.315L85.602,6.315C87.035,6.315 88.196,7.457 88.196,8.865L88.196,20.524Z" fill="#263544"/>
<path d="M33.631,25.26L54.383,25.26C57.039,25.26 59.292,23.135 59.292,20.524L59.292,8.865C59.292,6.254 57.039,4.129 54.383,4.129L36.553,4.129C33.866,4.129 31.501,6.087 31.054,8.664L28.831,20.322C28.831,20.322 28.828,20.339 28.826,20.347C28.628,21.537 28.944,22.686 29.718,23.58C30.627,24.631 32.089,25.258 33.628,25.258L33.631,25.26ZM31.02,20.711L33.243,9.047C33.507,7.515 34.962,6.315 36.553,6.315L54.383,6.315C55.813,6.315 57.068,7.459 57.068,8.865L57.068,20.524C57.068,21.93 55.813,23.074 54.383,23.074L33.631,23.074C32.749,23.074 31.899,22.727 31.415,22.166C31.064,21.76 30.931,21.27 31.022,20.711L31.02,20.711Z" fill="#263544"/>
<path d="M102.557,25.26L125.533,25.26C127.102,25.26 128.717,24.483 129.649,23.278C130.368,22.351 130.602,21.27 130.311,20.233C130.298,20.189 130.284,20.145 130.266,20.104L125.328,8.45C124.211,5.785 122.067,4.129 119.73,4.129L102.56,4.129C99.904,4.129 97.834,6.254 97.834,8.865L97.834,20.524C97.834,23.135 99.904,25.26 102.56,25.26L102.557,25.26ZM100.055,8.865C100.055,7.459 101.127,6.315 102.557,6.315L119.727,6.315C121.422,6.315 122.67,7.848 123.27,9.285L128.179,20.871C128.26,21.228 128.159,21.593 127.877,21.955C127.366,22.613 126.403,23.074 125.53,23.074L102.555,23.074C101.124,23.074 100.052,21.93 100.052,20.524L100.052,8.865L100.055,8.865Z" fill="#263544"/>
<path d="M85.635,77.725L65.456,77.725C68.652,73.868 70.572,68.947 70.572,63.596C70.572,51.243 60.349,41.189 47.782,41.189C35.214,41.189 24.992,51.24 24.992,63.596C24.992,68.949 26.911,73.868 30.108,77.725L9.297,77.725C8.681,77.725 8.185,78.213 8.185,78.818C8.185,79.423 8.681,79.911 9.297,79.911L32.025,79.911C32.074,79.911 32.119,79.904 32.166,79.896C36.247,83.678 41.744,86 47.782,86C53.82,86 59.304,83.683 63.383,79.911L85.632,79.911C86.247,79.911 86.744,79.423 86.744,78.818C86.744,78.213 86.247,77.725 85.632,77.725L85.635,77.725ZM27.217,63.596C27.217,52.447 36.442,43.375 47.784,43.375C59.126,43.375 68.351,52.445 68.351,63.596C68.351,69.18 66.036,74.242 62.303,77.905C62.192,77.975 62.096,78.067 62.017,78.172C58.318,81.662 53.306,83.817 47.784,83.817C36.445,83.817 27.217,74.747 27.217,63.596L27.217,63.596Z" fill="#263544"/>
<path d="M47.804,66.472C47.189,66.472 46.692,66.96 46.692,67.565L46.692,70.883C46.692,71.487 47.189,71.976 47.804,71.976C48.419,71.976 48.916,71.487 48.916,70.883L48.916,67.565C48.916,66.96 48.419,66.472 47.804,66.472Z" fill="#263544"/>
<path d="M51.441,65.602C51.006,65.174 50.302,65.174 49.869,65.602C49.435,66.029 49.435,66.722 49.869,67.147L52.256,69.493C52.473,69.707 52.757,69.814 53.041,69.814C53.326,69.814 53.61,69.707 53.827,69.493C54.262,69.065 54.262,68.373 53.827,67.948L51.441,65.602Z" fill="#263544"/>
<path d="M55.208,62.423L51.833,62.423C51.218,62.423 50.722,62.911 50.722,63.516C50.722,64.121 51.218,64.609 51.833,64.609L55.208,64.609C55.823,64.609 56.32,64.121 56.32,63.516C56.32,62.911 55.823,62.423 55.208,62.423Z" fill="#263544"/>
<path d="M50.62,61.796C50.904,61.796 51.188,61.689 51.406,61.475L53.792,59.129C54.227,58.702 54.227,58.009 53.792,57.584C53.358,57.157 52.653,57.157 52.221,57.584L49.835,59.931C49.4,60.358 49.4,61.05 49.835,61.475C50.052,61.689 50.336,61.796 50.62,61.796Z" fill="#263544"/>
<path d="M47.804,60.64C48.419,60.64 48.916,60.151 48.916,59.547L48.916,56.229C48.916,55.624 48.419,55.136 47.804,55.136C47.189,55.136 46.692,55.624 46.692,56.229L46.692,59.547C46.692,60.151 47.189,60.64 47.804,60.64Z" fill="#263544"/>
<path d="M44.066,61.512C44.284,61.725 44.568,61.832 44.852,61.832C45.136,61.832 45.42,61.725 45.637,61.512C46.072,61.084 46.072,60.392 45.637,59.967L43.251,57.62C42.816,57.193 42.112,57.193 41.68,57.62C41.245,58.048 41.245,58.74 41.68,59.165L44.066,61.512Z" fill="#263544"/>
<path d="M44.788,63.516C44.788,62.911 44.291,62.423 43.676,62.423L40.301,62.423C39.686,62.423 39.189,62.911 39.189,63.516C39.189,64.121 39.686,64.609 40.301,64.609L43.676,64.609C44.291,64.609 44.788,64.121 44.788,63.516Z" fill="#263544"/>
<path d="M44.101,65.636L41.714,67.982C41.279,68.41 41.279,69.102 41.714,69.527C41.932,69.741 42.216,69.848 42.5,69.848C42.784,69.848 43.068,69.741 43.286,69.527L45.672,67.181C46.107,66.753 46.107,66.061 45.672,65.636C45.237,65.211 44.533,65.209 44.101,65.636Z" fill="#263544"/>
<path d="M173.035,41.189C160.471,41.189 150.245,51.24 150.245,63.596C150.245,68.949 152.165,73.867 155.362,77.725L134.548,77.725C133.933,77.725 133.436,78.213 133.436,78.818C133.436,79.422 133.933,79.911 134.548,79.911L157.276,79.911C157.323,79.911 157.37,79.903 157.417,79.896C161.498,83.678 166.995,86 173.033,86C185.598,86 195.823,75.949 195.823,63.593C195.823,51.237 185.6,41.187 173.033,41.187L173.035,41.189ZM173.035,83.814C161.696,83.814 152.469,74.744 152.469,63.593C152.469,52.442 161.693,43.373 173.035,43.373C184.377,43.373 193.602,52.442 193.602,63.593C193.602,74.744 184.377,83.814 173.035,83.814Z" fill="#263544"/>
<path d="M173.035,50.729C165.819,50.729 159.949,56.501 159.949,63.595C159.949,70.69 165.819,76.461 173.035,76.461C180.252,76.461 186.122,70.688 186.122,63.595C186.122,56.503 180.252,50.729 173.035,50.729L173.035,50.729ZM173.035,74.278C167.044,74.278 162.173,69.485 162.173,63.598C162.173,57.71 167.047,52.918 173.035,52.918C179.024,52.918 183.898,57.71 183.898,63.598C183.898,69.485 179.024,74.278 173.035,74.278L173.035,74.278Z" fill="#263544"/>
<path d="M173.058,66.472C172.442,66.472 171.946,66.96 171.946,67.565L171.946,70.883C171.946,71.487 172.442,71.976 173.058,71.976C173.673,71.976 174.169,71.487 174.169,70.883L174.169,67.565C174.169,66.96 173.673,66.472 173.058,66.472Z" fill="#263544"/>
<path d="M176.694,65.602C176.259,65.174 175.555,65.174 175.123,65.602C174.688,66.029 174.688,66.722 175.123,67.147L177.509,69.493C177.727,69.707 178.011,69.814 178.295,69.814C178.579,69.814 178.863,69.707 179.081,69.493C179.515,69.065 179.515,68.373 179.081,67.948L176.694,65.602L176.694,65.602Z" fill="#263544"/>
<path d="M177.087,62.423C176.472,62.423 175.975,62.911 175.975,63.516C175.975,64.121 176.472,64.609 177.087,64.609L180.461,64.609C181.077,64.609 181.573,64.121 181.573,63.516C181.573,62.911 181.077,62.423 180.461,62.423L177.087,62.423Z" fill="#263544"/>
<path d="M175.874,61.796C176.158,61.796 176.442,61.689 176.66,61.475L179.046,59.129C179.481,58.702 179.481,58.009 179.046,57.584C178.611,57.157 177.907,57.157 177.475,57.584L175.088,59.931C174.654,60.358 174.654,61.05 175.088,61.475C175.306,61.689 175.59,61.796 175.874,61.796L175.874,61.796Z" fill="#263544"/>
<path d="M173.058,60.64C173.673,60.64 174.169,60.151 174.169,59.547L174.169,56.229C174.169,55.624 173.673,55.136 173.058,55.136C172.442,55.136 171.946,55.624 171.946,56.229L171.946,59.547C171.946,60.151 172.442,60.64 173.058,60.64Z" fill="#263544"/>
<path d="M169.322,61.512C169.54,61.725 169.824,61.832 170.108,61.832C170.392,61.832 170.676,61.725 170.894,61.512C171.329,61.084 171.329,60.392 170.894,59.967L168.507,57.62C168.072,57.193 167.368,57.193 166.936,57.62C166.501,58.048 166.501,58.74 166.936,59.165L169.322,61.512L169.322,61.512Z" fill="#263544"/>
<path d="M170.041,63.516C170.041,62.911 169.544,62.423 168.929,62.423L165.555,62.423C164.939,62.423 164.443,62.911 164.443,63.516C164.443,64.121 164.939,64.609 165.555,64.609L168.929,64.609C169.544,64.609 170.041,64.121 170.041,63.516Z" fill="#263544"/>
<path d="M169.354,65.636L166.968,67.982C166.533,68.41 166.533,69.102 166.968,69.527C167.185,69.741 167.469,69.848 167.753,69.848C168.037,69.848 168.322,69.741 168.539,69.527L170.925,67.181C171.36,66.753 171.36,66.061 170.925,65.636C170.491,65.209 169.787,65.209 169.354,65.636L169.354,65.636Z" fill="#263544"/>
</svg>
