<svg width="44" height="38" viewBox="0 0 44 38" fill="none" xmlns="http://www.w3.org/2000/svg" xmlns:xlink="http://www.w3.org/1999/xlink">
<path d="M11.72,0.928C12.072,1.169 12.64,1.722 12.64,1.722C14.845,3.682 18.165,8.556 19.232,11.029C19.254,11.029 19.886,12.499 19.911,13.199L19.911,13.292C19.911,14.363 19.279,15.366 18.262,15.879C17.843,16.091 16.823,16.287 16.331,16.382C16.168,16.414 16.063,16.434 16.057,16.44C14.604,16.65 12.375,16.788 9.927,16.788C7.358,16.788 5.031,16.65 3.6,16.392C3.576,16.392 2.269,16.137 1.832,15.972C1.202,15.717 0.669,15.249 0.329,14.666C0.086,14.201 -0.033,13.709 -0.033,13.199C-0.01,12.661 0.354,11.659 0.523,11.263C1.589,8.649 5.079,3.658 7.211,1.746C7.433,1.533 7.685,1.31 7.86,1.154C7.954,1.071 8.026,1.008 8.059,0.975C8.593,0.579 9.247,0.369 9.952,0.369C10.579,0.369 11.209,0.555 11.72,0.928ZM34.356,14.761C34.356,15.814 33.471,16.666 32.377,16.666C31.284,16.666 30.398,15.814 30.398,14.761L29.853,5.56C29.853,4.218 30.984,3.132 32.377,3.132C33.771,3.132 34.899,4.218 34.899,5.56L34.356,14.761ZM40.483,20.939C41.113,21.196 41.646,21.662 41.986,22.244C42.229,22.71 42.348,23.201 42.348,23.715C42.326,24.249 41.961,25.254 41.79,25.65C40.726,28.262 37.234,33.253 35.104,35.167C34.886,35.375 34.639,35.594 34.464,35.749L34.464,35.749L34.464,35.749L34.464,35.749C34.366,35.836 34.291,35.902 34.256,35.935C33.72,36.332 33.068,36.542 32.366,36.542C31.734,36.542 31.104,36.356 30.596,35.981C30.243,35.742 29.675,35.188 29.675,35.188C27.468,33.231 24.15,28.355 23.084,25.882C23.059,25.882 22.429,24.414 22.404,23.715L22.404,23.621C22.404,22.547 23.034,21.545 24.053,21.032C24.472,20.822 25.488,20.625 25.981,20.529C26.146,20.497 26.252,20.477 26.258,20.471C27.711,20.261 29.941,20.122 32.389,20.122C34.958,20.122 37.284,20.261 38.715,20.518C38.737,20.518 40.047,20.774 40.483,20.939ZM9.938,20.245C8.845,20.245 7.959,21.097 7.959,22.149L7.414,31.351C7.414,32.692 8.545,33.778 9.938,33.778C11.332,33.778 12.461,32.692 12.461,31.351L11.917,22.149C11.917,21.097 11.032,20.245 9.938,20.245Z" clip-rule="evenodd" fill-rule="evenodd" fill="#551FFF"/>
</svg>
