<svg width="222" height="78" viewBox="0 0 222 78" fill="none" xmlns="http://www.w3.org/2000/svg" xmlns:xlink="http://www.w3.org/1999/xlink">
<path d="M101.677,5.851L90.653,5.851C88.71,5.851 87.135,7.422 87.135,9.361L87.135,18.488C87.135,20.427 88.71,21.998 90.653,21.998L101.677,21.998C103.62,21.998 105.195,20.427 105.195,18.488L105.195,9.361C105.195,7.422 103.62,5.851 101.677,5.851Z" fill="#767F89"/>
<path d="M149.682,16.597C152.576,19.328 151.558,21.998 148.704,21.998L120.323,21.998C118.381,21.998 116.688,20.309 116.688,18.371L116.688,9.244C116.688,7.306 118.381,5.851 120.323,5.851L132.872,5.851C135.921,5.851 137.875,6.408 141.238,9.333L149.682,16.597Z" fill="#767F89"/>
<path d="M124.076,13.808C123.785,13.808 123.495,13.688 123.286,13.454C122.899,13.019 122.939,12.354 123.373,11.968L134.3,2.277C134.736,1.891 135.403,1.931 135.79,2.364C136.177,2.799 136.137,3.464 135.703,3.85L124.775,13.541C124.573,13.719 124.325,13.808 124.074,13.808L124.076,13.808Z" fill="#A8AEB4"/>
<path d="M139.556,19.658C139.265,19.658 138.975,19.538 138.766,19.304C138.379,18.869 138.419,18.204 138.853,17.818L146.497,10.936C146.933,10.549 147.599,10.589 147.986,11.022C148.373,11.457 148.333,12.122 147.899,12.508L140.255,19.391C140.053,19.569 139.805,19.658 139.554,19.658L139.556,19.658Z" fill="#A8AEB4"/>
<path d="M114.6,31.966C114.309,31.966 114.018,31.846 113.81,31.612C113.423,31.177 113.463,30.512 113.897,30.126L132.895,13.276C133.331,12.89 133.997,12.93 134.384,13.363C134.771,13.798 134.731,14.463 134.297,14.849L115.299,31.699C115.097,31.877 114.849,31.966 114.598,31.966L114.6,31.966Z" fill="#A8AEB4"/>
<path d="M92.177,12.637C91.886,12.637 91.596,12.517 91.387,12.283C91,11.848 91.04,11.184 91.474,10.797L102.401,1.107C102.838,0.72 103.504,0.76 103.891,1.193C104.278,1.628 104.238,2.293 103.804,2.679L92.876,12.37C92.675,12.548 92.426,12.637 92.175,12.637L92.177,12.637Z" fill="#A8AEB4"/>
<path d="M81.998,31.966C81.707,31.966 81.416,31.846 81.208,31.612C80.821,31.177 80.861,30.512 81.294,30.126L100.293,13.276C100.729,12.89 101.395,12.93 101.782,13.363C102.169,13.798 102.129,14.463 101.695,14.849L82.697,31.699C82.495,31.877 82.247,31.966 81.996,31.966L81.998,31.966Z" fill="#A8AEB4"/>
<path d="M42.172,74.42L1.055,74.42C0.471,74.42 0,74.89 0,75.473C0,76.056 0.471,76.526 1.055,76.526L47.245,76.526C45.427,76.091 43.717,75.375 42.172,74.42Z" fill="#263544"/>
<path d="M74.704,74.42L60.46,74.42C58.911,75.375 57.204,76.091 55.386,76.526L74.706,76.526C75.29,76.526 75.761,76.056 75.761,75.473C75.761,74.89 75.29,74.42 74.706,74.42L74.704,74.42Z" fill="#263544"/>
<path d="M51.314,77.042C60.911,77.042 68.692,69.246 68.692,59.629C68.692,50.012 60.911,42.216 51.314,42.216C41.716,42.216 33.935,50.012 33.935,59.629C33.935,69.246 41.716,77.042 51.314,77.042Z" transform="rotate(-154.565 51.314 59.629)" fill="#68727C"/>
<path d="M61.518,59.631C61.518,65.252 56.951,69.811 51.315,69.811C45.681,69.811 41.112,65.252 41.112,59.631C41.112,54.01 45.678,49.451 51.315,49.451C56.949,49.451 61.518,54.008 61.518,59.631Z" fill="#BDC2C7"/>
<path d="M175.16,74.42L146.006,74.42C145.422,74.42 144.951,74.89 144.951,75.473C144.951,76.056 145.422,76.526 146.006,76.526L180.234,76.526C178.416,76.091 176.706,75.375 175.16,74.42L175.16,74.42Z" fill="#263544"/>
<path d="M219.654,74.42L193.448,74.42C191.9,75.375 190.193,76.091 188.375,76.526L219.657,76.526C220.241,76.526 220.712,76.056 220.712,75.473C220.712,74.89 220.241,74.42 219.657,74.42L219.654,74.42Z" fill="#263544"/>
<path d="M184.297,77.042C193.895,77.042 201.675,69.246 201.675,59.629C201.675,50.012 193.895,42.216 184.297,42.216C174.699,42.216 166.919,50.012 166.919,59.629C166.919,69.246 174.699,77.042 184.297,77.042Z" transform="rotate(-154.565 184.297 59.629)" fill="#68727C"/>
<path d="M194.147,59.631C194.147,65.252 189.581,69.811 183.945,69.811C178.311,69.811 173.742,65.252 173.742,59.631C173.742,54.01 178.308,49.451 183.945,49.451C189.578,49.451 194.147,54.008 194.147,59.631Z" fill="#BDC2C7"/>
<path d="M217.426,46.571L217.224,46.571L216.02,29.896C215.902,27.984 214.418,26.629 212.502,26.358L164.887,21.603L143.778,4.629C141.627,2.64 138.892,1.17 133.575,1.17L85.376,1.17C83.433,1.17 81.74,2.626 81.74,4.563L81.74,18.02L10.32,18.02C8.378,18.02 6.685,19.475 6.685,21.413L6.685,42.592L5.629,42.592C3.687,42.592 1.994,44.048 1.994,45.985L1.994,54.644C1.994,56.582 3.687,58.272 5.629,58.272L29.471,58.272C29.471,45.634 38.902,37.717 50.545,37.717C62.188,37.717 73.219,45.4 73.219,58.272L162.223,58.272C162.291,47.039 172.121,38.263 184.238,38.263C196.354,38.263 206.184,47.039 206.252,58.272L217.426,58.272C219.368,58.272 220.828,56.582 220.828,54.644L220.828,49.964C220.828,48.026 219.368,46.571 217.426,46.571L217.426,46.571ZM105.195,18.488C105.195,20.425 103.619,21.998 101.677,21.998L90.653,21.998C88.711,21.998 87.135,20.425 87.135,18.488L87.135,9.361C87.135,7.423 88.711,5.85 90.653,5.85L101.677,5.85C103.619,5.85 105.195,7.423 105.195,9.361L105.195,18.488ZM148.704,21.998L120.323,21.998C118.381,21.998 116.688,20.308 116.688,18.371L116.688,9.244C116.688,7.306 118.381,5.85 120.323,5.85L132.872,5.85C135.921,5.85 137.874,6.407 141.238,9.333L149.682,16.597C152.576,19.328 151.558,21.998 148.704,21.998Z" fill="#F26A21"/>
<path d="M216.019,29.896C215.903,27.984 214.417,26.629 212.501,26.358L164.887,21.603L143.778,4.629C141.627,2.64 138.892,1.17 133.575,1.17L85.376,1.17C83.434,1.17 81.74,2.626 81.74,4.563L81.74,18.02L10.32,18.02C8.378,18.02 6.685,19.475 6.685,21.413L6.685,35.061C16.974,36.95 28.256,38.611 40.352,40.013C43.373,38.518 46.846,37.717 50.545,37.717C55.949,37.717 61.217,39.374 65.317,42.433C86.736,44.132 110.01,45.066 134.342,45.066C145.927,45.066 157.272,44.855 168.291,44.45C172.302,40.619 177.964,38.265 184.24,38.265C189.571,38.265 194.457,39.964 198.266,42.824C204.618,42.363 210.817,41.834 216.843,41.242L216.021,29.899L216.019,29.896ZM105.195,18.488C105.195,20.425 103.619,21.998 101.677,21.998L90.653,21.998C88.711,21.998 87.135,20.425 87.135,18.488L87.135,9.361C87.135,7.423 88.711,5.85 90.653,5.85L101.677,5.85C103.619,5.85 105.195,7.423 105.195,9.361L105.195,18.488ZM148.704,21.998L120.323,21.998C118.381,21.998 116.688,20.308 116.688,18.371L116.688,9.244C116.688,7.306 118.381,5.85 120.323,5.85L132.872,5.85C135.921,5.85 137.875,6.407 141.238,9.333L149.682,16.597C152.576,19.328 151.558,21.998 148.704,21.998Z" fill="#F58C55"/>
<path d="M216.84,46.102L212.618,46.102L212.618,32.997L216.136,32.997L216.84,46.102Z" fill="#FFFFFF"/>
<path d="M13.252,27.849L6.919,27.849L6.919,41.422L13.252,41.422L13.252,27.849Z" fill="#FBD4BF"/>
<path d="M161.956,27.849C161.956,27.266 161.484,26.796 160.9,26.796C160.316,26.796 159.845,27.266 159.845,27.849L159.845,43.061C159.845,43.082 159.845,43.105 159.845,43.126C159.845,43.149 159.964,45.464 158.513,46.999C157.607,47.956 156.24,48.443 154.448,48.443L134.98,48.443C134.396,48.443 133.925,48.913 133.925,49.496C133.925,50.079 134.396,50.549 134.98,50.549L154.448,50.549C156.854,50.549 158.745,49.835 160.065,48.427C162.035,46.325 161.972,43.433 161.953,43.032L161.953,27.849L161.956,27.849Z" fill="#263544"/>
<path d="M106.368,18.371L106.368,9.244C106.368,6.728 104.316,4.681 101.794,4.681L90.77,4.681C88.249,4.681 86.197,6.728 86.197,9.244L86.197,18.371C86.197,20.887 88.249,22.934 90.77,22.934L101.794,22.934C104.316,22.934 106.368,20.887 106.368,18.371ZM88.308,18.371L88.308,9.244C88.308,7.889 89.412,6.787 90.77,6.787L101.794,6.787C103.152,6.787 104.257,7.889 104.257,9.244L104.257,18.371C104.257,19.726 103.152,20.828 101.794,20.828L90.77,20.828C89.412,20.828 88.308,19.726 88.308,18.371Z" fill="#263544"/>
<path d="M120.324,22.934L148.704,22.934C150.407,22.934 151.732,22.165 152.248,20.875C152.867,19.321 152.196,17.463 150.407,15.773C150.395,15.762 150.383,15.752 150.372,15.743L141.93,8.451C138.269,5.263 136.006,4.681 132.872,4.681L120.324,4.681C117.802,4.681 115.75,6.728 115.75,9.244L115.75,18.371C115.75,20.887 117.802,22.934 120.324,22.934L120.324,22.934ZM117.861,9.244C117.861,7.889 118.966,6.787 120.324,6.787L132.872,6.787C135.593,6.787 137.347,7.257 140.546,10.04L148.971,17.318C150.268,18.549 150.489,19.581 150.285,20.096C150.102,20.554 149.511,20.828 148.704,20.828L120.324,20.828C118.966,20.828 117.861,19.726 117.861,18.371L117.861,9.244Z" fill="#263544"/>
<path d="M124.428,26.679L117.157,26.679C116.573,26.679 116.102,27.149 116.102,27.732C116.102,28.315 116.573,28.785 117.157,28.785L124.428,28.785C125.012,28.785 125.484,28.315 125.484,27.732C125.484,27.149 125.012,26.679 124.428,26.679Z" fill="#263544"/>
<path d="M105.313,27.732C105.313,27.149 104.841,26.679 104.257,26.679L96.986,26.679C96.402,26.679 95.931,27.149 95.931,27.732C95.931,28.315 96.402,28.785 96.986,28.785L104.257,28.785C104.841,28.785 105.313,28.315 105.313,27.732Z" fill="#263544"/>
<path d="M218.212,45.468L217.072,29.775C216.93,27.446 215.152,25.642 212.65,25.286C212.636,25.286 212.618,25.282 212.604,25.282L165.305,20.573L144.468,3.768C142.444,1.9 139.561,0 133.573,0L85.373,0C82.852,0 80.8,2.048 80.8,4.563L80.8,16.85L10.32,16.85C7.799,16.85 5.747,18.897 5.747,21.413L5.747,41.422L5.629,41.422C3.108,41.422 1.056,43.47 1.056,45.986L1.056,54.644C1.056,57.16 3.108,59.208 5.629,59.208L29.471,59.208C30.055,59.208 30.527,58.738 30.527,58.155C30.527,46.854 38.945,38.654 50.545,38.654C61.025,38.654 72.164,45.489 72.164,58.155C72.164,58.738 72.635,59.208 73.219,59.208L162.223,59.208C162.802,59.208 163.274,58.74 163.279,58.162C163.344,47.706 172.747,39.199 184.238,39.199C195.728,39.199 205.132,47.706 205.198,58.162C205.202,58.74 205.674,59.208 206.252,59.208L217.426,59.208C219.948,59.208 222,57.16 222,54.644L222,49.964C222,47.715 220.362,45.841 218.212,45.468L218.212,45.468ZM219.89,54.644C219.89,55.999 218.784,57.102 217.426,57.102L207.274,57.102C206.608,45.976 196.502,37.093 184.238,37.093C171.973,37.093 161.867,45.976 161.203,57.102L74.249,57.102C73.972,51.277 71.397,46.049 66.929,42.29C62.589,38.642 56.62,36.547 50.545,36.547C44.47,36.547 38.966,38.642 34.92,42.445C30.965,46.161 28.688,51.333 28.439,57.102L5.629,57.102C4.271,57.102 3.167,55.999 3.167,54.644L3.167,45.986C3.167,44.631 4.271,43.528 5.629,43.528L16.536,43.528C17.12,43.528 17.591,43.058 17.591,42.475C17.591,41.893 17.12,41.422 16.536,41.422L13.956,41.422L13.956,27.498C13.956,26.915 13.484,26.445 12.9,26.445L9.734,26.445C9.15,26.445 8.678,26.915 8.678,27.498C8.678,28.08 9.15,28.551 9.734,28.551L11.845,28.551L11.845,41.422L7.858,41.422L7.858,21.413C7.858,20.058 8.962,18.956 10.32,18.956L81.858,18.956C82.442,18.956 82.913,18.486 82.913,17.903L82.913,4.563C82.913,3.208 84.018,2.106 85.376,2.106L109.886,2.106L109.886,42.047C109.886,44.656 109.506,46.217 108.652,47.114C107.763,48.047 106.105,48.483 103.436,48.483C102.852,48.483 102.38,48.953 102.38,49.536C102.38,50.118 102.852,50.589 103.436,50.589C109.757,50.589 111.997,48.354 111.997,42.047L111.997,2.106L133.575,2.106C138.843,2.106 141.247,3.658 143.061,5.336C143.077,5.352 143.096,5.369 143.114,5.383L164.224,22.408C164.383,22.536 164.578,22.616 164.782,22.637L212.372,27.374C213.868,27.594 214.884,28.586 214.966,29.915L215.14,32.295L212.97,32.295C212.386,32.295 211.914,32.766 211.914,33.348L211.914,42.592C211.914,43.175 212.386,43.645 212.97,43.645C213.554,43.645 214.026,43.175 214.026,42.592L214.026,34.401L215.292,34.401L216.09,45.401L210.976,45.401C210.392,45.401 209.922,45.871 209.922,46.454C209.922,47.036 210.392,47.507 210.976,47.507L217.426,47.507C218.784,47.507 219.89,48.609 219.89,49.964L219.89,54.644Z" fill="#263544"/>
<path d="M50.468,27.341C44.52,27.341 38.874,29.092 34.143,32.403C29.549,35.619 26.122,40.191 24.494,45.277C24.316,45.831 24.623,46.423 25.179,46.601C25.287,46.636 25.395,46.65 25.5,46.65C25.948,46.65 26.361,46.365 26.506,45.918C29.614,36.22 39.468,29.447 50.47,29.447C57.938,29.447 64.956,32.485 69.722,37.783C70.111,38.216 70.78,38.251 71.214,37.863C71.648,37.474 71.683,36.807 71.293,36.375C66.126,30.634 58.536,27.339 50.47,27.339L50.468,27.341Z" fill="#263544"/>
<path d="M184.629,30.852C177.492,30.852 170.756,33.398 165.661,38.024C165.23,38.415 165.199,39.082 165.591,39.513C165.983,39.943 166.651,39.974 167.083,39.583C171.788,35.312 178.02,32.96 184.629,32.96C192.813,32.96 200.49,36.658 205.164,42.85C205.37,43.124 205.687,43.269 206.008,43.269C206.229,43.269 206.452,43.201 206.642,43.056C207.109,42.705 207.2,42.045 206.85,41.582C201.78,34.863 193.472,30.852 184.629,30.852L184.629,30.852Z" fill="#263544"/>
<path d="M50.963,41.272C40.814,41.272 32.558,49.51 32.558,59.636C32.558,69.762 40.814,78 50.963,78C61.112,78 69.368,69.762 69.368,59.636C69.368,49.51 61.112,41.272 50.963,41.272ZM50.963,75.894C41.977,75.894 34.669,68.602 34.669,59.636C34.669,50.671 41.977,43.379 50.963,43.379C59.948,43.379 67.257,50.671 67.257,59.636C67.257,68.602 59.948,75.894 50.963,75.894Z" fill="#263544"/>
<path d="M50.963,48.916C45.038,48.916 40.218,53.725 40.218,59.637C40.218,65.548 45.038,70.357 50.963,70.357C56.888,70.357 61.708,65.548 61.708,59.637C61.708,53.725 56.888,48.916 50.963,48.916L50.963,48.916ZM50.963,68.249C46.204,68.249 42.329,64.385 42.329,59.634C42.329,54.884 46.202,51.02 50.963,51.02C55.724,51.02 59.597,54.884 59.597,59.634C59.597,64.385 55.724,68.249 50.963,68.249Z" fill="#263544"/>
<path d="M50.897,61.843C50.313,61.843 49.842,62.313 49.842,62.896L49.842,65.62C49.842,66.203 50.313,66.673 50.897,66.673C51.481,66.673 51.953,66.203 51.953,65.62L51.953,62.896C51.953,62.313 51.481,61.843 50.897,61.843Z" fill="#263544"/>
<path d="M54.035,61.174C53.622,60.762 52.954,60.762 52.543,61.174C52.131,61.586 52.131,62.253 52.543,62.663L54.474,64.589C54.68,64.794 54.95,64.897 55.22,64.897C55.489,64.897 55.759,64.794 55.966,64.589C56.378,64.177 56.378,63.51 55.966,63.1L54.035,61.174Z" fill="#263544"/>
<path d="M54.24,58.506C53.656,58.506 53.184,58.976 53.184,59.559C53.184,60.142 53.656,60.612 54.24,60.612L56.97,60.612C57.554,60.612 58.025,60.142 58.025,59.559C58.025,58.976 57.554,58.506 56.97,58.506L54.24,58.506Z" fill="#263544"/>
<path d="M53.259,58.313C53.529,58.313 53.799,58.211 54.005,58.005L55.935,56.079C56.348,55.667 56.348,55 55.935,54.59C55.522,54.178 54.854,54.178 54.444,54.59L52.513,56.516C52.1,56.928 52.1,57.595 52.513,58.005C52.72,58.211 52.989,58.313 53.259,58.313Z" fill="#263544"/>
<path d="M50.897,57.363C51.481,57.363 51.953,56.893 51.953,56.31L51.953,53.586C51.953,53.004 51.481,52.533 50.897,52.533C50.313,52.533 49.842,53.004 49.842,53.586L49.842,56.31C49.842,56.893 50.313,57.363 50.897,57.363Z" fill="#263544"/>
<path d="M47.848,58.036C48.054,58.242 48.324,58.345 48.594,58.345C48.863,58.345 49.133,58.242 49.34,58.036C49.752,57.624 49.752,56.957 49.34,56.547L47.409,54.621C46.996,54.21 46.328,54.21 45.918,54.621C45.505,55.033 45.505,55.7 45.918,56.11L47.848,58.036Z" fill="#263544"/>
<path d="M48.697,59.559C48.697,58.976 48.226,58.506 47.642,58.506L44.911,58.506C44.327,58.506 43.856,58.976 43.856,59.559C43.856,60.142 44.327,60.612 44.911,60.612L47.642,60.612C48.226,60.612 48.697,60.142 48.697,59.559Z" fill="#263544"/>
<path d="M47.876,61.201L45.946,63.127C45.533,63.539 45.533,64.206 45.946,64.616C46.152,64.822 46.422,64.925 46.692,64.925C46.961,64.925 47.231,64.822 47.438,64.616L49.368,62.69C49.781,62.278 49.781,61.611 49.368,61.201C48.955,60.79 48.287,60.79 47.876,61.201Z" fill="#263544"/>
<path d="M184.186,41.272C174.037,41.272 165.781,49.51 165.781,59.636C165.781,69.762 174.037,78 184.186,78C194.335,78 202.591,69.762 202.591,59.636C202.591,49.51 194.335,41.272 184.186,41.272ZM184.186,75.894C175.201,75.894 167.892,68.602 167.892,59.636C167.892,50.671 175.201,43.379 184.186,43.379C193.172,43.379 200.48,50.671 200.48,59.636C200.48,68.602 193.172,75.894 184.186,75.894Z" fill="#263544"/>
<path d="M184.186,48.916C178.261,48.916 173.441,53.725 173.441,59.637C173.441,65.548 178.261,70.357 184.186,70.357C190.111,70.357 194.931,65.548 194.931,59.637C194.931,53.725 190.111,48.916 184.186,48.916L184.186,48.916ZM184.186,68.249C179.427,68.249 175.552,64.385 175.552,59.634C175.552,54.884 179.425,51.02 184.186,51.02C188.947,51.02 192.82,54.884 192.82,59.634C192.82,64.385 188.947,68.249 184.186,68.249Z" fill="#263544"/>
<path d="M184.12,61.843C183.536,61.843 183.065,62.313 183.065,62.896L183.065,65.62C183.065,66.203 183.536,66.673 184.12,66.673C184.704,66.673 185.176,66.203 185.176,65.62L185.176,62.896C185.176,62.313 184.704,61.843 184.12,61.843Z" fill="#263544"/>
<path d="M187.259,61.174C186.846,60.762 186.178,60.762 185.767,61.174C185.354,61.586 185.354,62.253 185.767,62.663L187.697,64.589C187.904,64.794 188.174,64.897 188.443,64.897C188.713,64.897 188.983,64.794 189.189,64.589C189.602,64.177 189.602,63.51 189.189,63.1L187.259,61.174L187.259,61.174Z" fill="#263544"/>
<path d="M187.463,58.506C186.879,58.506 186.408,58.976 186.408,59.559C186.408,60.142 186.879,60.612 187.463,60.612L190.193,60.612C190.777,60.612 191.249,60.142 191.249,59.559C191.249,58.976 190.777,58.506 190.193,58.506L187.463,58.506Z" fill="#263544"/>
<path d="M186.483,58.313C186.752,58.313 187.022,58.211 187.229,58.005L189.159,56.079C189.572,55.667 189.572,55 189.159,54.59C188.746,54.178 188.078,54.178 187.667,54.59L185.737,56.516C185.324,56.928 185.324,57.595 185.737,58.005C185.943,58.211 186.213,58.313 186.483,58.313L186.483,58.313Z" fill="#263544"/>
<path d="M184.12,57.363C184.704,57.363 185.176,56.893 185.176,56.31L185.176,53.586C185.176,53.004 184.704,52.533 184.12,52.533C183.536,52.533 183.065,53.004 183.065,53.586L183.065,56.31C183.065,56.893 183.536,57.363 184.12,57.363Z" fill="#263544"/>
<path d="M181.071,58.036C181.278,58.242 181.548,58.345 181.817,58.345C182.087,58.345 182.357,58.242 182.563,58.036C182.976,57.624 182.976,56.957 182.563,56.547L180.633,54.621C180.22,54.21 179.552,54.21 179.141,54.621C178.728,55.033 178.728,55.7 179.141,56.11L181.071,58.036L181.071,58.036Z" fill="#263544"/>
<path d="M181.921,59.559C181.921,58.976 181.449,58.506 180.865,58.506L178.135,58.506C177.551,58.506 177.08,58.976 177.08,59.559C177.08,60.142 177.551,60.612 178.135,60.612L180.865,60.612C181.449,60.612 181.921,60.142 181.921,59.559Z" fill="#263544"/>
<path d="M181.1,61.201L179.169,63.127C178.757,63.539 178.757,64.206 179.169,64.616C179.376,64.822 179.646,64.925 179.915,64.925C180.185,64.925 180.455,64.822 180.661,64.616L182.592,62.69C183.004,62.278 183.004,61.611 182.592,61.201C182.179,60.79 181.51,60.79 181.1,61.201L181.1,61.201Z" fill="#263544"/>
<path d="M81.858,26.562C81.274,26.562 80.802,27.032 80.802,27.615L80.802,49.145C80.802,49.728 81.274,50.198 81.858,50.198C82.442,50.198 82.913,49.728 82.913,49.145L82.913,27.615C82.913,27.032 82.442,26.562 81.858,26.562Z" fill="#263544"/>
</svg>
