<svg width="34" height="34" viewBox="0 0 34 34" fill="none" xmlns="http://www.w3.org/2000/svg" xmlns:xlink="http://www.w3.org/1999/xlink">
<path d="M22,-0.667C21.293,-0.667 20.615,-0.386 20.114,0.114C19.614,0.614 19.333,1.292 19.333,2L19.333,9.333L12,9.333C11.293,9.333 10.615,9.614 10.115,10.114C9.614,10.614 9.333,11.292 9.333,12L9.333,21L2,21C1.293,21 0.615,21.281 0.115,21.781C-0.386,22.281 -0.667,22.959 -0.667,23.666L-0.667,30C-0.667,30.707 -0.386,31.385 0.115,31.885C0.615,32.385 1.293,32.666 2,32.666L30,32.666C30.707,32.666 31.386,32.385 31.886,31.885C32.386,31.385 32.667,30.707 32.667,30L32.667,2C32.667,1.292 32.386,0.614 31.886,0.114C31.386,-0.386 30.707,-0.667 30,-0.667L22,-0.667ZM12.667,12.666L19.333,12.666L19.333,29.333L12.667,29.333L12.667,12.666ZM29.333,29.333L22.667,29.333L22.667,2.666L29.333,2.666L29.333,29.333ZM9.333,24.333L9.333,29.333L2.667,29.333L2.667,24.333L9.333,24.333Z" clip-rule="evenodd" fill-rule="evenodd" fill="#92959E"/>
</svg>
