<svg width="34" height="34" viewBox="0 0 34 34" fill="none" xmlns="http://www.w3.org/2000/svg" xmlns:xlink="http://www.w3.org/1999/xlink">
<path d="M22,-0.667C21.292,-0.667 20.614,-0.386 20.114,0.114C19.614,0.614 19.333,1.292 19.333,2L19.333,9.333L12,9.333C11.292,9.333 10.614,9.614 10.114,10.114C9.614,10.614 9.333,11.292 9.333,12L9.333,21L2,21C1.292,21 0.614,21.281 0.114,21.781C-0.386,22.281 -0.667,22.959 -0.667,23.666L-0.667,30C-0.667,30.707 -0.386,31.385 0.114,31.885C0.614,32.385 1.292,32.666 2,32.666L30,32.666C30.707,32.666 31.385,32.385 31.885,31.885C32.385,31.385 32.666,30.707 32.666,30L32.666,2C32.666,1.292 32.385,0.614 31.885,0.114C31.385,-0.386 30.707,-0.667 30,-0.667L22,-0.667ZM12.666,12.666L19.333,12.666L19.333,29.333L12.666,29.333L12.666,12.666ZM29.333,29.333L22.666,29.333L22.666,2.666L29.333,2.666L29.333,29.333ZM9.333,24.333L9.333,29.333L2.666,29.333L2.666,24.333L9.333,24.333Z" clip-rule="evenodd" fill-rule="evenodd" fill="#000000"/>
</svg>
