<svg width="38" height="38" viewBox="0 0 38 38" fill="none" xmlns="http://www.w3.org/2000/svg" xmlns:xlink="http://www.w3.org/1999/xlink">
<path d="M14.667,13C14.667,12.022 15.032,11.396 15.511,10.99C16.026,10.553 16.773,10.292 17.584,10.292C18.395,10.292 19.141,10.553 19.656,10.99C20.135,11.396 20.5,12.022 20.5,13C20.5,13.729 20.329,14.133 20.129,14.433C19.897,14.782 19.59,15.057 19.073,15.522L18.969,15.616C18.436,16.095 17.735,16.743 17.201,17.687C16.65,18.66 16.334,19.835 16.334,21.334C16.334,22.254 17.08,23 18,23C18.921,23 19.667,22.254 19.667,21.334C19.667,20.332 19.871,19.737 20.102,19.329C20.349,18.893 20.69,18.551 21.199,18.093C21.244,18.052 21.293,18.009 21.343,17.964C21.799,17.558 22.422,17.002 22.903,16.282C23.485,15.409 23.834,14.355 23.834,13C23.834,11.062 23.053,9.5 21.813,8.448C20.61,7.427 19.064,6.959 17.584,6.959C16.103,6.959 14.558,7.427 13.354,8.448C12.115,9.5 11.334,11.062 11.334,13C11.334,13.921 12.08,14.667 13,14.667C13.921,14.667 14.667,13.921 14.667,13Z" fill="#757575"/>
<path d="M19.25,29.12C19.869,28.439 19.819,27.385 19.138,26.765C18.457,26.146 17.403,26.196 16.784,26.878L16.767,26.896C16.148,27.577 16.198,28.631 16.879,29.25C17.56,29.869 18.614,29.819 19.234,29.138L19.25,29.12Z" fill="#757575"/>
<path d="M18,-0.333C7.875,-0.333 -0.333,7.875 -0.333,18C-0.333,28.126 7.875,36.334 18,36.334C28.126,36.334 36.334,28.126 36.334,18C36.334,7.875 28.126,-0.333 18,-0.333ZM3,18C3,9.716 9.716,3 18,3C26.285,3 33,9.716 33,18C33,26.285 26.285,33 18,33C9.716,33 3,26.285 3,18Z" clip-rule="evenodd" fill-rule="evenodd" fill="#757575"/>
</svg>
