<svg width="28" height="32" viewBox="0 0 28 32" fill="none" xmlns="http://www.w3.org/2000/svg" xmlns:xlink="http://www.w3.org/1999/xlink">
<path d="M14,1C11.79,1 9.67,1.878 8.107,3.441C6.544,5.004 5.667,7.123 5.667,9.333C5.667,11.543 6.544,13.663 8.107,15.226C8.217,15.336 8.33,15.442 8.445,15.545C7.018,16.2 5.703,17.107 4.572,18.239C2.071,20.739 0.667,24.13 0.667,27.667L0.667,29.333C0.667,30.254 1.413,31 2.333,31C3.254,31 4,30.254 4,29.333L4,27.667C4,25.015 5.053,22.471 6.929,20.596C8.804,18.72 11.348,17.667 14,17.667C16.652,17.667 19.196,18.72 21.071,20.596C22.946,22.471 24,25.015 24,27.667L24,29.333C24,30.254 24.746,31 25.667,31C26.587,31 27.333,30.254 27.333,29.333L27.333,27.667C27.333,24.13 25.929,20.739 23.428,18.239C22.296,17.107 20.982,16.2 19.554,15.545C19.67,15.442 19.782,15.336 19.892,15.226C21.455,13.663 22.333,11.543 22.333,9.333C22.333,7.123 21.455,5.004 19.892,3.441C18.33,1.878 16.21,1 14,1ZM10.464,5.798C11.402,4.86 12.674,4.333 14,4.333C15.326,4.333 16.598,4.86 17.535,5.798C18.473,6.735 19,8.007 19,9.333C19,10.659 18.473,11.931 17.535,12.869C16.598,13.807 15.326,14.333 14,14.333C12.674,14.333 11.402,13.807 10.464,12.869C9.527,11.931 9,10.659 9,9.333C9,8.007 9.527,6.735 10.464,5.798Z" clip-rule="evenodd" fill-rule="evenodd" fill="#757575"/>
</svg>
