<svg width="34" height="36" viewBox="0 0 34 36" fill="none" xmlns="http://www.w3.org/2000/svg" xmlns:xlink="http://www.w3.org/1999/xlink">
<path d="M9.333,1.334C9.333,0.413 8.587,-0.333 7.667,-0.333C6.746,-0.333 6,0.413 6,1.334L6,3L4.333,3C3.007,3 1.736,3.527 0.798,4.465C-0.14,5.402 -0.667,6.674 -0.667,8L-0.667,29.667C-0.667,30.993 -0.14,32.265 0.798,33.203C1.736,34.14 3.007,34.667 4.333,34.667L27.667,34.667C28.993,34.667 30.265,34.14 31.202,33.203C32.14,32.265 32.667,30.993 32.667,29.667L32.667,8C32.667,6.674 32.14,5.402 31.202,4.465C30.265,3.527 28.993,3 27.667,3L26.833,3C25.913,3 25.167,3.747 25.167,4.667C25.167,5.587 25.913,6.334 26.833,6.334L27.667,6.334C28.109,6.334 28.533,6.509 28.845,6.822C29.158,7.134 29.333,7.558 29.333,8L29.333,13L2.667,13L2.667,8C2.667,7.558 2.842,7.134 3.155,6.822C3.468,6.509 3.891,6.334 4.333,6.334L6,6.334L6,8C6,8.921 6.746,9.667 7.667,9.667C8.587,9.667 9.333,8.921 9.333,8L9.333,1.334ZM3.155,30.846C2.842,30.533 2.667,30.109 2.667,29.667L2.667,16.334L29.333,16.334L29.333,29.667C29.333,30.109 29.158,30.533 28.845,30.846C28.533,31.158 28.109,31.334 27.667,31.334L4.333,31.334C3.891,31.334 3.468,31.158 3.155,30.846Z" clip-rule="evenodd" fill-rule="evenodd" fill="#757575"/>
<path d="M22.667,1.334C22.667,0.413 21.921,-0.333 21,-0.333C20.08,-0.333 19.333,0.413 19.333,1.334L19.333,3L13.5,3C12.58,3 11.833,3.747 11.833,4.667C11.833,5.587 12.58,6.334 13.5,6.334L19.333,6.334L19.333,8C19.333,8.921 20.08,9.667 21,9.667C21.921,9.667 22.667,8.921 22.667,8L22.667,1.334Z" fill="#757575"/>
</svg>
