<svg width="28" height="34" viewBox="0 0 28 34" fill="none" xmlns="http://www.w3.org/2000/svg" xmlns:xlink="http://www.w3.org/1999/xlink">
<path d="M5.667,-0.667C4.341,-0.667 3.069,-0.14 2.131,0.797C1.194,1.735 0.667,3.007 0.667,4.333L0.667,27.666C0.667,28.992 1.194,30.264 2.131,31.202C3.069,32.14 4.341,32.666 5.667,32.666L22.334,32.666C23.66,32.666 24.932,32.14 25.869,31.202C26.807,30.264 27.334,28.992 27.334,27.666L27.334,26C27.334,25.079 26.587,24.333 25.667,24.333C24.747,24.333 24,25.079 24,26L24,27.666C24,28.108 23.825,28.532 23.512,28.845C23.2,29.157 22.776,29.333 22.334,29.333L5.667,29.333C5.225,29.333 4.801,29.157 4.488,28.845C4.176,28.532 4,28.108 4,27.666L4,4.333C4,3.891 4.176,3.467 4.488,3.154C4.801,2.842 5.225,2.666 5.667,2.666L22.334,2.666C22.776,2.666 23.2,2.842 23.512,3.154C23.825,3.467 24,3.891 24,4.333L24,6C24,6.92 24.747,7.666 25.667,7.666C26.587,7.666 27.334,6.92 27.334,6L27.334,4.333C27.334,3.007 26.807,1.735 25.869,0.797C24.932,-0.14 23.66,-0.667 22.334,-0.667L5.667,-0.667Z" fill="#D55F5A"/>
<path d="M21.846,9.821C21.195,9.17 20.139,9.17 19.488,9.821C18.838,10.472 18.838,11.527 19.488,12.178L21.643,14.333L14,14.333C13.08,14.333 12.334,15.079 12.334,16C12.334,16.92 13.08,17.666 14,17.666L21.643,17.666L19.488,19.821C18.838,20.472 18.838,21.527 19.488,22.178C20.139,22.829 21.195,22.829 21.846,22.178L26.846,17.178C27.496,16.527 27.496,15.472 26.846,14.821L21.846,9.821Z" fill="#D55F5A"/>
</svg>
