<svg width="38" height="32" viewBox="0 0 38 32" fill="none" xmlns="http://www.w3.org/2000/svg" xmlns:xlink="http://www.w3.org/1999/xlink">
<path d="M36.565,9.79L33.943,9.79L33.964,9.734L33.682,9.14C32.813,7.313 29.789,1.262 27.39,0.135L27.106,0L10.896,0L10.612,0.135C8.209,1.262 5.189,7.313 4.318,9.14L4.036,9.734L4.059,9.79L1.437,9.79C0.646,9.79 0,10.359 0,11.064L0,12.416C0,13.119 0.646,13.691 1.437,13.691L2.271,13.691C2.184,14.121 2.127,14.564 2.127,15.028L2.127,21.099C2.127,22.922 2.839,24.526 3.92,25.517L3.92,30.534C3.92,31.347 4.564,32 5.355,32L8.59,32C9.381,32 10.025,31.347 10.025,30.534L10.025,26.559L27.975,26.559L27.975,30.534C27.975,31.347 28.619,32 29.412,32L32.642,32C33.44,32 34.08,31.347 34.08,30.534L34.08,25.517C35.165,24.526 35.875,22.922 35.875,21.099L35.875,15.028C35.875,14.564 35.818,14.121 35.729,13.691L36.565,13.691C37.358,13.691 38,13.119 38,12.419L38,11.064C38,10.359 37.358,9.79 36.565,9.79ZM11.595,2.934L26.403,2.934C27.386,3.691 29.242,6.705 30.679,9.566L7.327,9.566C8.76,6.705 10.616,3.691 11.595,2.934Z" fill="#92959E"/>
</svg>
