<svg width="6" height="28" viewBox="0 0 6 28" fill="none" xmlns="http://www.w3.org/2000/svg" xmlns:xlink="http://www.w3.org/1999/xlink">
<path d="M2.505,6.24C1.652,6.24 0.918,5.947 0.305,5.36C-0.282,4.773 -0.575,4.04 -0.575,3.16C-0.575,2.333 -0.282,1.627 0.305,1.04C0.918,0.427 1.652,0.12 2.505,0.12C3.358,0.12 4.078,0.427 4.665,1.04C5.252,1.627 5.545,2.333 5.545,3.16C5.545,4.04 5.252,4.773 4.665,5.36C4.078,5.947 3.358,6.24 2.505,6.24ZM-0.095,10.8C-0.095,10.667 -0.202,10.56 -0.415,10.48C-0.602,10.4 -0.788,10.36 -0.975,10.36L-0.975,9.6L5.905,9.6L5.905,10.36C5.718,10.36 5.518,10.4 5.305,10.48C5.118,10.56 5.025,10.667 5.025,10.8L5.025,26.8C5.025,26.934 5.118,27.04 5.305,27.12C5.518,27.2 5.718,27.24 5.905,27.24L5.905,28L-0.975,28L-0.975,27.24C-0.788,27.24 -0.602,27.2 -0.415,27.12C-0.202,27.04 -0.095,26.934 -0.095,26.8L-0.095,10.8Z" fill="#92959E"/>
</svg>
