<svg width="22" height="22" viewBox="0 0 22 22" fill="none" xmlns="http://www.w3.org/2000/svg" xmlns:xlink="http://www.w3.org/1999/xlink">
<path d="M10.23,0.76C12.284,0.76 14.057,1.213 15.55,2.12C17.044,3 18.177,4.2 18.95,5.72C19.724,7.24 20.11,8.92 20.11,10.76C20.11,11.32 20.07,11.88 19.99,12.44L5.35,12.44C5.457,13.72 6.017,14.72 7.03,15.44C8.044,16.16 9.257,16.52 10.67,16.52C11.63,16.52 12.43,16.386 13.07,16.12C13.737,15.853 14.324,15.453 14.83,14.92C14.884,14.813 14.91,14.746 14.91,14.72C14.91,14.613 14.87,14.506 14.79,14.4C14.71,14.266 14.63,14.173 14.55,14.12L15.03,13.52L19.47,17L19.03,17.6C18.63,17.36 18.35,17.333 18.19,17.52C16.324,19.76 13.817,20.88 10.67,20.88C8.644,20.88 6.857,20.44 5.31,19.56C3.764,18.653 2.564,17.453 1.71,15.96C0.884,14.44 0.47,12.76 0.47,10.92C0.47,8.973 0.884,7.226 1.71,5.68C2.537,4.133 3.684,2.933 5.15,2.08C6.644,1.2 8.337,0.76 10.23,0.76ZM15.31,8.72C15.204,7.626 14.644,6.706 13.63,5.96C12.644,5.186 11.524,4.8 10.27,4.8C9.017,4.8 7.937,5.186 7.03,5.96C6.124,6.706 5.577,7.626 5.39,8.72L15.31,8.72Z" fill="#92959E"/>
</svg>
