<svg width="22" height="18" viewBox="0 0 22 18" fill="none" xmlns="http://www.w3.org/2000/svg" xmlns:xlink="http://www.w3.org/1999/xlink">
<path d="M19.985,16.8C19.985,16.934 20.078,17.04 20.265,17.12C20.478,17.2 20.691,17.24 20.905,17.24L20.905,18L13.865,18L13.865,17.24C14.078,17.24 14.278,17.2 14.465,17.12C14.678,17.04 14.785,16.934 14.785,16.8L14.785,8.48C14.785,7.12 14.451,5.96 13.785,5C13.118,4.014 12.118,3.52 10.785,3.52C9.425,3.52 8.318,3.974 7.465,4.88C6.638,5.787 6.225,7.094 6.225,8.8L6.225,16.8C6.225,16.934 6.318,17.04 6.505,17.12C6.718,17.2 6.931,17.24 7.145,17.24L7.145,18L0.145,18L0.145,17.24C0.358,17.24 0.558,17.2 0.745,17.12C0.958,17.04 1.065,16.934 1.065,16.8L1.065,0.8C1.065,0.667 0.958,0.56 0.745,0.48C0.558,0.4 0.371,0.36 0.185,0.36L0.185,-0.4L6.225,-0.4L6.225,1.24C6.918,0.6 7.731,0.107 8.665,-0.24C9.625,-0.613 10.598,-0.8 11.585,-0.8C13.291,-0.8 14.771,-0.44 16.025,0.28C17.305,1 18.278,1.974 18.945,3.2C19.638,4.4 19.985,5.747 19.985,7.24L19.985,16.8Z" fill="#92959E"/>
</svg>
