<svg width="32" height="32" viewBox="0 0 32 32" fill="none" xmlns="http://www.w3.org/2000/svg" xmlns:xlink="http://www.w3.org/1999/xlink">
<path d="M22.92,20.637L31.528,29.245C31.83,29.547 32,29.958 32,30.386C32,30.814 31.83,31.224 31.527,31.527C31.224,31.829 30.814,31.999 30.386,31.999C29.958,31.999 29.547,31.829 29.245,31.526L20.637,22.919C18.064,24.912 14.828,25.849 11.588,25.541C8.348,25.233 5.347,23.703 3.195,21.26C1.044,18.818 -0.096,15.648 0.006,12.395C0.109,9.142 1.447,6.05 3.749,3.749C6.05,1.447 9.142,0.109 12.395,0.006C15.648,-0.096 18.818,1.044 21.26,3.195C23.703,5.347 25.233,8.348 25.541,11.588C25.849,14.828 24.912,18.064 22.919,20.637L22.92,20.637ZM12.801,22.399C15.347,22.399 17.788,21.387 19.589,19.587C21.389,17.787 22.4,15.345 22.4,12.799C22.4,10.253 21.389,7.811 19.589,6.011C17.788,4.211 15.347,3.199 12.801,3.199C10.255,3.199 7.813,4.211 6.013,6.011C4.212,7.811 3.201,10.253 3.201,12.799C3.201,15.345 4.212,17.787 6.013,19.587C7.813,21.387 10.255,22.399 12.801,22.399L12.801,22.399Z" clip-rule="evenodd" fill-rule="evenodd" fill="#FFFFFF"/>
</svg>
