<svg width="30" height="32" viewBox="0 0 30 32" fill="none" xmlns="http://www.w3.org/2000/svg" xmlns:xlink="http://www.w3.org/1999/xlink">
<path d="M27.94,29.04C28.073,29.173 28.273,29.24 28.54,29.24C28.807,29.213 28.953,29.2 28.98,29.2L28.98,29.96L19.86,29.96L19.86,29.2C20.233,29.2 20.447,29.16 20.5,29.08C20.553,29 20.527,28.88 20.42,28.72L18.94,26.96C17.58,28.213 16.167,29.173 14.7,29.84C13.26,30.48 11.713,30.8 10.06,30.8C8.353,30.8 6.793,30.453 5.38,29.76C3.993,29.04 2.9,28.08 2.1,26.88C1.327,25.68 0.94,24.36 0.94,22.92C0.94,21.4 1.26,20.067 1.9,18.92C2.54,17.773 3.513,16.733 4.82,15.8C6.127,14.867 7.087,14.173 7.7,13.72C6.713,12.52 5.953,11.36 5.42,10.24C4.887,9.12 4.62,7.973 4.62,6.8C4.62,4.32 5.34,2.413 6.78,1.08C8.247,-0.253 10.113,-0.92 12.38,-0.92C13.847,-0.92 15.14,-0.6 16.26,0.04C17.407,0.653 18.287,1.52 18.9,2.64C19.513,3.76 19.82,5.04 19.82,6.48C19.82,7.92 19.46,9.227 18.74,10.4C18.02,11.547 16.913,12.68 15.42,13.8L14.98,14.12L19.42,19.2C20.273,18.16 21.073,17.08 21.82,15.96C21.847,15.933 21.86,15.88 21.86,15.8C21.86,15.667 21.807,15.547 21.7,15.44C21.593,15.307 21.487,15.2 21.38,15.12L21.82,14.48L27.14,18.08L26.74,18.68C26.233,18.44 25.913,18.413 25.78,18.6C24.74,20.12 23.7,21.56 22.66,22.92L27.94,29.04ZM12.22,3.76C11.5,3.76 10.913,4.013 10.46,4.52C10.007,5.027 9.78,5.653 9.78,6.4C9.78,7.093 9.967,7.773 10.34,8.44C10.713,9.107 11.26,9.867 11.98,10.72C13.687,9.44 14.54,8.027 14.54,6.48C14.54,5.627 14.327,4.96 13.9,4.48C13.5,4 12.94,3.76 12.22,3.76ZM10.02,25.72C11.78,25.72 13.673,24.853 15.7,23.12L10.74,17.28C9.7,18 8.7,18.72 7.74,19.44C7.1,19.893 6.66,20.373 6.42,20.88C6.207,21.36 6.1,21.907 6.1,22.52C6.1,23.507 6.46,24.293 7.18,24.88C7.927,25.44 8.873,25.72 10.02,25.72Z" fill="#92959E"/>
</svg>
