<svg width="22" height="18" viewBox="0 0 22 18" fill="none" xmlns="http://www.w3.org/2000/svg" xmlns:xlink="http://www.w3.org/1999/xlink">
<path d="M19.789,16.8C19.789,16.934 19.883,17.04 20.069,17.12C20.283,17.2 20.496,17.24 20.709,17.24L20.709,18L13.669,18L13.669,17.24C13.883,17.24 14.083,17.2 14.269,17.12C14.483,17.04 14.589,16.934 14.589,16.8L14.589,8.48C14.589,7.12 14.256,5.96 13.589,5C12.923,4.014 11.923,3.52 10.589,3.52C9.229,3.52 8.123,3.974 7.269,4.88C6.443,5.787 6.029,7.094 6.029,8.8L6.029,16.8C6.029,16.934 6.123,17.04 6.309,17.12C6.523,17.2 6.736,17.24 6.949,17.24L6.949,18L-0.051,18L-0.051,17.24C0.163,17.24 0.363,17.2 0.549,17.12C0.763,17.04 0.869,16.934 0.869,16.8L0.869,0.8C0.869,0.667 0.763,0.56 0.549,0.48C0.363,0.4 0.176,0.36 -0.011,0.36L-0.011,-0.4L6.029,-0.4L6.029,1.24C6.723,0.6 7.536,0.107 8.469,-0.24C9.429,-0.613 10.403,-0.8 11.389,-0.8C13.096,-0.8 14.576,-0.44 15.829,0.28C17.109,1 18.083,1.974 18.749,3.2C19.443,4.4 19.789,5.747 19.789,7.24L19.789,16.8Z" fill="#92959E"/>
</svg>
