<svg width="12" height="24" viewBox="0 0 12 24" fill="none" xmlns="http://www.w3.org/2000/svg" xmlns:xlink="http://www.w3.org/1999/xlink">
<path d="M11.318,4.8L11.318,10.88L10.558,10.88C10.558,10.693 10.518,10.52 10.438,10.36C10.358,10.173 10.251,10.08 10.118,10.08L7.518,10.08L7.518,22.8C7.518,22.933 7.611,23.04 7.798,23.12C7.984,23.2 8.171,23.24 8.358,23.24L8.358,24L1.838,24L1.838,23.24C2.024,23.24 2.211,23.2 2.398,23.12C2.584,23.04 2.678,22.933 2.678,22.8L2.678,10.08L0.758,10.08C0.624,10.08 0.518,10.173 0.438,10.36C0.358,10.52 0.318,10.693 0.318,10.88L-0.442,10.88L-0.442,4.8L0.318,4.8C0.318,4.986 0.358,5.173 0.438,5.36C0.518,5.52 0.624,5.6 0.758,5.6L2.678,5.6L2.678,0.92C2.678,0.786 2.584,0.68 2.398,0.6C2.211,0.52 2.024,0.48 1.838,0.48L1.838,-0.28L8.358,-0.28L8.358,0.48C8.171,0.48 7.984,0.52 7.798,0.6C7.611,0.68 7.518,0.786 7.518,0.92L7.518,5.6L10.118,5.6C10.251,5.6 10.358,5.52 10.438,5.36C10.518,5.173 10.558,4.986 10.558,4.8L11.318,4.8Z" fill="#92959E"/>
</svg>
