<svg width="20" height="22" viewBox="0 0 20 22" fill="none" xmlns="http://www.w3.org/2000/svg" xmlns:xlink="http://www.w3.org/1999/xlink">
<path d="M9.277,0.76C11.33,0.76 13.104,1.213 14.597,2.12C16.09,3 17.224,4.2 17.997,5.72C18.77,7.24 19.157,8.92 19.157,10.76C19.157,11.32 19.117,11.88 19.037,12.44L4.397,12.44C4.504,13.72 5.064,14.72 6.077,15.44C7.09,16.16 8.304,16.52 9.717,16.52C10.677,16.52 11.477,16.386 12.117,16.12C12.784,15.853 13.37,15.453 13.877,14.92C13.93,14.813 13.957,14.746 13.957,14.72C13.957,14.613 13.917,14.506 13.837,14.4C13.757,14.266 13.677,14.173 13.597,14.12L14.077,13.52L18.517,17L18.077,17.6C17.677,17.36 17.397,17.333 17.237,17.52C15.37,19.76 12.864,20.88 9.717,20.88C7.69,20.88 5.904,20.44 4.357,19.56C2.81,18.653 1.61,17.453 0.757,15.96C-0.07,14.44 -0.483,12.76 -0.483,10.92C-0.483,8.973 -0.07,7.226 0.757,5.68C1.584,4.133 2.73,2.933 4.197,2.08C5.69,1.2 7.384,0.76 9.277,0.76ZM14.357,8.72C14.25,7.626 13.69,6.706 12.677,5.96C11.69,5.186 10.57,4.8 9.317,4.8C8.064,4.8 6.984,5.186 6.077,5.96C5.17,6.706 4.624,7.626 4.437,8.72L14.357,8.72Z" fill="#92959E"/>
</svg>
