<svg width="22" height="18" viewBox="0 0 22 18" fill="none" xmlns="http://www.w3.org/2000/svg" xmlns:xlink="http://www.w3.org/1999/xlink">
<path d="M20.024,16.8C20.024,16.934 20.117,17.04 20.304,17.12C20.517,17.2 20.73,17.24 20.944,17.24L20.944,18L13.904,18L13.904,17.24C14.117,17.24 14.317,17.2 14.504,17.12C14.717,17.04 14.824,16.934 14.824,16.8L14.824,8.48C14.824,7.12 14.49,5.96 13.824,5C13.157,4.014 12.157,3.52 10.824,3.52C9.464,3.52 8.357,3.974 7.504,4.88C6.677,5.787 6.264,7.094 6.264,8.8L6.264,16.8C6.264,16.934 6.357,17.04 6.544,17.12C6.757,17.2 6.97,17.24 7.184,17.24L7.184,18L0.184,18L0.184,17.24C0.397,17.24 0.597,17.2 0.784,17.12C0.997,17.04 1.104,16.934 1.104,16.8L1.104,0.8C1.104,0.667 0.997,0.56 0.784,0.48C0.597,0.4 0.41,0.36 0.224,0.36L0.224,-0.4L6.264,-0.4L6.264,1.24C6.957,0.6 7.77,0.107 8.704,-0.24C9.664,-0.613 10.637,-0.8 11.624,-0.8C13.33,-0.8 14.81,-0.44 16.064,0.28C17.344,1 18.317,1.974 18.984,3.2C19.677,4.4 20.024,5.747 20.024,7.24L20.024,16.8Z" fill="#92959E"/>
</svg>
