<svg width="14" height="20" viewBox="0 0 14 20" fill="none" xmlns="http://www.w3.org/2000/svg" xmlns:xlink="http://www.w3.org/1999/xlink">
<path d="M12.91,0.4L12.91,6.84L12.15,6.84C12.15,6.654 12.11,6.44 12.03,6.2C11.95,5.96 11.843,5.827 11.71,5.8L11.43,5.8C10.603,5.8 9.763,6.04 8.91,6.52C8.083,6.974 7.39,7.587 6.83,8.36C6.297,9.107 6.03,9.907 6.03,10.76L6.03,18.8C6.03,18.934 6.123,19.04 6.31,19.12C6.523,19.2 6.723,19.24 6.91,19.24L6.91,20L0.19,20L0.19,19.24C0.377,19.24 0.563,19.2 0.75,19.12C0.963,19.04 1.07,18.934 1.07,18.8L1.07,2.8C1.07,2.667 0.963,2.56 0.75,2.48C0.563,2.4 0.377,2.36 0.19,2.36L0.19,1.6L6.03,1.6L6.03,3.32C6.75,2.654 7.617,2.12 8.63,1.72C9.643,1.32 10.657,1.12 11.67,1.12L11.71,1.12L11.75,1.12C11.883,1.12 11.977,1.04 12.03,0.88C12.11,0.72 12.15,0.56 12.15,0.4L12.91,0.4Z" fill="#92959E"/>
</svg>
