<svg width="36" height="32" viewBox="0 0 36 32" fill="none" xmlns="http://www.w3.org/2000/svg" xmlns:xlink="http://www.w3.org/1999/xlink">
<path d="M34.383,28.8C34.383,28.933 34.477,29.04 34.663,29.12C34.877,29.2 35.09,29.24 35.303,29.24L35.303,30L28.303,30L28.303,29.24C28.517,29.24 28.717,29.2 28.903,29.12C29.117,29.04 29.223,28.933 29.223,28.8L29.223,5.88L17.503,31.52L5.823,5.8L5.823,28.8C5.823,28.933 5.916,29.04 6.103,29.12C6.316,29.2 6.53,29.24 6.743,29.24L6.743,30L-0.297,30L-0.297,29.24C-0.084,29.24 0.116,29.2 0.303,29.12C0.516,29.04 0.623,28.933 0.623,28.8L0.623,1.2C0.623,1.067 0.516,0.96 0.303,0.88C0.116,0.8 -0.07,0.76 -0.257,0.76L-0.257,0L10.063,0L10.063,0.76C9.743,0.76 9.53,0.84 9.423,1C9.343,1.133 9.343,1.293 9.423,1.48L17.543,20.36L25.783,1.48C25.837,1.32 25.757,1.16 25.543,1C25.33,0.84 25.063,0.76 24.743,0.76L24.743,0L35.263,0L35.263,0.76C35.077,0.76 34.877,0.8 34.663,0.88C34.477,0.96 34.383,1.067 34.383,1.2L34.383,28.8Z" fill="#92959E"/>
</svg>
