<svg width="24" height="18" viewBox="0 0 24 18" fill="none" xmlns="http://www.w3.org/2000/svg" xmlns:xlink="http://www.w3.org/1999/xlink">
<path d="M22.476,0.36C21.942,0.36 21.609,0.466 21.476,0.68L14.236,16.2C14.156,16.386 14.116,16.546 14.116,16.68C14.116,16.893 14.196,17.04 14.356,17.12C14.542,17.2 14.729,17.24 14.916,17.24L14.916,18L6.836,18L6.836,17.24C7.022,17.24 7.209,17.2 7.396,17.12C7.582,17.013 7.676,16.84 7.676,16.6C7.676,16.466 7.636,16.32 7.556,16.16L0.876,0.72C0.796,0.48 0.476,0.36 -0.084,0.36L-0.084,-0.4L6.876,-0.4L6.876,0.36C6.556,0.36 6.342,0.44 6.236,0.6C6.156,0.733 6.156,0.893 6.236,1.08L11.156,12.56L16.356,1.04C16.382,1.013 16.396,0.973 16.396,0.92C16.396,0.786 16.289,0.666 16.076,0.56C15.889,0.426 15.649,0.36 15.356,0.36L15.356,-0.4L22.476,-0.4L22.476,0.36Z" fill="#92959E"/>
</svg>
