<svg width="24" height="20" viewBox="0 0 24 20" fill="none" xmlns="http://www.w3.org/2000/svg" xmlns:xlink="http://www.w3.org/1999/xlink">
<path d="M22.277,0.36C22.09,0.36 21.89,0.4 21.677,0.48C21.49,0.56 21.397,0.667 21.397,0.8L21.397,16.8C21.397,16.933 21.49,17.04 21.677,17.12C21.89,17.2 22.09,17.24 22.277,17.24L22.277,18L16.357,18L16.357,15.8C14.677,17.613 12.557,18.52 9.997,18.52C8.05,18.52 6.33,18.133 4.837,17.36C3.37,16.56 2.223,15.427 1.397,13.96C0.597,12.493 0.197,10.787 0.197,8.84C0.197,6.947 0.637,5.267 1.517,3.8C2.423,2.307 3.623,1.16 5.117,0.36C6.61,-0.467 8.237,-0.88 9.997,-0.88C12.557,-0.88 14.677,0.107 16.357,2.08L16.357,-0.4L22.277,-0.4L22.277,0.36ZM10.597,14.28C11.69,14.28 12.663,14.04 13.517,13.56C14.397,13.053 15.077,12.4 15.557,11.6C16.037,10.773 16.277,9.893 16.277,8.96C16.277,7.36 15.743,6.04 14.677,5C13.637,3.96 12.277,3.44 10.597,3.44C8.97,3.44 7.623,3.947 6.557,4.96C5.517,5.973 4.997,7.267 4.997,8.84C4.997,10.493 5.53,11.813 6.597,12.8C7.69,13.787 9.023,14.28 10.597,14.28Z" fill="#92959E"/>
</svg>
