<svg width="22" height="22" viewBox="0 0 22 22" fill="none" xmlns="http://www.w3.org/2000/svg" xmlns:xlink="http://www.w3.org/1999/xlink">
<path d="M10.222,0.76C12.276,0.76 14.049,1.213 15.542,2.12C17.036,3 18.169,4.2 18.942,5.72C19.716,7.24 20.102,8.92 20.102,10.76C20.102,11.32 20.062,11.88 19.982,12.44L5.342,12.44C5.449,13.72 6.009,14.72 7.022,15.44C8.036,16.16 9.249,16.52 10.662,16.52C11.622,16.52 12.422,16.386 13.062,16.12C13.729,15.853 14.316,15.453 14.822,14.92C14.876,14.813 14.902,14.746 14.902,14.72C14.902,14.613 14.862,14.506 14.782,14.4C14.702,14.266 14.622,14.173 14.542,14.12L15.022,13.52L19.462,17L19.022,17.6C18.622,17.36 18.342,17.333 18.182,17.52C16.316,19.76 13.809,20.88 10.662,20.88C8.636,20.88 6.849,20.44 5.302,19.56C3.756,18.653 2.556,17.453 1.702,15.96C0.876,14.44 0.462,12.76 0.462,10.92C0.462,8.973 0.876,7.226 1.702,5.68C2.529,4.133 3.676,2.933 5.142,2.08C6.636,1.2 8.329,0.76 10.222,0.76ZM15.302,8.72C15.196,7.626 14.636,6.706 13.622,5.96C12.636,5.186 11.516,4.8 10.262,4.8C9.009,4.8 7.929,5.186 7.022,5.96C6.116,6.706 5.569,7.626 5.382,8.72L15.302,8.72Z" fill="#92959E"/>
</svg>
