<svg width="8" height="28" viewBox="0 0 8 28" fill="none" xmlns="http://www.w3.org/2000/svg" xmlns:xlink="http://www.w3.org/1999/xlink">
<path d="M2.755,6.24C1.902,6.24 1.168,5.947 0.555,5.36C-0.032,4.773 -0.325,4.04 -0.325,3.16C-0.325,2.333 -0.032,1.627 0.555,1.04C1.168,0.427 1.902,0.12 2.755,0.12C3.608,0.12 4.328,0.427 4.915,1.04C5.502,1.627 5.795,2.333 5.795,3.16C5.795,4.04 5.502,4.773 4.915,5.36C4.328,5.947 3.608,6.24 2.755,6.24ZM0.155,10.8C0.155,10.667 0.048,10.56 -0.165,10.48C-0.352,10.4 -0.538,10.36 -0.725,10.36L-0.725,9.6L6.155,9.6L6.155,10.36C5.968,10.36 5.768,10.4 5.555,10.48C5.368,10.56 5.275,10.667 5.275,10.8L5.275,26.8C5.275,26.934 5.368,27.04 5.555,27.12C5.768,27.2 5.968,27.24 6.155,27.24L6.155,28L-0.725,28L-0.725,27.24C-0.538,27.24 -0.352,27.2 -0.165,27.12C0.048,27.04 0.155,26.934 0.155,26.8L0.155,10.8Z" fill="#92959E"/>
</svg>
