<svg width="8" height="22" viewBox="0 0 8 22" fill="none" xmlns="http://www.w3.org/2000/svg" xmlns:xlink="http://www.w3.org/1999/xlink">
<path d="M3.537,7.44C2.55,7.44 1.723,7.12 1.057,6.48C0.417,5.813 0.097,4.986 0.097,4C0.097,3.066 0.43,2.28 1.097,1.64C1.763,0.973 2.577,0.64 3.537,0.64C4.47,0.64 5.257,0.973 5.897,1.64C6.563,2.28 6.897,3.066 6.897,4C6.897,4.986 6.563,5.813 5.897,6.48C5.257,7.12 4.47,7.44 3.537,7.44ZM3.537,20.44C2.55,20.44 1.723,20.12 1.057,19.48C0.417,18.813 0.097,17.986 0.097,17C0.097,16.066 0.43,15.28 1.097,14.64C1.763,13.973 2.577,13.64 3.537,13.64C4.47,13.64 5.257,13.973 5.897,14.64C6.563,15.28 6.897,16.066 6.897,17C6.897,17.986 6.563,18.813 5.897,19.48C5.257,20.12 4.47,20.44 3.537,20.44Z" fill="#92959E"/>
</svg>
