<svg width="24" height="20" viewBox="0 0 24 20" fill="none" xmlns="http://www.w3.org/2000/svg" xmlns:xlink="http://www.w3.org/1999/xlink">
<path d="M22.792,0.36C22.606,0.36 22.406,0.4 22.192,0.48C22.006,0.56 21.912,0.667 21.912,0.8L21.912,16.8C21.912,16.933 22.006,17.04 22.192,17.12C22.406,17.2 22.606,17.24 22.792,17.24L22.792,18L16.872,18L16.872,15.8C15.192,17.613 13.072,18.52 10.512,18.52C8.566,18.52 6.846,18.133 5.352,17.36C3.886,16.56 2.739,15.427 1.912,13.96C1.112,12.493 0.712,10.787 0.712,8.84C0.712,6.947 1.152,5.267 2.032,3.8C2.939,2.307 4.139,1.16 5.632,0.36C7.126,-0.467 8.752,-0.88 10.512,-0.88C13.072,-0.88 15.192,0.107 16.872,2.08L16.872,-0.4L22.792,-0.4L22.792,0.36ZM11.112,14.28C12.206,14.28 13.179,14.04 14.032,13.56C14.912,13.053 15.592,12.4 16.072,11.6C16.552,10.773 16.792,9.893 16.792,8.96C16.792,7.36 16.259,6.04 15.192,5C14.152,3.96 12.792,3.44 11.112,3.44C9.486,3.44 8.139,3.947 7.072,4.96C6.032,5.973 5.512,7.267 5.512,8.84C5.512,10.493 6.046,11.813 7.112,12.8C8.206,13.787 9.539,14.28 11.112,14.28Z" fill="#92959E"/>
</svg>
