<svg width="26" height="32" viewBox="0 0 26 32" fill="none" xmlns="http://www.w3.org/2000/svg" xmlns:xlink="http://www.w3.org/1999/xlink">
<path d="M14.2,30.76C11.907,30.76 9.773,30.226 7.8,29.16C5.827,28.066 3.92,26.573 2.08,24.68C2.027,24.626 1.96,24.6 1.88,24.6C1.64,24.6 1.373,24.746 1.08,25.04L0.56,24.48L6.12,19.24L6.64,19.8C6.48,19.933 6.333,20.12 6.2,20.36C6.067,20.6 6.04,20.773 6.12,20.88C8.6,24.026 11.307,25.6 14.24,25.6C15.253,25.6 16.16,25.4 16.96,25C17.787,24.6 18.427,24.093 18.88,23.48C19.333,22.84 19.56,22.186 19.56,21.52C19.56,19.946 18.187,18.653 15.44,17.64L10.52,15.8C8.547,15.08 7,14.093 5.88,12.84C4.787,11.586 4.24,10.08 4.24,8.32C4.24,6.586 4.64,5.08 5.44,3.8C6.267,2.493 7.427,1.493 8.92,0.8C10.413,0.106 12.147,-0.24 14.12,-0.24C15.987,-0.24 17.547,0.053 18.8,0.64C20.08,1.2 21.44,2.066 22.88,3.24C22.907,3.266 22.96,3.28 23.04,3.28C23.173,3.28 23.32,3.24 23.48,3.16C23.667,3.053 23.813,2.946 23.92,2.84L24.44,3.36L19.48,8.24L18.96,7.68C19.093,7.546 19.187,7.4 19.24,7.24C19.32,7.053 19.307,6.92 19.2,6.84C17.467,5.453 15.747,4.76 14.04,4.76C12.68,4.76 11.6,5.08 10.8,5.72C10,6.333 9.6,7.12 9.6,8.08C9.6,8.933 9.813,9.586 10.24,10.04C10.693,10.493 11.373,10.88 12.28,11.2L17.12,12.96C18.8,13.573 20.2,14.226 21.32,14.92C22.44,15.586 23.333,16.48 24,17.6C24.667,18.693 25,20.066 25,21.72C25,23.32 24.573,24.813 23.72,26.2C22.893,27.56 21.653,28.666 20,29.52C18.373,30.346 16.44,30.76 14.2,30.76Z" fill="#92959E"/>
</svg>
