<svg width="20" height="22" viewBox="0 0 20 22" fill="none" xmlns="http://www.w3.org/2000/svg" xmlns:xlink="http://www.w3.org/1999/xlink">
<path d="M9.515,20.84C7.808,20.84 6.221,20.413 4.755,19.56C3.288,18.707 2.115,17.547 1.235,16.08C0.381,14.613 -0.045,13.013 -0.045,11.28C-0.045,9.227 0.381,7.427 1.235,5.88C2.115,4.307 3.288,3.107 4.755,2.28C6.221,1.427 7.835,1 9.595,1C10.848,1 11.915,1.147 12.795,1.44C13.701,1.733 14.421,2.093 14.955,2.52C15.515,2.92 16.208,3.493 17.035,4.24C17.088,4.293 17.155,4.32 17.235,4.32C17.341,4.32 17.461,4.28 17.595,4.2C17.755,4.12 17.875,4.04 17.955,3.96L18.475,4.52L14.155,8.52L13.635,7.96C13.768,7.853 13.875,7.707 13.955,7.52C14.061,7.307 14.075,7.147 13.995,7.04C13.035,5.867 11.715,5.28 10.035,5.28C8.515,5.28 7.235,5.787 6.195,6.8C5.181,7.813 4.675,9.133 4.675,10.76C4.675,12.44 5.168,13.787 6.155,14.8C7.141,15.813 8.435,16.32 10.035,16.32C10.835,16.32 11.488,16.227 11.995,16.04C12.501,15.827 13.075,15.44 13.715,14.88C13.768,14.827 13.795,14.76 13.795,14.68C13.795,14.52 13.701,14.347 13.515,14.16L13.995,13.56L18.315,17.16L17.835,17.72C17.408,17.48 17.115,17.44 16.955,17.6C15.968,18.693 14.928,19.507 13.835,20.04C12.768,20.573 11.328,20.84 9.515,20.84Z" fill="#92959E"/>
</svg>
