<svg width="20" height="22" viewBox="0 0 20 22" fill="none" xmlns="http://www.w3.org/2000/svg" xmlns:xlink="http://www.w3.org/1999/xlink">
<path d="M9.683,0.76C11.737,0.76 13.51,1.213 15.003,2.12C16.497,3 17.63,4.2 18.403,5.72C19.177,7.24 19.563,8.92 19.563,10.76C19.563,11.32 19.523,11.88 19.443,12.44L4.803,12.44C4.91,13.72 5.47,14.72 6.483,15.44C7.497,16.16 8.71,16.52 10.123,16.52C11.083,16.52 11.883,16.386 12.523,16.12C13.19,15.853 13.777,15.453 14.283,14.92C14.337,14.813 14.363,14.746 14.363,14.72C14.363,14.613 14.323,14.506 14.243,14.4C14.163,14.266 14.083,14.173 14.003,14.12L14.483,13.52L18.923,17L18.483,17.6C18.083,17.36 17.803,17.333 17.643,17.52C15.777,19.76 13.27,20.88 10.123,20.88C8.097,20.88 6.31,20.44 4.763,19.56C3.217,18.653 2.017,17.453 1.163,15.96C0.337,14.44 -0.077,12.76 -0.077,10.92C-0.077,8.973 0.337,7.226 1.163,5.68C1.99,4.133 3.137,2.933 4.603,2.08C6.097,1.2 7.79,0.76 9.683,0.76ZM14.763,8.72C14.657,7.626 14.097,6.706 13.083,5.96C12.097,5.186 10.977,4.8 9.723,4.8C8.47,4.8 7.39,5.186 6.483,5.96C5.577,6.706 5.03,7.626 4.843,8.72L14.763,8.72Z" fill="#92959E"/>
</svg>
