<svg width="20" height="22" viewBox="0 0 20 22" fill="none" xmlns="http://www.w3.org/2000/svg" xmlns:xlink="http://www.w3.org/1999/xlink">
<path d="M9.522,20.84C7.816,20.84 6.229,20.413 4.762,19.56C3.296,18.707 2.122,17.547 1.242,16.08C0.389,14.613 -0.038,13.013 -0.038,11.28C-0.038,9.227 0.389,7.427 1.242,5.88C2.122,4.307 3.296,3.107 4.762,2.28C6.229,1.427 7.842,1 9.602,1C10.856,1 11.922,1.147 12.802,1.44C13.709,1.733 14.429,2.093 14.962,2.52C15.522,2.92 16.216,3.493 17.042,4.24C17.096,4.293 17.162,4.32 17.242,4.32C17.349,4.32 17.469,4.28 17.602,4.2C17.762,4.12 17.882,4.04 17.962,3.96L18.482,4.52L14.162,8.52L13.642,7.96C13.776,7.853 13.882,7.707 13.962,7.52C14.069,7.307 14.082,7.147 14.002,7.04C13.042,5.867 11.722,5.28 10.042,5.28C8.522,5.28 7.242,5.787 6.202,6.8C5.189,7.813 4.682,9.133 4.682,10.76C4.682,12.44 5.176,13.787 6.162,14.8C7.149,15.813 8.442,16.32 10.042,16.32C10.842,16.32 11.496,16.227 12.002,16.04C12.509,15.827 13.082,15.44 13.722,14.88C13.776,14.827 13.802,14.76 13.802,14.68C13.802,14.52 13.709,14.347 13.522,14.16L14.002,13.56L18.322,17.16L17.842,17.72C17.416,17.48 17.122,17.44 16.962,17.6C15.976,18.693 14.936,19.507 13.842,20.04C12.776,20.573 11.336,20.84 9.522,20.84Z" fill="#92959E"/>
</svg>
